<?xml version="1.0" standalone="no"?><!DOCTYPE svg PUBLIC "-//W3C//DTD SVG 1.1//EN" "http://www.w3.org/Graphics/SVG/1.1/DTD/svg11.dtd" ><svg xmlns="http://www.w3.org/2000/svg"><metadata></metadata><defs><font id="Founder:FZQingKeBenYueSongS-R-GB	Regular" horiz-adv-x="256"><font-face font-family="FZQingKeBenYueSongS-R-GB" font-weight="400" font-stretch="normal" units-per-em="256" panose-1="2 0 0 0 0 0 0 0 0 0" ascent="221" descent="-58" x-height="0" bbox="0 -48 262 218" underline-thickness="12" underline-position="-46" unicode-range="U+0021-ff0c" /><missing-glyph horiz-adv-x="256"  /><glyph glyph-name="" unicode="!" d="M29 34 Q44 33 45 16 Q44 1 29 0 Q14 1 13 16 Q14 33 29 34 ZM32 53 L26 53 Q24 109 18 137 Q13 156 13 168 Q13 181 30 181 Q46 181 46 167 Q46 156 41 137 Q35 103 32 53 Z" /><glyph glyph-name="" unicode="&quot;" d="M34 163 L28 120 Q27 114 24 113 Q20 114 19 120 L14 163 Q12 181 24 181 Q37 181 34 163 ZM72 163 L66 120 Q64 114 61 114 Q58 114 57 120 L52 163 Q49 181 62 181 Q73 181 72 163 Z" /><glyph glyph-name="" unicode="#" d="M56 2 L63 60 L41 60 L34 2 L19 2 L26 60 L8 60 L8 70 L28 70 L34 115 L14 115 L14 125 L35 125 L42 176 L57 176 L50 125 L71 125 L78 176 L93 176 L87 125 L105 125 L105 115 L85 115 L79 70 L101 70 L101 60 L78 60 L70 2 L56 2 ZM48 115 L42 70 L64 70 L70 115 L48 115 Z" /><glyph glyph-name="" unicode="(" d="M72 -18 L65 -24 Q13 24 15 87 Q14 144 65 200 L73 195 Q36 146 37 87 Q36 27 72 -18 Z" /><glyph glyph-name="" unicode=")" d="M13 195 L20 200 Q70 145 70 87 Q72 25 21 -24 L14 -18 Q49 27 48 87 Q49 145 13 195 Z" /><glyph glyph-name="" unicode="," d="M18 -31 L13 -24 Q34 -11 35 2 Q14 1 13 22 Q13 42 33 42 Q53 41 53 17 Q54 -12 18 -31 Z" /><glyph glyph-name="" unicode="-" d="M99 84 L13 84 L13 96 L99 96 L99 84 Z" /><glyph glyph-name="" unicode="." d="M33 43 Q50 42 51 23 Q50 3 33 2 Q14 3 13 22 Q14 42 33 43 Z" /><glyph glyph-name="" unicode="/" d="M20 -32 L9 -32 L56 184 L68 184 L20 -32 Z" /><glyph glyph-name="" unicode="0" d="M57 180 Q101 179 101 89 Q101 -1 57 0 Q11 -1 12 89 Q12 180 57 180 ZM57 172 Q36 173 36 89 Q36 3 57 6 Q78 4 78 89 Q79 175 57 172 Z" /><glyph glyph-name="" unicode="1" d="M77 3 L11 3 L11 9 Q34 8 33 36 L33 137 Q34 162 13 162 L13 168 L56 180 L56 37 Q54 7 77 9 L77 3 Z" /><glyph glyph-name="" unicode="2" d="M96 60 L103 58 L99 3 L13 3 Q16 55 53 88 Q77 109 77 136 Q77 173 56 173 Q41 171 38 153 Q51 130 29 124 Q15 125 15 142 Q18 179 57 181 Q99 179 101 136 Q102 99 63 76 Q35 62 27 30 L78 30 Q91 27 96 60 Z" /><glyph glyph-name="" unicode="3" d="M38 89 L38 98 Q73 102 73 139 Q73 172 54 173 Q39 172 37 156 Q47 133 26 129 Q13 129 13 146 Q16 179 55 181 Q95 179 97 138 Q97 107 58 94 Q101 84 99 46 Q98 0 54 0 Q10 2 10 31 Q11 49 25 50 Q47 45 36 22 Q41 6 54 6 Q75 8 76 46 Q77 88 38 89 Z" /><glyph glyph-name="" unicode="4" d="M98 3 L46 3 L46 10 Q61 9 60 30 L60 49 L9 49 L9 60 L66 177 L83 177 L83 60 L100 60 L100 49 L83 49 L83 31 Q82 8 98 10 L98 3 ZM60 60 L60 143 L19 60 L60 60 Z" /><glyph glyph-name="" unicode="5" d="M22 177 L92 177 L92 150 L29 150 L25 93 Q38 109 56 109 Q96 105 99 56 Q98 2 52 0 Q13 1 11 30 Q12 47 25 48 Q47 43 35 21 Q40 7 52 7 Q75 9 76 55 Q76 99 49 99 Q33 99 23 74 L16 76 L22 177 Z" /><glyph glyph-name="" unicode="6" d="M60 172 Q37 169 36 98 Q46 113 61 113 Q97 107 100 57 Q98 1 56 0 Q13 0 13 83 Q15 176 62 181 Q93 179 96 152 Q96 136 82 136 Q64 138 72 161 Q70 173 60 172 ZM57 103 Q38 100 36 61 Q37 9 56 6 Q77 7 77 56 Q76 100 57 103 Z" /><glyph glyph-name="" unicode="7" d="M19 120 L13 121 L18 177 L99 177 L99 160 Q61 86 62 15 Q62 0 48 0 Q35 0 35 12 Q35 54 85 150 L38 150 Q25 152 19 120 Z" /><glyph glyph-name="" unicode="8" d="M95 140 Q93 112 69 100 Q100 78 99 48 Q98 1 53 0 Q12 0 11 40 Q11 71 38 87 Q13 107 13 133 Q15 179 55 181 Q93 179 95 140 ZM35 146 Q34 122 62 103 Q78 119 77 142 Q76 172 55 173 Q36 170 35 146 ZM78 38 Q79 64 46 82 Q28 67 28 43 Q29 9 53 7 Q76 10 78 38 Z" /><glyph glyph-name="" unicode="9" d="M52 7 Q72 5 76 81 Q65 65 49 65 Q13 67 12 120 Q13 178 55 180 Q96 175 99 95 Q99 0 51 0 Q18 0 15 26 Q16 43 29 44 Q51 41 41 17 Q44 7 52 7 ZM55 172 Q36 170 35 121 Q35 78 55 77 Q76 77 76 123 Q75 170 55 172 Z" /><glyph glyph-name="" unicode=":" d="M30 117 Q46 116 47 97 Q46 79 30 78 Q15 79 14 97 Q15 116 30 117 ZM30 37 Q46 36 47 17 Q46 0 30 -1 Q15 -1 14 17 Q15 36 30 37 Z" /><glyph glyph-name="" unicode=";" d="M32 116 Q48 116 48 97 Q47 79 32 78 Q17 79 16 97 Q17 115 32 116 ZM21 -31 L16 -23 Q31 -14 34 0 Q15 -1 16 17 Q18 34 31 36 Q50 35 50 14 Q50 -13 21 -31 Z" /><glyph glyph-name="" unicode="&lt;" d="M97 150 L97 132 L27 90 L97 47 L97 29 L9 86 L9 94 L97 150 Z" /><glyph glyph-name="" unicode="=" d="M88 106 L9 106 L9 118 L88 118 L88 106 ZM88 61 L9 61 L9 74 L88 74 L88 61 Z" /><glyph glyph-name="" unicode="&gt;" d="M78 90 L8 132 L8 150 L96 94 L96 85 L8 29 L8 47 L78 90 Z" /><glyph glyph-name="" unicode="a" d="M91 3 L91 10 Q113 10 108 24 L98 60 L48 60 L37 24 Q32 11 56 10 L56 3 L8 3 L8 10 Q23 9 28 25 L76 177 L89 178 L133 33 Q139 10 156 10 L156 3 L91 3 ZM51 70 L95 70 L74 144 L51 70 Z" /><glyph glyph-name="" unicode="b" d="M25 31 L25 146 Q26 171 8 169 L8 177 L72 177 Q123 178 122 136 Q123 104 85 93 Q127 86 126 50 Q127 2 70 3 L8 3 L8 9 Q26 7 25 31 ZM49 97 L68 97 Q99 97 99 136 Q98 168 67 169 L49 169 L49 97 ZM49 11 L66 11 Q100 12 101 49 Q101 89 67 89 L49 89 L49 11 Z" /><glyph glyph-name="" unicode="c" d="M128 175 L130 122 L123 119 Q109 174 80 171 Q40 167 38 89 Q40 14 82 12 Q111 13 126 51 L135 46 Q118 0 80 0 Q15 4 12 88 Q15 176 80 180 Q100 180 114 170 L128 175 Z" /><glyph glyph-name="" unicode="d" d="M9 177 L66 177 Q144 177 143 91 Q144 2 67 3 L9 3 L9 11 Q27 9 26 33 L26 145 Q27 171 9 169 L9 177 ZM49 11 L67 11 Q118 12 119 90 Q119 169 66 169 L49 169 L49 11 Z" /><glyph glyph-name="" unicode="e" d="M25 33 L25 145 Q26 170 7 169 L7 177 L112 177 L115 135 L109 133 Q102 173 75 169 L48 169 L48 97 L67 97 Q90 95 90 122 L97 122 L97 62 L90 62 Q89 91 67 89 L48 89 L48 11 L79 11 Q100 6 112 52 L118 51 L114 3 L7 3 L7 11 Q26 10 25 33 Z" /><glyph glyph-name="" unicode="f" d="M26 36 L26 144 Q27 171 9 169 L9 177 L112 177 L116 133 L108 131 Q101 173 77 169 L49 169 L49 97 L71 97 Q90 95 91 121 L98 121 L98 63 L91 63 Q89 91 71 89 L49 89 L49 37 Q47 9 68 11 L68 3 L8 3 L8 11 Q27 10 26 36 Z" /><glyph glyph-name="" unicode="g" d="M91 83 L144 83 L144 76 Q129 78 130 54 L130 32 Q130 20 130 12 Q118 11 108 6 Q93 0 77 0 Q13 2 11 87 Q14 176 80 179 Q100 179 114 171 L128 176 L130 128 L123 126 Q110 172 80 170 Q38 166 35 89 Q36 14 78 9 Q90 9 106 17 L106 54 Q107 77 91 76 L91 83 Z" /><glyph glyph-name="" unicode="i" d="M9 177 L69 177 L69 169 Q49 171 50 142 L50 36 Q49 9 69 11 L69 3 L8 3 L8 11 Q28 9 27 36 L27 142 Q28 171 9 169 L9 177 Z" /><glyph glyph-name="" unicode="l" d="M115 58 L111 3 L7 3 L7 11 Q28 8 26 36 L26 144 Q27 171 8 169 L8 177 L66 177 L66 169 Q48 171 49 145 L49 11 L75 11 Q98 6 108 60 L115 58 Z" /><glyph glyph-name="" unicode="m" d="M184 3 L124 3 L124 11 Q144 7 143 36 L143 165 L93 9 L84 9 L36 163 L36 38 Q35 9 56 11 L56 3 L8 3 L8 11 Q30 9 28 38 L28 142 Q30 171 11 169 L11 177 L56 177 L97 46 L138 177 L184 177 L184 169 Q164 171 166 146 L166 36 Q163 8 184 11 L184 3 Z" /><glyph glyph-name="" unicode="n" d="M101 177 L145 177 L145 169 Q125 171 127 145 L127 3 L113 3 L34 148 L34 36 Q32 9 54 11 L54 3 L8 3 L8 11 Q27 8 26 36 L26 142 Q28 172 8 169 L8 177 L46 177 L119 43 L119 145 Q121 171 101 169 L101 177 Z" /><glyph glyph-name="" unicode="o" d="M76 180 Q141 176 143 89 Q141 2 76 0 Q12 1 10 87 Q13 177 76 180 ZM76 172 Q35 170 34 89 Q34 8 76 6 Q117 8 118 88 Q118 172 76 172 Z" /><glyph glyph-name="" unicode="p" d="M25 36 L25 144 Q26 171 8 169 L8 177 L67 177 Q122 177 122 129 Q123 75 68 76 L48 76 L48 37 Q47 9 67 11 L67 3 L8 3 L8 11 Q26 9 25 36 ZM48 83 L61 83 Q97 84 98 128 Q98 169 61 169 L48 169 L48 83 Z" /><glyph glyph-name="" unicode="r" d="M25 34 L25 144 Q26 171 8 169 L8 177 L66 177 Q121 177 121 133 Q121 102 95 90 L119 29 Q124 14 138 11 L138 3 L101 3 L73 84 L49 84 L49 35 Q47 9 66 11 L66 3 L8 3 L8 11 Q26 9 25 34 ZM49 92 L65 92 Q97 93 97 132 Q98 170 63 169 L49 169 L49 92 Z" /><glyph glyph-name="" unicode="s" d="M100 177 L101 130 L95 128 Q83 174 59 172 Q36 171 35 142 Q35 121 69 105 Q109 86 108 53 Q107 1 58 0 Q46 0 29 6 L16 3 L15 53 L22 54 Q30 5 58 8 Q85 9 86 37 Q86 63 46 82 Q14 97 14 129 Q15 179 59 180 Q74 180 89 173 L100 177 Z" /><glyph glyph-name="" unicode="t" d="M40 3 L40 11 Q62 8 61 34 L61 169 Q25 170 16 115 L9 117 L14 177 L133 177 L136 117 L130 115 Q119 169 84 169 L84 35 Q82 9 105 11 L105 3 L40 3 Z" /><glyph glyph-name="" unicode="v" d="M82 3 L70 3 L30 143 Q24 166 7 169 L7 177 L68 177 L68 169 Q46 172 55 142 L84 37 L114 143 Q123 170 101 169 L101 177 L147 177 L147 169 Q129 169 122 142 L82 3 Z" /><glyph glyph-name="" unicode="w" d="M51 145 L72 40 L105 173 L121 173 L151 41 L173 142 Q180 170 156 169 L156 177 L201 177 L201 169 Q186 171 179 136 L150 3 L136 3 L104 140 L70 3 L57 3 L27 142 Q22 169 7 169 L7 177 L66 177 L66 169 Q44 171 51 145 Z" /><glyph glyph-name="" unicode="x" d="M143 177 L143 169 Q124 169 111 144 L85 99 L117 33 Q124 12 144 10 L144 3 L83 3 L83 10 Q100 10 95 23 L70 76 L42 27 Q33 12 56 10 L56 3 L7 3 L7 10 Q24 11 36 32 L65 85 L33 147 Q25 166 9 169 L9 177 L71 177 L71 169 Q49 168 60 147 L80 107 L108 155 Q112 168 94 169 L94 177 L143 177 Z" /><glyph glyph-name="" unicode="[" d="M17 195 L57 195 L57 187 L48 187 Q40 187 40 174 L40 -1 Q39 -14 49 -13 L57 -13 L57 -21 L17 -21 L17 195 Z" /><glyph glyph-name="" unicode="]" d="M50 -21 L9 -21 L9 -13 L17 -13 Q27 -14 27 0 L27 174 Q27 187 17 187 L9 187 L9 195 L50 195 L50 -21 Z" /><glyph glyph-name="" unicode="_" d="M105 -27 L8 -27 L8 -15 L105 -15 L105 -27 Z" /><glyph glyph-name="" unicode="a" d="M87 90 L87 25 Q86 11 98 12 L99 4 L76 2 Q65 0 66 19 Q55 0 35 0 Q10 3 9 33 Q9 72 65 74 L65 91 Q65 116 51 117 Q42 117 37 108 Q47 87 27 84 Q16 85 15 98 Q19 123 51 125 Q86 125 87 90 ZM65 47 L65 67 Q33 65 32 35 Q32 12 46 12 Q64 14 65 47 Z" /><glyph glyph-name="" unicode="b" d="M6 158 L6 166 L42 177 Q42 156 42 127 L42 105 Q49 124 66 124 Q101 120 103 62 Q102 2 62 0 Q46 0 36 16 L24 1 L18 3 L20 34 L20 136 Q21 160 6 158 ZM61 114 Q42 111 41 58 Q41 10 61 8 Q81 9 81 61 Q80 111 61 114 Z" /><glyph glyph-name="" unicode="c" d="M80 32 L86 28 Q75 0 53 0 Q13 1 12 61 Q13 123 53 125 Q81 123 84 98 Q84 83 71 83 Q55 87 63 105 Q62 117 52 118 Q34 115 35 62 Q35 12 57 11 Q71 11 80 32 Z" /><glyph glyph-name="" unicode="d" d="M60 160 L60 167 L97 177 Q95 152 95 132 L95 30 Q94 9 107 11 L107 4 L83 2 Q73 0 74 15 Q65 0 48 0 Q13 2 12 60 Q14 121 51 124 Q63 124 74 112 L74 137 Q75 161 60 160 ZM54 114 Q34 113 34 61 Q34 12 54 11 Q74 11 74 63 Q73 112 54 114 Z" /><glyph glyph-name="" unicode="e" d="M79 34 L86 28 Q74 0 52 0 Q12 1 11 60 Q12 124 50 125 Q83 123 84 65 L34 65 Q34 12 57 12 Q71 12 79 34 ZM34 72 L62 72 Q62 117 48 118 Q36 116 34 72 Z" /><glyph glyph-name="" unicode="f" d="M68 121 L68 113 L44 113 L44 33 Q42 9 59 11 L59 3 L8 3 L8 11 Q23 9 22 32 L22 113 L8 113 L8 121 L22 121 L22 141 Q23 176 55 177 Q80 176 82 154 Q82 142 69 141 Q53 143 61 162 Q59 169 53 169 Q44 168 44 147 L44 121 L68 121 Z" /><glyph glyph-name="" unicode="g" d="M96 111 Q95 103 89 107 Q84 113 78 112 Q87 96 87 81 Q86 42 50 40 Q42 40 36 43 Q29 37 29 30 Q29 21 46 20 Q48 20 54 20 Q60 21 63 21 Q94 20 95 -6 Q94 -45 50 -46 Q12 -45 10 -19 Q10 -6 25 0 Q12 6 12 21 Q11 35 29 46 Q14 57 14 80 Q15 124 49 125 Q60 125 67 123 Q79 124 88 124 Q96 124 96 111 ZM49 118 Q36 118 36 81 Q36 49 49 48 Q64 49 64 81 Q63 116 49 118 ZM55 0 L32 0 Q27 -5 27 -14 Q28 -37 52 -38 Q76 -37 77 -17 Q78 0 55 0 Z" /><glyph glyph-name="" unicode="h" d="M110 3 L65 3 L65 11 Q78 9 77 34 L77 80 Q76 108 64 110 Q45 107 43 68 L43 34 Q42 9 55 11 L55 3 L9 3 L9 11 Q22 9 21 33 L21 136 Q22 161 9 158 L9 166 L44 177 Q43 162 43 133 L43 103 Q54 124 72 124 Q99 123 99 83 L99 34 Q98 9 110 11 L110 3 Z" /><glyph glyph-name="" unicode="i" d="M10 107 L10 114 L45 124 L45 34 Q44 9 60 11 L60 3 L9 3 L9 11 Q25 9 24 34 L24 87 Q24 108 10 107 ZM35 178 Q47 176 48 162 Q48 146 35 145 Q22 146 21 162 Q22 177 35 178 Z" /><glyph glyph-name="" unicode="j" d="M29 107 L29 114 L66 124 Q65 108 65 83 L65 -3 Q65 -45 31 -45 Q11 -44 9 -25 Q10 -11 21 -10 Q41 -14 31 -33 Q31 -36 36 -36 Q43 -35 43 -14 L43 86 Q44 109 29 107 ZM54 179 Q67 177 68 162 Q67 146 54 145 Q41 146 40 162 Q41 177 54 179 Z" /><glyph glyph-name="" unicode="k" d="M56 3 L7 3 L7 11 Q21 9 20 30 L20 138 Q22 164 7 161 L7 166 L43 177 Q42 162 42 133 L42 59 L68 102 Q72 114 58 113 L58 121 L102 121 L102 113 Q87 114 71 93 L66 83 L89 28 Q95 13 107 11 L107 3 L76 3 L52 60 L42 46 L42 31 Q41 9 56 11 L56 3 Z" /><glyph glyph-name="" unicode="l" d="M58 3 L7 3 L7 11 Q23 9 22 32 L22 134 Q23 159 8 157 L8 165 L43 177 L43 33 Q42 9 58 11 L58 3 Z" /><glyph glyph-name="" unicode="m" d="M157 3 L113 3 L113 11 Q125 10 124 30 L124 83 Q124 111 111 111 Q94 106 92 77 L92 31 Q92 10 103 11 L103 3 L60 3 L60 11 Q72 9 71 31 L71 80 Q71 111 59 111 Q43 106 41 71 L41 30 Q40 9 52 11 L52 3 L7 3 L7 11 Q19 10 18 30 L18 87 Q19 108 7 106 L7 114 L41 124 L41 102 Q50 124 68 123 Q85 123 91 98 Q102 123 119 123 Q146 122 146 85 L146 30 Q145 10 157 11 L157 3 Z" /><glyph glyph-name="" unicode="n" d="M6 106 L6 114 L39 125 L39 101 Q50 123 67 123 Q94 124 94 85 L94 29 Q93 10 106 11 L106 3 L61 3 L61 11 Q73 9 72 28 L72 79 Q73 112 59 110 Q41 105 39 70 L39 28 Q37 9 50 11 L50 3 L6 3 L6 11 Q19 9 17 29 L17 86 Q18 109 6 106 Z" /><glyph glyph-name="" unicode="o" d="M51 125 Q91 123 92 61 Q91 1 51 0 Q10 0 10 59 Q11 123 51 125 ZM51 118 Q32 117 32 60 Q32 7 51 6 Q69 6 69 61 Q69 117 51 118 Z" /><glyph glyph-name="" unicode="p" d="M43 124 L43 108 Q51 123 67 123 Q101 118 103 63 Q102 1 65 0 Q52 1 43 10 L43 -16 Q42 -40 56 -38 L56 -46 L8 -46 L8 -38 Q23 -40 22 -17 L22 86 Q23 107 8 106 L8 114 L43 124 ZM62 112 Q43 110 42 59 Q42 11 62 10 Q81 14 81 62 Q80 110 62 112 Z" /><glyph glyph-name="" unicode="r" d="M7 116 L43 125 L43 99 Q55 125 70 125 Q85 124 86 106 Q86 90 72 90 Q60 91 61 106 Q45 100 43 70 L43 33 Q42 11 57 11 L57 3 L7 3 L7 11 Q22 10 21 31 L21 86 Q22 109 7 108 L7 116 Z" /><glyph glyph-name="" unicode="s" d="M69 124 L71 90 L65 88 Q57 118 43 117 Q31 117 29 101 Q29 86 49 74 Q76 60 75 36 Q74 1 43 0 Q32 0 22 5 L12 3 L11 37 L17 39 Q24 4 43 7 Q55 8 56 22 Q57 39 33 52 Q10 64 10 88 Q12 123 43 125 Q52 125 60 120 L69 124 Z" /><glyph glyph-name="" unicode="t" d="M32 161 L39 161 L39 121 L60 121 L60 113 L39 113 L39 30 Q38 13 50 13 Q53 13 61 20 L64 12 Q54 0 39 0 Q16 0 17 28 L17 113 L7 113 L7 121 L10 121 Q26 118 32 161 Z" /><glyph glyph-name="" unicode="u" d="M107 11 L108 4 L84 2 Q74 1 75 12 L75 23 Q66 0 46 0 Q19 0 19 36 L19 89 Q20 109 7 109 L7 118 L41 124 Q41 111 41 91 L41 42 Q40 14 56 15 Q75 18 76 59 L76 87 Q77 111 63 109 L63 116 L98 124 Q97 109 97 89 L97 24 Q96 10 107 11 Z" /><glyph glyph-name="" unicode="v" d="M65 121 L99 121 L99 113 Q89 113 81 89 L57 3 L44 3 L19 97 Q15 114 6 113 L6 121 L52 121 L52 113 Q37 113 43 94 L58 34 L75 97 Q80 114 65 113 L65 121 Z" /><glyph glyph-name="" unicode="w" d="M52 38 L70 118 L83 118 L102 36 L114 93 Q118 115 103 114 L103 121 L137 121 L137 114 Q126 114 121 90 L103 3 L89 3 L70 81 L52 3 L38 3 L18 97 Q16 113 7 114 L7 121 L48 121 L48 114 Q37 113 41 94 L52 38 Z" /><glyph glyph-name="" unicode="x" d="M98 3 L48 3 L48 11 Q61 12 56 21 L46 45 L34 21 Q31 16 32 13 Q34 11 41 11 L41 3 L7 3 L7 11 Q19 11 25 24 L42 55 L23 98 Q16 112 7 113 L7 121 L52 121 L52 113 Q46 114 44 112 Q43 109 45 104 L55 79 L68 101 Q71 108 70 110 Q69 113 63 113 L63 121 L97 121 L97 113 Q86 115 76 97 L59 70 L79 28 Q85 12 98 11 L98 3 Z" /><glyph glyph-name="" unicode="y" d="M66 121 L100 121 L100 113 Q89 114 83 93 L50 -17 Q41 -48 28 -47 Q13 -46 13 -30 Q14 -16 26 -15 Q37 -16 37 -25 Q40 -23 44 -11 L48 3 L20 97 Q16 112 7 113 L7 121 L51 121 L51 113 Q39 115 44 98 L59 42 L75 95 Q82 113 66 113 L66 121 Z" /><glyph glyph-name="" unicode="{" d="M45 174 L45 122 Q45 94 21 85 Q45 77 45 48 L45 0 Q44 -14 55 -13 L60 -13 L60 -21 L55 -21 Q20 -21 21 8 L21 54 Q22 79 7 82 L7 89 Q22 93 21 116 L21 163 Q20 196 55 195 L60 195 L60 187 L55 187 Q44 188 45 174 Z" /><glyph glyph-name="" unicode="}" d="M24 0 L24 48 Q23 80 48 85 Q22 91 24 122 L24 172 Q24 188 14 187 L8 187 L8 195 L14 195 Q48 195 48 163 L48 115 Q47 90 62 89 L62 82 Q47 79 48 56 L48 8 Q47 -20 14 -21 L8 -21 L8 -13 L14 -13 Q24 -14 24 0 Z" /><glyph glyph-name="" unicode="·" d="M129 109 Q144 108 145 90 Q144 73 129 71 Q112 72 111 89 Q112 108 129 109 Z" /><glyph glyph-name="" unicode="&#x3002;" d="M53 13 L53 5 Q53 -17 64 -16 Q75 -17 75 6 L75 14 Q75 35 64 35 Q53 34 53 13 ZM63 42 Q90 40 91 10 Q90 -21 63 -23 Q37 -22 36 8 Q38 40 63 42 Z" /><glyph glyph-name="" unicode="&#x300e;" d="M122 193 L122 -11 L133 -11 L133 185 L169 185 L169 193 L122 193 ZM117 198 L174 198 L174 180 L139 180 L139 -17 L117 -17 L117 198 Z" /><glyph glyph-name="" unicode="&#x300f;" d="M134 -12 L134 193 L123 193 L123 -4 L87 -4 L87 -12 L134 -12 ZM139 -17 L82 -17 L82 0 L117 0 L117 199 L139 199 L139 -17 Z" /><glyph glyph-name="" unicode="&#x4e00;" d="M54 95 Q28 93 22 91 L12 101 L202 105 L220 123 L240 103 Q241 100 238 100 L54 95 Z" /><glyph glyph-name="" unicode="&#x4e01;" d="M69 178 Q50 178 33 175 Q32 175 32 175 L22 184 L202 188 L218 206 L240 186 Q241 184 238 183 L129 180 L148 172 Q150 171 148 169 Q146 166 145 160 L144 51 L146 9 Q143 -15 113 -28 Q111 -29 111 -26 Q112 -12 100 -6 Q98 -4 100 -3 Q121 -4 119 6 L120 129 Q120 172 119 179 L69 178 Z" /><glyph glyph-name="" unicode="&#x4e03;" d="M55 104 Q32 99 24 96 L12 104 L99 119 L99 172 Q99 201 98 211 L126 199 Q128 198 128 198 Q128 197 126 196 L123 190 L121 123 L200 137 L215 158 L237 141 Q239 138 236 138 L120 116 L118 26 Q115 8 140 9 Q186 9 205 13 Q223 16 230 39 Q231 41 233 40 Q234 40 234 38 Q231 18 240 12 Q249 5 248 -1 Q246 -8 235 -12 Q198 -23 140 -19 Q98 -14 98 31 L99 112 L55 104 Z" /><glyph glyph-name="" unicode="&#x4e07;" d="M59 179 Q44 178 32 176 L23 185 L207 188 L223 204 L241 185 Q243 182 240 182 L120 180 L119 125 L180 126 L191 140 L214 124 Q217 123 214 120 L206 111 Q206 94 204 57 Q204 51 204 47 Q204 24 202 16 Q195 -9 163 -23 Q160 -24 159 -21 Q159 -3 152 0 Q150 1 150 2 Q150 4 152 3 Q175 1 175 20 Q179 58 179 120 L119 119 L119 110 Q126 26 10 -32 Q8 -32 7 -30 Q7 -29 9 -28 Q98 19 95 108 L96 179 L59 179 Z" /><glyph glyph-name="" unicode="&#x4e08;" d="M68 144 Q50 144 37 140 L26 150 L141 152 L142 215 L172 205 Q175 204 173 201 L167 196 L166 153 L204 154 L220 170 L239 152 Q240 150 240 150 Q239 149 238 149 L166 147 L166 141 Q166 76 142 40 Q180 15 249 -5 Q250 -6 250 -7 Q250 -8 248 -8 Q231 -8 213 -28 Q160 -11 125 20 Q90 -11 10 -33 Q8 -34 8 -32 Q8 -30 9 -29 Q89 -5 115 32 Q85 69 76 127 L80 127 Q87 81 126 51 Q143 86 141 144 L141 146 L68 144 Z" /><glyph glyph-name="" unicode="&#x4e09;" d="M53 -11 Q41 -12 28 -14 Q29 -14 26 -14 L18 -6 L202 -3 L217 11 L237 -5 Q239 -7 236 -7 L53 -11 ZM87 173 Q73 172 60 170 L51 178 L169 179 L184 194 L203 177 Q205 175 202 175 L87 173 ZM91 81 Q77 80 64 78 L56 86 L165 87 L180 101 L199 85 Q201 82 198 82 L91 81 Z" /><glyph glyph-name="" unicode="&#x4e0a;" d="M59 -16 Q33 -16 23 -20 L12 -11 L107 -8 L108 167 L106 213 L138 204 Q141 204 139 200 Q134 197 133 190 L132 115 L190 116 L205 133 L224 114 Q226 112 223 112 L132 109 L131 -8 L201 -7 L219 9 L240 -8 Q241 -11 238 -11 L59 -16 Z" /><glyph glyph-name="" unicode="&#x4e0b;" d="M48 184 Q30 183 21 181 L12 190 L204 193 L221 210 L242 190 Q243 189 243 188 Q243 187 241 187 L118 185 L134 179 Q135 179 135 176 L134 164 L134 51 L135 4 Q132 -12 111 -25 Q107 -26 106 -20 L108 46 L109 157 Q108 173 106 185 L48 184 ZM154 131 Q214 104 219 90 Q222 72 204 60 Q196 56 194 63 Q181 102 152 129 Q152 132 154 131 Z" /><glyph glyph-name="" unicode="&#x4e0d;" d="M68 179 Q52 178 41 176 L32 186 L209 188 L225 205 L243 186 Q244 183 242 183 L162 181 L176 168 Q177 166 173 164 Q177 166 172 163 Q164 151 155 141 L156 2 Q154 -14 135 -24 Q130 -25 130 -20 L131 20 L132 113 Q73 50 6 13 Q4 12 3 13 Q3 14 4 16 Q82 66 127 146 Q127 148 126 152 Q127 150 125 154 Q126 157 129 156 L132 154 Q140 168 146 181 L68 179 ZM184 112 Q229 93 242 69 Q249 52 233 39 Q222 37 220 46 Q212 81 183 110 Q182 111 184 112 Z" /><glyph glyph-name="" unicode="&#x4e14;" d="M54 -15 Q40 -16 27 -18 L19 -10 L74 -8 L75 167 L73 204 L96 192 L158 195 L168 208 L190 193 Q192 192 190 189 L183 180 L185 -6 L207 -5 L222 8 L242 -7 Q244 -9 242 -10 L54 -15 ZM96 187 L95 134 L142 138 Q145 137 146 136 Q146 134 143 133 L95 129 L95 71 L145 76 Q149 76 150 74 Q150 72 147 70 L95 66 L94 -8 L158 -6 L158 190 L96 187 Z" /><glyph glyph-name="" unicode="&#x4e18;" d="M49 -10 Q35 -11 22 -13 L14 -5 L67 -4 L66 136 L64 187 Q64 188 65 189 Q65 189 67 188 L93 175 Q96 174 94 172 Q92 169 90 161 Q90 159 90 158 L90 106 L192 106 L207 121 L225 104 Q227 102 224 102 L166 101 L166 -3 L208 -3 L223 11 L243 -5 Q244 -7 242 -7 L49 -10 ZM90 100 L89 -4 L143 -3 L143 101 L90 100 ZM181 207 L198 184 Q199 183 198 182 Q198 181 196 181 Q168 180 105 174 L105 176 Q159 193 181 207 Z" /><glyph glyph-name="" unicode="&#x4e1a;" d="M42 -12 Q25 -13 13 -15 L5 -7 L92 -6 L93 168 L92 213 L118 205 Q121 204 119 201 Q116 198 114 191 L113 -5 L141 -5 L142 167 L141 212 L170 204 Q173 204 170 200 Q167 199 165 190 L164 54 Q191 116 202 167 L231 150 Q233 148 231 147 L224 142 Q193 83 164 42 L163 -5 L215 -4 L230 10 L252 -6 Q253 -8 251 -9 L42 -12 ZM33 158 Q80 102 84 72 Q81 57 63 51 Q54 49 55 57 Q53 113 31 157 Q31 159 33 158 Z" /><glyph glyph-name="" unicode="&#x4e1b;" d="M146 209 Q146 211 148 210 L175 197 Q177 196 175 193 L170 188 L170 157 Q179 80 247 30 Q249 29 249 28 Q249 26 247 26 Q230 28 212 13 Q178 62 170 127 Q175 44 76 0 Q74 -1 74 0 Q73 1 75 2 Q121 30 134 56 Q148 81 148 141 L147 173 Q147 200 146 209 ZM71 208 Q71 211 73 210 L97 198 Q101 196 97 193 L93 187 L92 146 Q93 124 90 106 Q123 88 128 75 Q125 62 113 54 Q107 53 106 57 Q101 84 89 101 Q85 48 6 0 Q4 0 4 1 Q4 3 6 4 Q46 33 59 62 Q73 92 72 149 L72 172 Q72 200 71 208 ZM52 -21 Q38 -22 25 -24 L18 -16 L200 -13 L219 3 L239 -15 Q241 -17 239 -18 L52 -21 Z" /><glyph glyph-name="" unicode="&#x4e1c;" d="M60 163 Q46 163 32 160 Q31 160 31 160 L22 168 L92 169 L101 190 L106 209 Q106 211 109 211 L132 196 Q134 195 132 192 L118 169 L198 170 L214 186 L232 168 Q233 166 231 166 L114 164 L69 92 L127 93 L128 113 L126 141 Q126 144 128 143 L154 136 Q157 135 155 133 L153 125 L152 94 L185 95 L200 111 L219 93 Q220 91 218 91 L152 89 L151 5 Q149 -16 122 -28 Q120 -28 120 -27 Q120 -13 110 -8 Q108 -6 110 -5 Q129 -5 127 0 L127 88 L53 87 Q50 90 53 92 L60 92 L90 164 L60 163 ZM85 76 L107 64 Q109 62 109 62 Q109 61 107 59 Q75 19 15 -24 Q13 -25 12 -24 Q12 -22 13 -21 Q59 17 85 76 ZM169 68 Q211 47 223 34 Q227 26 216 10 Q207 2 202 15 Q193 41 168 66 Q167 68 169 68 Z" /><glyph glyph-name="" unicode="&#x4e24;" d="M61 183 Q44 182 35 180 L27 188 L197 190 L214 208 L232 188 Q233 187 233 186 Q233 185 231 185 L148 184 L166 175 Q170 174 167 170 L164 165 L162 144 L162 135 L187 135 L196 149 L220 135 Q222 133 220 132 L215 124 L216 38 L217 14 Q216 -11 186 -27 Q184 -27 184 -25 Q185 -10 175 -5 Q172 -3 176 -3 Q190 -3 189 2 L188 129 L161 129 Q158 104 153 90 Q172 83 182 74 Q188 59 176 51 Q168 47 165 55 Q162 75 152 86 Q139 47 110 15 Q107 14 106 14 Q105 15 107 17 Q139 60 143 128 L114 127 Q113 111 108 97 Q119 92 128 83 Q134 77 130 71 Q128 68 124 64 Q117 60 115 68 Q113 81 107 92 Q98 62 73 30 Q70 29 69 30 Q68 31 70 33 Q95 68 96 127 L66 126 L67 14 Q64 -7 51 -23 Q48 -25 46 -25 Q45 -25 45 -21 L47 28 L47 115 L46 142 Q46 145 48 143 L66 132 L96 133 Q96 135 96 139 Q97 144 97 147 L97 183 L61 183 ZM143 134 Q143 141 143 147 L143 184 L103 183 L120 175 Q122 173 120 170 L117 165 L116 144 Q115 138 115 134 L143 134 Z" /><glyph glyph-name="" unicode="&#x4e2a;" d="M121 216 L147 204 Q149 203 149 202 Q149 202 147 200 L142 195 Q162 153 254 111 Q256 107 254 107 Q240 108 220 87 Q164 127 140 192 Q93 119 6 67 Q4 66 3 67 Q3 69 4 70 Q80 121 121 216 ZM148 124 Q149 124 149 122 L147 111 L146 37 L147 1 Q146 -16 126 -31 Q121 -33 120 -26 L121 19 L122 94 Q122 119 120 136 Q119 139 122 138 L148 124 Z" /><glyph glyph-name="" unicode="&#x4e2b;" d="M194 216 L214 193 Q216 191 211 188 Q191 174 140 145 Q141 144 141 142 L139 130 L138 31 L139 0 Q136 -21 116 -31 Q113 -32 112 -26 L113 16 L114 120 Q114 142 112 155 L135 147 Q163 170 194 216 ZM50 207 Q100 190 103 176 Q104 163 92 152 Q83 149 80 157 Q66 189 48 205 Q45 208 50 207 Z" /><glyph glyph-name="" unicode="&#x4e2d;" d="M52 67 Q41 46 29 52 L28 157 Q28 159 29 160 Q30 160 31 159 L50 148 L112 150 L112 171 L111 215 L141 207 Q144 207 142 204 Q139 201 137 194 L137 150 L195 151 L207 166 L231 152 Q233 151 231 149 L225 140 L226 82 L228 76 Q230 72 225 72 Q200 75 137 73 L137 27 L137 -1 Q132 -20 115 -31 Q112 -32 110 -27 L112 22 L112 73 Q97 73 72 72 Q57 72 52 72 L52 67 ZM51 142 L51 79 L112 80 L112 143 L51 142 ZM196 145 L137 144 L137 81 L197 82 L196 145 Z" /><glyph glyph-name="" unicode="&#x4e30;" d="M56 159 Q51 159 43 158 Q33 158 29 157 L21 165 L113 166 L113 170 L111 215 L143 207 Q144 207 145 206 Q144 205 143 204 Q140 201 138 194 L138 166 L201 167 L217 184 L238 165 Q240 164 237 162 L138 161 L138 111 L190 112 L206 127 L223 110 Q225 108 223 108 L138 106 L139 55 L208 56 L224 73 L246 54 Q247 52 245 52 L139 49 L139 27 L139 -1 Q134 -21 116 -31 Q112 -32 111 -27 L113 22 L113 48 L45 46 Q31 45 18 43 L11 51 L113 54 L113 105 L68 104 Q53 104 40 102 L33 109 L113 111 L113 160 L56 159 Z" /><glyph glyph-name="" unicode="&#x4e34;" d="M202 93 L211 105 L231 92 Q233 92 231 90 L226 82 L226 41 L227 16 Q227 1 212 -14 Q206 -19 205 -13 Q202 -1 198 5 L135 3 L135 0 Q133 -10 122 -20 Q120 -21 118 -21 Q117 -20 117 -18 L118 25 L118 76 L117 100 Q117 101 119 101 L136 91 L202 93 ZM66 -21 L68 31 L68 177 L67 214 L92 203 Q93 202 93 201 L90 196 L89 60 L90 11 Q87 -10 71 -24 Q67 -25 66 -21 ZM98 98 Q96 97 95 97 Q94 98 95 100 Q125 144 145 214 L170 203 Q173 201 170 199 L166 194 Q163 189 157 179 Q154 172 152 169 L202 171 L218 186 L235 168 Q237 168 234 166 L149 164 Q129 134 98 98 ZM30 37 L30 78 L30 142 L29 174 L50 165 Q51 164 51 162 L49 158 L49 57 Q46 42 33 34 Q30 35 30 37 ZM203 88 L179 88 L178 9 L203 10 L203 88 ZM135 86 L135 8 L159 9 L159 87 L135 86 ZM156 154 Q190 140 191 129 Q190 113 179 110 Q170 108 169 114 Q168 138 155 152 Q153 155 156 154 Z" /><glyph glyph-name="" unicode="&#x4e39;" d="M54 92 Q40 92 27 90 L19 98 L81 99 L81 104 L81 174 Q81 201 80 209 L104 195 L163 197 L174 209 L195 195 Q195 195 196 194 Q197 194 196 192 L187 181 L188 100 L208 101 L223 116 L243 99 Q245 97 243 96 L188 95 L188 79 L189 24 Q191 -6 158 -24 Q154 -26 154 -21 Q154 -7 144 0 Q142 1 145 1 Q166 0 164 13 L163 94 L102 93 Q106 6 8 -33 Q5 -33 7 -29 Q50 -5 65 20 Q81 45 81 93 L54 92 ZM102 103 Q102 101 102 99 L163 100 L163 191 L103 189 L102 103 ZM117 165 Q148 151 149 143 Q148 131 138 125 Q131 121 128 130 Q126 155 115 163 Q114 166 117 165 Z" /><glyph glyph-name="" unicode="&#x4e3a;" d="M114 213 L141 204 Q144 204 142 201 L138 195 Q138 183 137 162 Q137 145 137 137 L193 138 L205 152 L229 137 Q232 136 230 134 L221 123 Q221 113 220 88 Q219 60 219 47 Q219 24 217 16 Q210 -9 178 -23 Q176 -24 175 -23 Q174 -22 175 -21 Q176 -3 166 0 Q165 1 165 2 Q165 4 166 3 Q190 0 190 20 Q194 67 195 132 L136 130 Q141 4 6 -30 Q3 -31 4 -26 Q114 7 113 129 L87 129 Q64 128 48 124 L39 134 L113 136 Q114 149 114 166 Q114 181 114 213 ZM177 58 Q176 49 165 39 Q156 35 155 43 Q150 72 138 84 Q137 85 137 87 Q138 88 140 87 Q174 70 177 58 ZM52 194 Q91 181 91 172 Q91 161 81 154 Q74 152 72 158 Q61 182 51 192 Q50 194 52 194 Z" /><glyph glyph-name="" unicode="&#x4e3b;" d="M65 147 Q47 146 38 143 L30 152 L190 155 L205 170 L224 154 Q227 151 223 150 L126 148 L143 141 Q146 141 144 137 L142 129 L141 77 L178 78 L193 92 L212 75 Q214 74 211 72 L141 71 L140 -8 L206 -7 L221 7 L241 -9 Q243 -11 241 -12 L54 -15 Q40 -16 27 -18 L20 -10 L116 -8 L117 70 L87 69 Q71 69 60 66 L51 74 L117 76 L117 104 L116 148 L65 147 ZM112 210 Q148 194 149 180 Q147 167 133 162 Q123 159 122 167 Q122 191 110 207 Q109 208 109 210 Q110 211 112 210 Z" /><glyph glyph-name="" unicode="&#x4e3d;" d="M54 190 Q36 189 26 187 L18 195 L207 198 L222 213 L239 197 Q241 194 238 194 L54 190 ZM153 155 L194 157 L202 168 L223 155 Q225 154 223 152 L217 143 L218 77 L219 23 Q223 -7 194 -25 Q191 -26 191 -23 Q189 -10 183 -8 Q182 -7 182 -6 Q183 -4 184 -5 Q199 -6 196 4 L195 151 L154 150 L154 11 Q153 -6 142 -19 Q139 -22 136 -22 Q134 -22 134 -19 L135 51 L136 131 L136 165 L153 155 ZM60 153 L95 155 L104 165 L124 153 Q126 152 124 150 Q125 150 124 149 L119 141 L119 76 L120 25 Q123 -8 97 -24 Q94 -25 93 -22 Q93 -10 86 -7 Q84 -6 85 -4 Q85 -3 87 -3 Q99 -4 98 6 L96 149 L60 148 L59 10 Q58 -5 47 -20 Q44 -23 42 -23 Q40 -23 40 -20 L41 46 L42 125 L42 163 L60 153 ZM160 119 Q187 91 190 77 Q188 69 177 61 Q172 59 170 61 Q168 63 169 68 Q168 100 158 118 Q158 120 160 119 ZM66 124 Q92 96 92 82 Q92 76 81 66 Q73 63 73 73 Q74 100 64 122 Q64 124 66 124 Z" /><glyph glyph-name="" unicode="&#x4e43;" d="M204 120 L215 133 L238 119 Q240 119 238 116 L231 107 Q223 37 207 2 Q195 -16 168 -26 Q164 -28 164 -23 Q167 -9 154 -3 Q153 -2 153 -1 Q154 0 156 0 Q170 -2 175 0 Q193 12 205 115 L173 113 Q163 101 154 98 Q148 96 147 100 L163 187 L99 184 L118 176 Q119 176 120 175 Q120 175 119 173 L115 167 Q102 58 7 -24 Q4 -26 3 -25 Q2 -23 4 -21 Q81 53 91 184 L72 184 Q54 183 43 179 L31 188 L161 192 L170 205 L194 192 Q196 191 194 189 L187 180 L174 118 L204 120 Z" /><glyph glyph-name="" unicode="&#x4e45;" d="M25 68 Q24 66 23 68 Q22 69 23 71 Q69 121 99 215 L125 202 Q127 199 124 198 L121 194 Q120 191 117 187 Q113 178 104 164 L146 165 L159 179 L182 163 Q185 160 182 159 L173 148 Q164 129 154 113 Q168 46 250 -6 Q252 -9 249 -9 Q231 -9 215 -26 Q160 15 151 107 Q109 32 10 -33 Q8 -34 7 -33 Q6 -31 7 -30 Q103 41 146 159 L100 157 Q70 111 25 68 Z" /><glyph glyph-name="" unicode="&#x4e49;" d="M61 192 Q72 112 123 70 Q157 124 170 209 L201 198 Q204 196 202 193 L196 186 Q177 105 139 57 Q178 27 246 -3 Q248 -5 247 -7 Q247 -8 244 -8 Q229 -7 209 -28 Q153 3 120 37 Q84 0 7 -33 Q4 -33 6 -29 Q73 4 109 50 Q67 101 57 192 L61 192 ZM99 210 Q134 196 131 185 Q131 172 116 165 Q108 163 107 172 Q105 197 97 208 Q95 212 99 210 Z" /><glyph glyph-name="" unicode="&#x4e4c;" d="M177 193 L202 180 Q204 179 202 177 L196 169 Q195 149 190 130 Q185 109 158 99 Q155 98 155 101 Q154 112 146 116 Q144 117 147 119 Q161 118 162 124 Q168 143 169 169 Q169 174 164 174 L97 172 L90 92 L190 94 L201 108 L225 95 Q226 95 226 94 Q226 93 226 92 L219 83 Q212 18 196 -7 Q189 -19 161 -31 Q158 -32 157 -31 Q156 -30 157 -27 Q158 -14 143 -7 Q141 -3 144 -2 Q168 -6 170 -1 Q185 18 191 88 L90 86 Q84 75 71 68 Q64 65 65 70 L69 110 L72 161 L74 189 L95 177 L101 178 Q123 206 127 215 L148 203 Q149 202 149 202 Q149 201 147 200 L140 196 Q128 187 109 178 L166 180 L177 193 ZM58 36 Q44 35 31 33 L22 41 L139 42 L154 58 L173 40 Q175 39 172 37 L58 36 Z" /><glyph glyph-name="" unicode="&#x4e50;" d="M187 206 L206 186 Q208 184 207 184 Q207 183 205 183 Q192 180 87 172 L85 170 L69 96 L128 97 L128 128 L127 156 Q126 158 127 159 Q127 159 129 159 L155 148 Q157 148 156 145 L153 138 L153 98 L199 99 L215 115 L233 98 Q234 96 234 96 Q233 95 232 95 L153 93 L152 51 L153 10 Q154 -12 119 -30 Q117 -31 116 -28 Q116 -13 106 -7 Q104 -6 106 -4 Q130 -6 127 2 L128 92 L44 90 Q41 93 44 94 Q52 95 53 106 L60 161 L62 191 Q62 194 64 192 L89 178 Q158 192 187 206 ZM87 80 L110 66 Q114 65 110 61 Q74 18 18 -22 Q16 -23 15 -22 Q14 -20 15 -19 Q58 14 87 80 ZM167 70 Q221 44 227 34 Q229 21 218 10 Q210 1 204 15 Q189 49 166 67 Q165 69 167 70 Z" /><glyph glyph-name="" unicode="&#x4e5d;" d="M96 212 L126 199 Q128 197 126 194 L122 186 L122 150 L157 151 L166 167 L193 153 Q195 153 193 150 L186 140 L171 25 Q167 9 187 9 Q200 8 217 12 Q230 15 236 32 Q237 33 238 33 Q240 32 239 31 Q237 11 243 9 Q258 -5 239 -16 Q216 -23 181 -18 Q151 -11 151 28 L158 145 L122 143 L122 111 Q131 5 4 -31 Q2 -31 2 -29 Q1 -28 3 -27 Q59 -6 79 24 Q98 50 98 117 L98 143 L70 142 Q54 141 43 138 L35 147 L98 149 L98 174 Q98 180 97 193 Q97 208 96 212 Z" /><glyph glyph-name="" unicode="&#x4e5f;" d="M131 202 L128 197 L128 135 L163 151 L172 170 L195 157 Q197 156 195 154 L187 142 L187 70 Q193 32 158 16 Q155 15 154 18 Q153 31 146 35 Q145 37 146 38 Q165 35 164 60 L164 145 L128 129 L127 54 Q128 26 114 12 Q110 8 108 8 Q106 8 106 13 L106 119 L71 103 L68 16 Q68 3 79 2 Q145 -6 207 5 Q222 8 232 37 Q233 39 235 39 Q237 38 236 36 Q234 15 240 8 Q255 -9 233 -16 Q211 -23 168 -24 Q123 -25 81 -19 Q49 -15 51 28 L52 94 L45 91 Q30 85 18 76 L7 82 L52 102 L52 133 Q52 144 51 160 Q51 167 51 169 Q50 173 53 171 L75 159 Q77 159 75 156 L72 148 L71 110 L106 126 L106 174 Q106 205 105 214 Q105 216 106 215 L130 205 Q131 205 132 204 Q132 204 131 202 Z" /><glyph glyph-name="" unicode="&#x4e60;" d="M199 204 L219 191 Q221 191 219 189 L212 181 L211 84 L213 44 Q215 -2 175 -24 Q174 -6 162 -1 Q160 0 163 0 Q190 -1 187 31 L188 186 L99 184 Q75 184 61 181 L51 189 L188 191 L199 204 ZM177 118 Q95 39 71 8 Q64 0 56 2 Q48 5 52 13 Q66 32 62 48 Q65 29 175 121 Q177 122 178 121 Q178 120 177 118 ZM86 163 Q126 148 127 133 Q129 122 113 112 Q103 108 103 116 Q100 147 85 161 Q83 164 86 163 Z" /><glyph glyph-name="" unicode="&#x4e61;" d="M202 162 Q203 160 201 159 L195 155 Q144 111 83 72 L182 78 Q194 97 202 121 L228 101 Q231 98 228 97 L221 93 Q182 -4 10 -32 Q7 -33 6 -31 Q6 -30 8 -28 Q134 0 179 73 Q91 55 65 44 Q62 42 61 45 L52 69 Q52 70 53 71 Q53 71 54 72 Q67 70 76 76 Q108 100 140 136 Q82 124 60 118 Q58 116 57 118 L50 137 Q62 137 72 145 Q102 175 122 214 L146 197 Q148 196 146 194 Q113 165 77 139 L144 140 Q162 161 177 183 L202 162 Z" /><glyph glyph-name="" unicode="&#x4e73;" d="M162 206 L190 194 Q192 193 190 191 L185 183 L173 28 Q171 8 188 9 Q209 9 217 10 Q231 11 236 32 Q239 35 240 31 Q238 11 244 9 Q258 -5 240 -16 Q218 -24 186 -18 Q156 -10 156 29 L163 167 Q163 195 162 206 ZM28 26 Q26 24 23 27 L9 46 L81 67 Q81 72 80 81 Q80 91 79 95 Q79 98 81 98 L99 92 L119 120 L54 113 Q48 113 37 110 Q36 110 36 110 L27 117 L119 125 L130 134 L149 116 Q150 115 150 114 Q150 113 147 112 Q137 111 104 89 Q104 82 104 74 L143 86 Q145 87 144 83 L105 65 Q105 19 101 2 Q94 -14 69 -26 Q67 -27 66 -26 Q65 -25 66 -23 Q66 -10 59 -4 Q58 -3 59 -2 Q59 -1 61 -1 Q73 -2 76 0 Q81 9 81 54 L57 43 Q43 36 28 26 ZM122 212 L138 190 Q139 189 139 188 Q138 187 136 187 Q115 186 33 175 Q31 175 31 176 Q31 177 32 178 Q100 195 122 212 ZM134 181 L152 169 Q154 168 154 168 Q154 167 152 166 L148 163 Q138 153 104 127 Q102 126 103 129 Q123 155 134 181 ZM38 168 Q62 153 63 144 Q62 134 51 131 Q43 132 42 138 Q43 157 36 167 Q36 169 38 168 ZM78 174 Q100 159 100 148 Q99 140 88 138 Q81 137 80 144 Q81 166 77 173 Q75 175 78 174 Z" /><glyph glyph-name="" unicode="&#x4e7e;" d="M51 171 Q38 171 25 169 Q26 169 24 169 L17 176 L70 176 L70 186 Q70 204 70 216 L96 207 Q98 206 96 204 L93 200 L91 177 L115 177 L126 189 L142 175 Q143 173 141 173 L91 172 L89 145 L103 145 L111 156 L132 145 Q134 144 132 142 L126 135 L125 89 L128 84 Q129 82 128 81 Q127 80 125 81 Q110 81 88 81 L88 51 L112 52 L125 66 L143 49 Q144 47 142 47 L87 46 L87 28 L88 0 Q88 -7 76 -23 Q74 -25 73 -27 Q69 -30 67 -30 Q64 -30 64 -26 L66 45 L44 45 Q26 45 16 42 L9 50 L67 51 L67 81 Q60 81 51 81 Q42 64 35 68 L36 101 L36 131 L36 151 Q36 154 39 153 L54 144 L69 144 L69 172 L51 171 ZM192 114 L170 113 Q157 112 146 110 L138 117 L191 120 L201 131 L225 114 L215 105 L153 20 Q149 14 151 11 Q153 8 161 7 Q187 4 214 11 Q227 12 233 36 Q234 38 235 38 Q237 37 236 35 Q233 17 242 12 Q260 -4 236 -14 Q210 -23 166 -17 Q131 -10 143 26 L192 114 ZM53 138 L52 118 L95 119 Q98 119 98 117 Q98 114 95 114 L52 112 L52 86 L102 87 L103 140 L53 138 ZM167 217 L189 205 Q191 204 189 201 L185 196 Q182 192 177 184 Q171 176 168 172 L207 173 L220 188 L240 172 Q242 170 239 168 L164 166 Q153 151 132 127 Q129 128 130 130 Q153 162 167 217 Z" /><glyph glyph-name="" unicode="&#x4e86;" d="M115 146 L131 140 L177 186 L70 182 Q49 180 39 177 L29 186 L180 192 L194 205 L220 181 Q222 179 221 177 Q220 176 217 176 Q194 174 135 138 L145 135 Q147 133 145 132 Q142 126 141 123 L142 53 L142 17 Q143 -11 106 -29 Q102 -31 101 -26 Q102 -10 89 0 Q87 0 88 1 Q88 2 90 2 Q118 -1 116 10 L115 95 Q114 129 114 144 Q113 147 115 146 Z" /><glyph glyph-name="" unicode="&#x4e8c;" d="M54 1 Q48 1 40 0 Q28 0 24 0 L14 6 L206 9 L222 26 L243 7 Q245 5 243 4 L54 1 ZM72 160 Q59 159 46 157 L36 165 L185 167 L200 182 L219 164 Q221 163 219 162 L72 160 Z" /><glyph glyph-name="" unicode="&#x4e8e;" d="M65 180 Q50 180 37 178 L30 185 L189 188 L204 203 L221 186 Q223 184 221 184 L126 182 L143 177 Q144 176 144 174 L140 165 L140 104 L205 106 L221 123 L242 104 Q244 102 242 102 L140 99 L140 66 L141 21 Q141 -9 104 -27 Q102 -28 101 -27 Q100 -26 101 -25 Q102 -4 87 0 Q85 1 89 1 Q118 0 116 9 L115 98 L50 96 Q38 95 25 93 Q26 94 23 93 L15 101 L115 104 L115 134 Q115 166 115 182 L65 180 Z" /><glyph glyph-name="" unicode="&#x4e91;" d="M52 108 Q34 108 25 105 L17 114 L208 118 L223 134 L242 116 Q243 114 243 114 Q242 113 241 113 L121 110 L144 99 Q146 98 143 95 L136 90 Q107 51 71 14 L183 22 Q177 38 163 55 Q163 58 165 57 Q167 55 172 52 Q217 21 221 8 Q222 -6 202 -18 Q198 -22 195 -13 Q191 2 185 17 Q83 -3 54 -15 Q50 -18 49 -14 L38 9 Q38 12 40 12 L63 13 Q97 70 111 110 L52 108 ZM81 179 Q63 179 54 176 L46 184 L175 187 L190 202 L209 185 Q210 183 207 183 L81 179 Z" /><glyph glyph-name="" unicode="&#x4e92;" d="M177 145 L200 132 Q202 131 200 130 L192 121 L175 -10 L204 -10 L222 6 L242 -12 Q244 -14 242 -15 L53 -18 Q39 -19 26 -21 L19 -13 L149 -11 L156 41 L61 40 Q58 40 57 42 Q57 44 60 45 Q65 47 66 54 L82 151 L86 181 L63 181 Q52 181 40 179 Q37 178 35 178 L26 187 L189 188 L205 204 L225 187 Q226 185 226 185 Q225 184 224 184 L91 182 L110 172 Q112 170 111 169 Q110 168 110 168 L107 163 L101 130 L166 131 L177 145 ZM88 46 L157 47 L166 125 L100 124 L88 46 Z" /><glyph glyph-name="" unicode="&#x4e94;" d="M178 120 L200 107 Q200 107 201 106 Q202 106 201 105 L194 95 L187 -2 L210 -1 L226 12 L246 -3 Q247 -5 245 -6 L44 -10 Q30 -10 17 -12 L9 -4 L82 -3 L96 99 L79 99 Q56 99 45 96 L37 104 L97 105 L103 143 L107 180 L65 179 Q51 179 38 177 L29 185 L191 186 L205 200 L224 184 Q225 183 225 182 Q225 181 223 181 L114 180 L134 171 Q136 170 134 167 L129 162 L120 105 L168 106 L178 120 ZM169 100 L119 99 L102 -3 L163 -2 L169 100 Z" /><glyph glyph-name="" unicode="&#x4e95;" d="M87 210 Q86 213 88 212 L112 202 Q115 201 112 198 L109 191 L109 152 L150 153 L150 157 L148 212 L176 201 Q178 200 176 198 L174 192 L173 153 L193 154 L208 168 L225 151 Q227 149 225 149 L173 148 L172 87 L199 88 L216 105 L236 86 Q237 84 237 84 Q236 83 235 83 L172 81 L172 46 L173 1 Q166 -17 155 -26 Q152 -28 150 -28 Q148 -27 148 -24 L150 35 L150 81 L106 80 Q103 21 9 -31 Q7 -31 6 -29 Q5 -28 7 -27 Q78 16 85 80 L62 79 Q41 77 29 75 L21 84 L86 86 Q88 103 88 122 L88 146 L73 146 Q51 144 44 143 L35 151 L88 152 L88 175 Q88 182 87 197 Q87 206 87 210 ZM110 120 Q110 101 108 86 L150 87 L150 147 L109 146 L110 120 Z" /><glyph glyph-name="" unicode="&#x4e9a;" d="M41 -13 Q24 -14 12 -16 L4 -8 L94 -7 L95 142 L94 183 L67 183 Q49 183 38 180 L29 189 L197 191 L211 204 L228 188 Q230 186 228 185 L151 184 L171 176 Q174 176 172 173 L166 163 L165 37 Q190 106 199 150 L227 134 Q229 133 227 130 L220 126 Q194 73 165 26 L164 -6 L214 -5 L229 9 L251 -7 Q252 -9 250 -10 L41 -13 ZM115 163 L114 -6 L142 -6 L144 142 L143 184 L103 184 L120 177 Q123 176 120 173 L115 163 ZM40 141 Q80 89 87 55 Q86 40 67 34 Q59 32 59 39 Q59 91 38 140 Q37 142 40 141 Z" /><glyph glyph-name="" unicode="&#x4ea4;" d="M90 110 Q103 80 124 59 Q143 89 155 132 L176 120 Q179 119 176 113 Q157 70 137 46 Q175 16 233 -5 Q235 -6 235 -7 Q235 -8 233 -9 Q222 -8 197 -28 Q145 2 124 31 Q95 0 19 -33 Q16 -34 18 -31 Q86 6 114 45 Q100 70 88 109 L90 110 ZM65 167 Q48 167 37 165 L30 172 L119 173 L118 210 Q118 213 120 212 L147 205 Q150 204 148 201 Q145 198 145 190 L144 173 L201 174 L215 188 L233 172 Q234 170 232 170 L65 167 ZM91 162 L109 146 Q111 143 109 142 Q76 94 35 59 Q31 57 33 61 Q72 107 88 161 Q88 163 89 163 Q90 163 91 162 ZM156 155 Q197 141 213 127 Q220 118 209 101 Q201 91 194 103 Q179 141 154 154 Q152 156 156 155 Z" /><glyph glyph-name="" unicode="&#x4ea8;" d="M174 164 L195 151 Q195 151 195 149 L188 141 L188 115 L190 112 Q190 112 189 111 Q187 111 177 111 Q118 112 82 111 Q79 105 71 99 Q68 97 67 98 Q66 98 66 100 L66 136 Q66 141 65 153 Q65 159 65 161 Q65 164 67 162 L84 154 L165 155 L174 164 ZM119 72 L137 64 L165 87 L62 85 Q51 85 43 83 L36 90 L168 92 L180 101 L199 83 Q201 82 201 80 Q200 79 197 79 Q179 78 143 62 L144 62 Q146 61 145 59 Q142 56 141 51 L140 39 L141 7 Q141 -16 109 -31 Q107 -32 106 -32 Q105 -31 105 -29 Q107 -17 94 -8 Q93 -7 93 -6 Q93 -5 95 -5 Q121 -8 118 1 L119 46 L117 70 Q117 73 119 72 ZM84 118 L84 117 L166 118 L166 149 L84 148 L84 118 ZM54 173 Q35 173 26 170 L19 178 L115 179 L114 214 Q114 216 115 216 L142 208 Q145 207 143 204 Q140 201 140 193 L140 179 L201 179 L216 194 L232 177 Q234 175 231 175 L54 173 Z" /><glyph glyph-name="" unicode="&#x4eac;" d="M143 9 Q142 -17 111 -30 Q109 -31 108 -30 Q107 -29 108 -28 Q109 -15 101 -7 Q99 -4 102 -4 Q121 -8 119 0 L119 84 Q101 84 85 83 Q75 65 66 68 L67 104 L66 151 Q66 154 68 152 L87 141 L165 143 L174 155 L199 143 Q201 142 199 141 L194 133 L193 92 L195 86 Q196 83 193 83 Q185 84 143 84 L143 9 ZM87 136 L86 89 L165 91 L166 137 L87 136 ZM61 168 Q43 168 32 165 L25 173 L115 174 L116 214 L145 208 Q148 208 145 203 L142 197 L141 174 L204 175 L218 189 L234 173 Q235 172 235 172 Q235 171 233 170 L61 168 ZM82 67 L103 54 Q105 52 105 52 Q105 51 103 49 Q77 18 10 -33 Q8 -34 7 -33 Q7 -31 8 -30 Q56 11 82 67 ZM161 58 Q206 36 216 23 Q218 12 208 0 Q199 -7 195 4 Q184 33 159 56 Q158 58 161 58 Z" /><glyph glyph-name="" unicode="&#x4ead;" d="M171 165 L191 152 Q193 151 191 150 L185 142 L185 117 L186 114 Q187 114 186 113 Q184 113 174 113 Q118 114 84 113 Q80 105 71 99 Q66 97 66 100 L66 136 Q67 149 65 162 Q65 164 67 163 L85 154 L161 155 L171 165 ZM61 54 Q58 54 57 57 Q58 59 61 59 L170 62 L184 76 L202 60 Q204 59 201 57 L140 56 L140 34 L140 6 Q138 -18 109 -31 Q106 -32 106 -29 Q106 -13 97 -9 Q96 -8 96 -7 Q96 -6 98 -6 Q118 -7 116 0 L116 55 L61 54 ZM202 94 L215 106 L241 84 Q245 79 238 77 Q225 79 201 67 Q198 66 199 68 L204 89 L51 85 Q43 59 23 49 Q21 47 19 48 Q18 48 18 50 Q15 63 18 66 Q34 77 36 98 Q35 100 36 101 Q38 101 40 100 Q46 96 50 91 L202 94 ZM85 149 L85 119 L163 120 L163 150 L85 149 ZM65 173 Q46 173 37 170 L30 178 L115 179 L114 214 Q114 216 115 216 L142 208 Q145 207 143 204 Q140 201 140 193 L140 179 L192 180 L207 194 L223 177 Q226 175 223 175 L65 173 Z" /><glyph glyph-name="" unicode="&#x4eb3;" d="M164 99 L179 80 Q181 77 177 76 Q170 76 143 73 Q127 71 118 70 L133 63 Q135 62 133 60 Q130 56 129 47 L128 41 L191 44 L206 60 L225 43 Q227 40 224 40 L128 35 L127 12 Q124 0 138 0 Q156 0 183 0 Q204 0 211 1 Q223 4 225 26 Q225 28 227 27 Q228 27 228 25 Q226 5 238 1 Q250 -7 233 -16 Q193 -26 136 -20 Q106 -14 105 14 L106 34 L57 32 Q48 31 35 29 Q31 28 30 28 L20 36 L106 40 L106 68 Q85 65 61 62 Q59 62 59 63 Q58 64 60 65 Q144 88 164 99 ZM162 124 L85 122 Q82 117 76 111 Q73 109 72 110 Q70 110 70 113 L70 141 L69 163 Q69 164 71 164 L87 155 L164 156 L172 166 L196 154 Q198 153 196 150 L191 143 L191 132 L193 127 Q194 124 191 124 Q174 124 162 124 ZM207 108 L219 116 L244 91 Q246 89 245 87 Q244 86 241 86 Q225 86 202 73 Q199 72 200 74 L208 103 L55 98 Q49 72 26 58 Q23 56 21 59 Q16 72 22 76 Q38 91 40 111 Q40 114 41 114 Q42 114 45 113 Q49 112 55 104 L207 108 ZM62 173 Q41 171 35 170 L27 178 L116 179 L117 214 L145 208 Q149 206 146 203 L143 197 L142 179 L202 180 L217 194 L234 178 Q236 177 234 176 L62 173 ZM87 148 L87 127 L165 129 L166 150 L165 151 L88 150 L87 148 Z" /><glyph glyph-name="" unicode="&#x4ec0;" d="M186 198 L183 190 L182 126 L216 127 L229 142 L246 125 Q248 124 246 123 L182 121 L182 46 L184 2 Q180 -16 163 -29 Q159 -29 159 -23 L159 22 L160 120 L133 119 Q116 119 106 116 L97 124 L160 126 L160 166 L158 212 L184 201 Q186 201 186 198 ZM5 72 Q1 70 3 74 Q53 125 85 214 L110 202 Q112 201 110 199 Q111 199 110 198 L106 194 Q97 176 85 160 L88 0 Q87 -16 72 -30 Q70 -32 68 -32 Q67 -32 66 -29 L68 38 L68 136 Q38 99 5 72 Z" /><glyph glyph-name="" unicode="&#x4ec1;" d="M8 64 Q6 63 5 64 Q4 65 5 67 Q78 121 111 206 L132 193 Q134 192 131 188 Q115 163 91 134 L90 4 Q87 -10 74 -24 Q71 -26 70 -26 Q69 -26 69 -23 L71 44 L72 115 Q47 91 8 64 ZM128 25 Q114 24 101 22 L93 30 L215 31 L230 47 L249 29 Q250 27 248 26 L128 25 ZM148 142 Q132 142 121 139 L113 147 L201 149 L215 162 L231 147 Q232 145 230 144 L148 142 Z" /><glyph glyph-name="" unicode="&#x4ec6;" d="M172 5 Q170 -10 152 -26 Q147 -26 147 -22 L148 41 L148 168 L147 212 L176 202 Q178 201 176 199 Q173 196 171 189 L171 139 Q235 118 238 107 Q240 92 228 82 Q219 77 214 87 Q196 120 171 134 L172 52 L172 5 ZM7 72 Q6 71 4 72 Q3 73 4 74 Q55 125 88 214 L113 202 Q115 201 113 198 L109 194 Q99 177 89 162 L91 3 Q89 -14 75 -28 Q73 -30 71 -30 Q69 -30 69 -27 L70 40 L70 137 Q49 109 7 72 Z" /><glyph glyph-name="" unicode="&#x4ecb;" d="M116 214 L143 200 Q145 198 145 198 Q145 197 143 195 L141 193 Q170 143 254 108 Q255 104 253 104 Q237 103 220 86 Q163 125 138 191 L137 190 Q90 123 9 70 Q5 71 7 74 Q78 126 116 214 ZM148 123 L176 111 Q177 111 177 109 L173 104 L173 46 L173 0 Q170 -12 156 -25 Q149 -30 148 -24 L149 26 L149 88 L148 123 ZM85 121 Q84 124 87 123 L112 113 Q115 112 113 109 L110 102 L110 70 Q118 2 10 -30 Q8 -30 7 -28 Q6 -27 8 -26 Q92 1 86 72 L86 88 Q86 96 85 109 Q85 118 85 121 Z" /><glyph glyph-name="" unicode="&#x4ece;" d="M146 209 Q146 211 148 210 L174 197 Q177 196 175 193 L170 188 L170 131 Q179 56 251 -6 Q253 -7 252 -9 Q252 -10 250 -10 Q235 -7 215 -24 Q181 23 169 112 Q170 14 54 -33 Q52 -33 52 -32 Q52 -30 54 -29 Q150 11 148 126 L147 173 Q147 200 146 209 ZM71 208 Q71 211 73 210 L97 198 Q100 196 97 193 L93 187 L92 132 Q92 99 89 84 Q124 68 128 56 Q127 44 114 34 Q108 31 107 37 Q101 60 88 78 Q78 14 4 -28 Q2 -29 2 -27 Q2 -26 4 -25 Q75 15 71 135 L72 172 Q72 200 71 208 Z" /><glyph glyph-name="" unicode="&#x4ed1;" d="M81 123 L110 109 Q111 109 112 108 Q111 107 110 106 L106 101 L98 14 Q94 -1 115 0 Q158 0 178 3 Q193 3 200 35 Q203 38 204 34 Q200 8 209 4 Q219 0 218 -7 Q216 -15 204 -19 Q167 -28 113 -23 Q77 -19 78 19 L80 81 Q80 96 79 113 Q79 119 79 121 Q78 124 81 123 ZM113 214 L141 200 Q144 198 141 195 L139 193 Q165 143 252 106 Q253 103 251 103 Q236 102 218 84 Q161 125 136 191 L135 190 Q88 122 10 72 Q6 71 7 76 Q76 124 113 214 ZM164 108 L186 88 Q188 85 183 84 Q155 71 112 56 L111 59 Q143 78 164 108 Z" /><glyph glyph-name="" unicode="&#x4ed3;" d="M157 122 L181 108 Q184 107 181 104 L176 96 L175 63 Q175 43 148 31 Q145 30 145 33 Q145 43 138 48 Q137 49 137 50 Q137 51 138 51 Q153 50 151 58 L151 98 Q152 104 147 104 L97 102 L96 98 L95 16 Q93 1 112 0 Q123 0 151 0 Q176 1 186 2 Q200 4 206 27 Q208 30 210 27 Q208 13 216 8 Q234 -7 208 -20 Q200 -23 173 -24 Q141 -26 120 -24 Q78 -21 77 18 L76 93 L75 121 Q58 105 10 72 Q6 71 7 76 Q76 124 113 214 L141 200 Q144 198 141 195 L139 193 Q165 143 252 106 Q253 103 251 103 Q236 102 218 84 Q161 125 136 191 L135 190 Q102 147 76 122 Q77 122 77 122 L99 108 L149 110 L157 122 Z" /><glyph glyph-name="" unicode="&#x4ed4;" d="M132 87 Q115 86 106 83 L97 91 L163 95 Q163 105 162 123 Q162 135 162 139 Q162 142 164 141 L174 137 L205 182 L161 178 Q145 177 137 174 L129 181 L207 187 L219 197 L237 181 Q239 179 238 178 Q238 177 235 176 Q222 173 178 135 L184 133 Q187 133 186 130 Q186 120 186 96 L219 98 L233 114 L252 97 Q254 96 252 94 L186 91 Q187 50 185 13 Q183 -11 152 -26 Q149 -26 150 -22 Q150 -8 141 -4 Q138 -3 138 -2 Q139 0 142 0 Q165 -2 162 12 Q163 31 163 89 L132 87 ZM6 65 Q2 63 4 67 Q70 130 99 214 L121 202 Q123 200 120 197 Q106 166 82 138 L81 4 Q80 -7 68 -24 Q63 -29 61 -23 L64 44 L65 118 Q42 92 6 65 Z" /><glyph glyph-name="" unicode="&#x4ed9;" d="M127 0 Q125 -14 115 -23 Q111 -28 109 -23 L110 24 L110 112 L109 150 L133 142 Q135 141 133 139 L129 131 L127 6 L158 7 L157 160 Q157 192 157 209 L185 200 Q188 199 185 196 Q183 193 181 185 L178 7 L207 8 L208 108 L208 153 L235 142 Q236 142 236 140 L230 131 L229 42 L230 9 Q229 -7 214 -18 Q210 -19 209 -17 Q206 -1 201 3 L127 1 L127 0 ZM5 69 Q3 68 2 69 Q1 70 2 72 Q69 124 104 209 L124 197 Q126 196 123 191 Q105 161 81 134 L80 1 Q78 -12 68 -26 Q62 -31 61 -26 L63 41 L64 117 Q41 95 5 69 Z" /><glyph glyph-name="" unicode="&#x4ee1;" d="M178 115 L146 112 Q145 112 142 112 Q127 110 121 108 L113 115 L177 121 L189 134 L215 116 L204 106 L141 20 Q137 13 139 10 Q141 7 150 6 Q193 4 213 9 Q228 13 234 34 Q235 36 236 36 Q238 35 237 33 Q235 19 244 15 Q261 -2 238 -13 Q200 -23 153 -20 Q113 -11 128 26 L178 115 ZM4 72 Q2 71 1 72 Q1 74 2 75 Q50 131 76 214 L99 202 Q101 201 99 198 L95 194 Q85 175 74 158 L77 0 Q74 -13 62 -28 Q59 -30 57 -30 Q56 -30 56 -27 L57 40 L58 134 Q31 99 4 72 ZM137 214 L159 203 Q161 202 159 199 L156 194 Q154 191 149 183 Q143 174 140 169 L205 173 L218 188 L236 172 Q238 171 236 170 L136 164 Q113 130 88 103 Q86 102 86 105 Q121 156 137 214 Z" /><glyph glyph-name="" unicode="&#x4ee3;" d="M139 212 L166 200 Q168 199 168 199 Q168 198 166 197 L162 191 Q161 162 162 136 L211 143 L224 159 L243 144 Q244 142 244 142 Q243 141 242 141 L163 131 Q172 40 220 9 Q226 6 228 10 L239 22 Q240 24 242 24 Q243 23 242 21 Q235 2 241 -8 Q247 -22 240 -26 Q232 -30 217 -23 Q155 5 142 128 L128 126 Q115 125 102 121 L90 128 L142 134 Q141 148 141 163 Q139 187 139 212 ZM6 71 Q5 70 3 71 Q2 72 3 73 Q50 123 81 216 L105 204 Q107 201 105 200 L101 195 Q99 191 95 184 Q91 177 81 161 L84 4 Q83 -8 68 -24 Q62 -29 61 -23 L62 44 L63 135 Q33 97 6 71 ZM185 195 Q215 186 215 178 Q215 169 205 164 Q198 161 196 167 Q195 183 184 193 Q182 196 185 195 Z" /><glyph glyph-name="" unicode="&#x4ee4;" d="M113 214 L141 199 Q144 197 141 194 L139 192 Q165 139 254 100 Q255 97 253 97 Q237 94 220 76 Q160 122 136 189 L135 188 Q91 123 9 65 Q5 65 6 69 Q76 123 113 214 ZM81 36 Q103 29 125 19 Q147 50 162 79 L91 76 Q79 76 69 73 L58 81 L162 84 L173 97 L197 80 Q199 79 197 77 L188 70 Q165 45 130 16 Q141 11 156 1 Q157 0 158 0 Q161 -10 149 -26 Q143 -35 136 -24 Q118 10 80 33 Q79 34 79 36 Q80 37 81 36 ZM113 142 Q141 128 144 116 Q143 107 130 100 Q121 97 119 104 Q120 127 110 140 Q111 143 113 142 Z" /><glyph glyph-name="" unicode="&#x4eea;" d="M123 175 Q130 102 163 62 Q185 106 194 192 L223 180 Q225 179 223 177 L220 173 L213 141 Q199 83 175 48 Q204 18 250 -8 Q252 -9 251 -10 Q251 -12 249 -11 Q232 -10 213 -27 Q177 0 158 28 Q137 3 82 -30 Q79 -31 79 -29 Q79 -28 81 -26 Q129 5 151 40 Q124 86 120 175 L123 175 ZM5 69 Q3 68 2 69 Q2 71 3 72 Q72 129 104 210 L125 197 Q127 196 124 192 Q106 164 84 137 L83 4 Q80 -12 69 -24 Q62 -28 62 -23 L64 44 L65 118 Q41 94 5 69 ZM144 207 Q177 195 176 185 Q174 174 161 168 Q153 166 152 174 Q151 196 142 205 Q141 208 144 207 Z" /><glyph glyph-name="" unicode="&#x4eeb;" d="M197 51 Q195 53 196 54 Q196 55 198 55 Q242 16 245 3 Q245 -10 227 -21 Q218 -24 218 -15 Q216 0 213 12 Q136 -7 114 -20 Q110 -22 109 -19 L99 4 Q115 5 119 10 Q162 68 190 152 L218 133 Q220 131 217 128 L211 123 Q176 65 126 7 L211 17 Q205 37 197 51 ZM6 67 Q4 66 3 67 Q3 68 4 70 Q61 131 94 216 L117 204 Q120 201 117 200 L113 196 Q100 170 83 149 L82 0 Q81 -12 66 -28 Q62 -31 61 -31 Q60 -31 60 -28 L63 39 L65 127 Q43 100 6 67 ZM100 73 Q98 72 97 73 Q96 74 97 76 Q137 132 156 209 L182 197 Q184 196 182 193 L179 190 Q152 132 100 73 Z" /><glyph glyph-name="" unicode="&#x4eec;" d="M5 68 Q4 67 2 68 Q1 69 2 70 Q54 123 85 209 L108 198 Q110 197 108 194 L104 190 Q92 170 80 152 L83 0 Q82 -11 67 -29 Q64 -31 62 -31 Q61 -31 61 -28 L62 38 L63 128 Q44 103 5 68 ZM191 173 Q181 172 168 170 Q164 169 162 169 L154 177 L206 179 L218 191 L237 178 Q237 177 238 177 Q239 176 237 175 L228 164 L230 75 L232 20 Q233 -9 202 -28 Q200 -29 199 -29 Q198 -28 198 -25 Q199 -10 188 -5 Q186 -2 189 -1 Q209 -3 207 8 L206 173 L191 173 ZM128 136 L128 57 L130 17 Q127 2 113 -10 Q109 -13 108 -9 L109 60 L109 124 L108 156 L130 146 Q133 145 131 143 L128 136 ZM120 214 L138 206 Q153 199 152 194 Q151 185 141 178 Q137 175 135 180 Q129 199 120 211 Q118 213 120 214 Z" /><glyph glyph-name="" unicode="&#x4ef2;" d="M180 198 L178 188 L178 145 L205 145 L214 158 L237 146 Q240 145 238 142 L232 135 L233 81 L234 77 Q235 74 233 74 Q219 75 178 75 L178 45 L179 0 Q175 -19 159 -29 Q156 -29 155 -25 L156 23 L156 75 Q152 75 144 75 Q133 74 128 74 L128 69 Q127 59 112 45 Q108 44 106 47 L108 95 L108 128 L107 155 Q107 157 109 156 L127 144 L156 144 L156 170 L154 212 L179 201 Q180 200 180 198 ZM4 69 Q2 68 1 69 Q1 71 2 72 Q62 123 98 212 L120 198 Q122 197 119 193 Q103 166 84 144 L84 0 Q82 -14 68 -29 Q66 -31 64 -31 Q63 -30 62 -27 L65 39 L66 123 Q43 99 4 69 ZM127 138 L127 80 L156 81 L156 139 L127 138 ZM206 140 L178 139 L178 81 L206 81 L206 140 Z" /><glyph glyph-name="" unicode="&#x4efb;" d="M199 202 L215 182 Q216 180 215 180 Q215 179 213 179 Q193 175 155 172 L174 165 Q175 165 175 162 L174 150 L173 97 L213 97 L229 113 L247 96 Q250 93 246 92 L173 91 L172 -1 L207 -1 L220 10 L237 -2 Q238 -3 238 -4 Q238 -5 236 -5 L127 -8 Q111 -8 100 -11 L92 -3 L149 -2 L150 73 L150 91 L121 91 Q104 91 94 88 L87 96 L150 97 L150 138 Q150 144 149 153 Q149 167 148 171 Q124 168 95 165 Q93 165 93 166 Q93 167 94 168 Q167 185 199 202 ZM4 72 Q2 71 1 72 Q1 74 2 75 Q50 131 76 214 L99 202 Q101 201 99 198 L95 194 Q85 175 74 158 L77 0 Q74 -13 62 -28 Q59 -30 57 -30 Q56 -30 56 -27 L57 40 L58 134 Q31 99 4 72 Z" /><glyph glyph-name="" unicode="&#x4f0a;" d="M117 141 Q102 140 90 138 L83 146 L139 147 L140 187 L116 187 Q113 187 113 189 Q113 192 115 192 L196 194 L206 207 L226 194 Q228 193 226 191 L219 183 L219 149 L224 149 L236 162 L252 147 Q254 144 251 144 L219 143 L218 100 L221 95 Q222 93 220 92 Q211 93 187 93 L159 92 Q161 18 65 -32 Q63 -33 62 -31 Q62 -30 63 -28 Q140 14 138 92 L108 91 Q105 91 105 94 Q105 97 108 97 L138 98 Q139 102 139 105 L139 142 L117 141 ZM4 72 Q2 71 1 72 Q1 74 2 75 Q50 131 76 214 L99 202 Q101 201 99 198 L95 194 Q94 191 91 187 Q85 176 75 161 L78 14 Q77 1 62 -14 Q59 -16 58 -16 Q56 -15 56 -13 L58 54 L58 135 Q37 107 4 72 ZM159 98 L195 99 L196 143 L160 142 L159 107 Q159 103 159 98 ZM196 189 L160 188 L160 147 L196 148 L196 189 Z" /><glyph glyph-name="" unicode="&#x4f0d;" d="M133 175 Q116 174 107 171 L100 177 Q99 176 97 173 Q86 155 79 147 L78 0 Q78 -15 63 -30 Q61 -32 59 -32 Q57 -31 57 -28 L59 39 L60 125 Q38 100 4 73 Q2 72 1 73 Q1 74 2 76 Q61 130 90 214 L111 200 Q114 199 111 195 Q107 188 102 180 L200 181 L215 196 L233 179 Q235 178 233 176 L152 175 L172 166 Q174 164 171 162 L168 157 L160 103 L190 103 L200 117 L223 105 Q225 103 223 102 L216 92 L209 -3 L217 -3 L232 10 L252 -5 Q254 -8 251 -8 L118 -10 Q103 -11 90 -13 L83 -5 L124 -4 L138 96 Q116 95 105 92 L96 102 L138 102 L143 136 L147 175 L133 175 ZM192 98 L159 97 L144 -4 L186 -3 L192 98 Z" /><glyph glyph-name="" unicode="&#x4f11;" d="M151 215 L179 204 Q181 203 179 202 L173 194 L173 150 L207 151 L219 163 L236 149 Q237 147 234 146 L178 145 Q188 75 252 23 Q255 21 251 19 Q237 21 219 8 Q178 67 174 145 L173 145 L171 41 L172 -3 Q169 -18 154 -30 Q148 -35 147 -29 L149 43 L150 89 Q124 44 86 4 Q84 3 83 4 Q82 5 83 7 Q125 59 148 145 L130 145 Q116 144 101 142 L94 149 L150 150 L150 180 Q150 203 150 214 Q150 216 151 215 ZM7 78 Q5 77 4 78 Q4 80 5 81 Q57 133 89 214 L111 200 Q113 199 113 199 Q113 198 111 197 L108 193 Q95 174 74 147 L77 0 Q74 -13 62 -28 Q59 -30 57 -30 Q56 -30 56 -27 L57 40 L58 127 Q31 98 7 78 Z" /><glyph glyph-name="" unicode="&#x4f1a;" d="M70 64 Q67 64 62 63 Q49 63 44 61 L35 69 L189 71 L203 86 L222 70 Q223 68 223 68 Q222 67 221 67 L115 65 L135 55 Q137 53 134 51 L128 45 Q101 18 79 0 L178 8 Q172 19 159 36 Q159 38 161 38 Q163 37 167 34 Q206 8 209 -1 Q211 -12 195 -25 Q190 -27 188 -21 Q188 -19 187 -16 Q183 0 179 4 Q94 -13 64 -27 Q60 -30 59 -26 L49 -5 Q48 -3 48 -3 Q49 -2 50 -2 L72 0 Q97 37 107 65 L70 64 ZM119 213 L144 203 Q146 202 146 201 Q146 200 144 199 L141 196 Q175 141 253 108 Q255 106 252 104 Q240 105 223 87 Q164 131 138 192 L137 192 Q93 124 4 64 Q2 64 2 67 Q75 122 119 213 ZM113 106 Q99 106 86 104 L77 111 L152 113 L166 128 L184 111 Q186 109 183 109 L113 106 Z" /><glyph glyph-name="" unicode="&#x4f1f;" d="M136 157 Q118 157 105 155 L99 161 Q92 150 83 141 L82 2 Q80 -12 68 -26 Q62 -31 61 -25 L64 41 L65 121 Q41 97 5 71 Q3 70 2 71 Q2 73 3 74 Q67 123 100 211 L120 198 Q123 197 120 193 Q118 190 114 184 Q110 177 100 162 L147 163 L148 179 L147 212 L173 204 Q175 203 173 201 L170 194 L169 164 L204 164 L217 178 L235 163 Q236 161 233 160 L169 158 L169 129 L191 129 L203 141 L219 127 Q221 126 218 124 L169 123 L169 90 L208 91 L217 102 L236 90 Q239 89 237 87 L231 80 L231 57 L231 36 Q231 18 204 2 Q202 2 202 4 Q203 14 195 19 Q193 19 194 21 Q194 22 196 22 Q209 22 208 28 L209 86 L169 85 L169 46 L170 0 Q168 -13 153 -27 Q146 -32 145 -26 L146 23 L147 84 L125 83 Q111 83 101 81 L91 89 L147 90 L147 123 L144 123 Q141 123 135 122 Q121 122 115 120 L107 127 L147 128 L147 158 L136 157 Z" /><glyph glyph-name="" unicode="&#x4f26;" d="M4 72 Q2 71 1 72 Q0 73 1 75 Q67 128 95 212 L115 199 Q118 198 115 194 Q98 166 80 142 L79 1 Q75 -17 66 -27 Q63 -29 62 -29 Q60 -28 60 -26 L61 41 L62 122 Q40 99 4 72 ZM125 123 L151 109 Q153 109 151 106 L148 102 L140 18 Q137 1 154 3 Q178 3 196 7 Q210 7 215 33 Q216 34 216 34 Q217 34 218 32 Q216 10 222 9 Q230 4 229 -2 Q228 -9 218 -13 Q189 -22 153 -17 Q124 -13 123 25 L125 89 Q124 112 124 121 Q123 124 125 123 ZM84 87 Q82 86 81 87 Q81 88 82 90 Q127 134 143 209 L168 200 Q170 200 168 198 L166 196 Q177 146 252 101 Q254 100 253 99 Q253 98 251 98 Q238 100 221 85 Q176 120 164 195 L163 194 Q136 130 84 87 ZM190 102 L207 85 Q208 82 205 81 Q192 73 149 55 L148 58 Q175 78 190 102 Z" /><glyph glyph-name="" unicode="&#x4f2f;" d="M166 212 L187 199 Q189 198 186 196 L180 190 Q164 175 145 159 L196 161 L206 174 L229 161 Q231 159 229 156 L223 149 L222 66 L223 23 Q223 0 204 -16 Q200 -18 197 -14 Q196 5 191 14 L133 11 L133 2 Q130 -16 120 -26 Q114 -30 113 -25 L115 45 L115 122 L114 168 Q114 170 115 171 Q116 171 118 170 L134 159 L139 159 Q155 187 166 212 ZM134 154 L133 97 L188 99 Q190 99 190 96 Q190 94 187 94 L133 92 L133 16 L193 19 Q196 19 196 25 L198 156 L134 154 ZM7 78 Q5 77 4 78 Q4 80 5 81 Q57 133 89 214 L111 200 Q113 199 113 199 Q113 198 111 197 L108 193 Q106 190 101 183 Q84 159 75 148 L77 2 Q77 -9 62 -26 Q60 -28 58 -28 Q56 -28 56 -25 L58 41 L58 128 Q33 100 7 78 Z" /><glyph glyph-name="" unicode="&#x4f3d;" d="M222 168 L241 156 Q241 155 241 153 L235 146 L236 43 L238 40 Q238 38 237 38 Q219 38 193 37 L193 13 Q193 -2 180 -15 Q178 -17 176 -17 Q175 -16 175 -14 L176 41 L176 143 Q176 165 175 169 Q175 170 178 170 L193 157 L213 158 L222 168 ZM148 165 L167 152 Q169 151 167 150 L162 143 Q160 74 154 31 Q150 -2 119 -18 Q116 -18 116 -15 Q116 -1 110 1 Q108 4 111 4 Q132 1 133 32 Q141 81 141 148 L123 147 L123 123 Q126 31 55 -34 Q51 -33 52 -31 Q82 1 94 36 Q105 67 105 123 L105 146 Q97 144 91 144 L83 150 L105 152 L105 185 L105 210 Q104 213 106 213 L126 206 Q128 205 126 202 L125 196 L124 153 L140 154 L148 165 ZM5 80 Q1 78 3 82 Q51 135 76 214 L95 204 Q97 204 94 201 L91 197 Q84 178 72 158 L70 19 Q69 4 58 -8 Q52 -13 51 -7 L54 59 L55 134 Q32 103 5 80 ZM193 153 L193 42 L214 44 L213 154 L193 153 Z" /><glyph glyph-name="" unicode="&#x4f53;" d="M151 215 L176 204 Q177 204 177 202 L172 194 L171 155 L206 156 L219 168 L235 154 Q237 151 234 151 L180 150 Q193 81 253 28 Q254 27 254 26 Q254 25 252 25 Q236 25 221 14 Q185 56 176 150 L171 150 L169 42 L174 42 L184 53 L199 40 Q200 38 198 38 L169 37 L170 -3 Q168 -16 154 -30 Q148 -35 147 -29 L149 37 L141 36 Q140 36 135 36 Q126 35 123 35 L117 41 L149 42 L149 43 L149 104 Q124 62 80 12 Q75 9 78 14 Q113 65 144 150 L132 150 Q122 150 109 148 Q105 147 103 147 L95 154 L150 155 L150 180 Q150 203 149 214 Q149 216 151 215 ZM7 78 Q5 77 4 78 Q4 80 5 81 Q57 133 89 214 L111 200 Q113 199 113 199 Q113 198 111 197 L108 193 Q97 175 75 148 L77 0 Q74 -13 62 -28 Q59 -30 57 -30 Q56 -30 56 -27 L57 40 L58 127 Q31 98 7 78 Z" /><glyph glyph-name="" unicode="&#x4f59;" d="M106 117 Q93 117 80 115 L72 122 L150 125 L163 138 L179 122 Q181 120 178 120 L139 118 L139 79 L181 80 L195 94 L213 78 Q214 77 214 76 Q214 75 212 75 L139 73 L139 49 L140 17 Q141 -13 103 -27 Q100 -28 100 -25 Q101 -8 92 -2 Q91 -1 91 0 Q91 0 93 0 Q119 -2 116 10 L115 72 L79 71 Q65 70 52 68 L43 76 L115 78 L115 117 L106 117 ZM118 215 L143 204 Q146 203 143 200 L138 196 Q169 150 253 111 Q255 110 254 108 Q254 107 252 107 Q240 108 221 92 Q171 122 135 193 Q78 124 14 80 Q10 78 12 82 Q71 132 118 215 ZM82 66 L100 53 Q102 52 100 50 Q65 17 13 -18 Q11 -19 10 -19 Q9 -19 10 -17 Q54 22 79 65 Q80 68 82 66 ZM157 53 Q193 38 212 21 Q217 11 208 0 Q199 -8 194 2 Q181 30 156 51 Q155 54 157 53 Z" /><glyph glyph-name="" unicode="&#x4f5b;" d="M103 160 Q100 160 100 163 Q100 165 103 165 L132 166 L132 170 Q132 190 130 209 L153 200 Q157 199 154 196 L151 191 L151 166 L166 166 L166 177 Q166 197 164 212 L189 204 Q191 204 189 201 L186 196 L186 167 L201 167 L211 178 L231 164 Q233 163 233 163 Q233 162 231 161 L226 154 L226 131 L229 126 Q230 124 229 124 Q229 123 227 123 L202 123 L202 124 L186 123 L186 85 L205 85 L215 98 L239 83 Q241 82 241 82 Q241 81 239 80 L234 74 L233 40 Q233 19 207 8 Q203 7 202 11 Q203 23 195 25 Q193 28 196 28 Q208 27 208 33 L209 75 Q210 81 201 80 L186 80 L186 24 Q186 8 187 2 Q188 -3 185 -11 Q181 -19 172 -27 Q165 -32 164 -27 L166 31 L166 79 L151 79 Q155 17 70 -33 Q68 -34 67 -33 Q66 -32 67 -30 Q133 13 132 79 L119 78 Q116 72 105 64 Q98 61 98 65 L100 112 Q100 125 98 134 Q98 135 99 136 Q99 136 101 135 L120 127 L132 128 L132 161 L103 160 ZM5 76 Q3 75 2 76 Q1 77 2 79 Q54 128 87 212 L109 198 Q111 197 109 195 Q110 195 109 194 L105 190 Q102 186 96 178 Q90 169 77 151 L79 7 Q78 -5 65 -21 Q62 -23 61 -23 Q59 -22 59 -20 L60 47 L61 132 Q33 101 5 76 ZM151 104 Q151 93 151 84 L166 84 L166 123 L151 123 L151 104 ZM202 160 L201 162 L186 162 L186 129 L202 129 L202 160 ZM120 122 L119 83 L132 83 Q132 93 132 105 L132 122 L120 122 ZM151 161 L151 128 L166 128 L166 161 L151 161 Z" /><glyph glyph-name="" unicode="&#x4f5c;" d="M143 212 L164 198 Q166 197 164 195 Q165 195 164 194 L158 188 Q147 175 135 161 L205 164 L218 179 L237 163 Q239 162 237 161 L160 157 L160 112 L199 114 L212 127 L228 113 Q230 112 227 110 L160 107 L161 59 L206 61 L219 75 L235 60 Q237 59 234 57 L161 55 L161 1 Q158 -14 144 -27 Q138 -31 137 -26 L139 41 L141 156 L129 155 Q111 137 93 123 Q90 121 91 125 Q126 163 141 211 Q141 215 143 212 ZM7 78 Q5 77 4 78 Q4 80 5 81 Q57 133 89 214 L111 200 Q113 199 113 199 Q113 198 111 197 L108 193 Q97 175 75 148 L77 0 Q74 -13 62 -28 Q59 -30 57 -30 Q56 -30 56 -27 L57 40 L58 127 Q31 98 7 78 Z" /><glyph glyph-name="" unicode="&#x4f60;" d="M5 72 Q3 71 2 72 Q2 74 3 75 Q74 134 103 210 L123 197 Q126 196 123 192 Q100 155 82 137 L81 1 Q79 -12 67 -26 Q61 -31 60 -26 L62 41 L63 119 Q39 97 5 72 ZM182 13 Q183 -11 153 -27 Q151 -28 150 -26 Q150 -11 141 -7 Q139 -7 141 -4 Q161 -5 158 1 L159 111 L157 138 Q157 143 159 141 L184 134 Q187 133 185 130 L183 123 L182 46 L182 13 ZM211 168 L221 179 L247 157 Q250 154 246 152 Q229 152 206 138 Q203 137 204 140 L211 163 L144 162 Q126 136 95 107 Q94 106 93 107 Q91 108 92 109 Q130 154 145 210 L168 199 Q170 198 168 196 L165 192 Q163 189 159 183 Q152 172 148 167 L211 168 ZM126 102 L148 93 Q150 92 150 91 Q151 91 149 89 Q125 43 92 6 Q90 5 89 5 Q88 6 89 8 Q115 48 126 102 ZM193 93 Q236 65 242 49 Q243 38 231 29 Q227 25 224 26 Q221 28 220 34 Q213 62 191 91 Q190 94 193 93 Z" /><glyph glyph-name="" unicode="&#x4f64;" d="M148 179 L144 173 L140 140 L184 142 L192 151 L212 140 Q214 139 214 139 Q214 139 212 137 L207 131 L191 8 Q190 0 203 -1 Q213 -2 223 0 Q232 -1 236 14 Q236 16 238 15 Q239 15 239 13 Q239 2 246 0 Q258 -11 239 -22 Q221 -27 199 -24 Q174 -19 173 9 L184 136 L140 134 L126 11 L170 38 Q173 39 172 36 L121 -10 Q113 -18 105 -26 Q104 -27 100 -27 L85 -12 Q84 -12 86 -9 Q93 -7 106 0 Q110 1 112 2 L124 187 Q121 187 116 186 Q112 186 110 186 L102 193 L200 194 L213 207 L228 193 Q229 191 226 190 L139 188 Q133 188 129 188 L148 179 ZM4 72 Q2 71 1 72 Q1 74 2 75 Q50 131 76 214 L99 202 Q101 201 99 198 L95 194 Q85 176 74 159 L77 0 Q77 -11 62 -28 Q59 -30 57 -30 Q56 -30 56 -27 L57 40 L58 134 Q31 99 4 72 ZM140 102 Q145 100 153 96 Q170 90 171 86 Q173 76 164 69 Q160 67 157 73 Q147 93 139 101 Q138 103 140 102 Z" /><glyph glyph-name="" unicode="&#x4f6c;" d="M144 160 Q141 160 137 159 Q125 159 120 157 L112 165 L151 166 L150 210 L177 202 Q180 202 178 199 Q174 196 173 189 L172 166 L181 166 L191 177 L204 164 Q206 162 203 162 L172 161 L171 116 L172 116 Q199 150 219 183 L238 169 Q240 168 237 166 L232 162 Q213 137 193 116 L216 117 L227 131 L243 116 Q244 114 244 114 Q243 113 242 113 L188 111 Q184 108 177 101 Q172 96 156 82 L164 79 Q166 79 164 77 L162 71 L155 12 Q153 0 166 0 Q197 0 217 6 Q227 7 230 27 Q231 29 233 28 Q234 28 234 26 Q232 7 240 3 Q255 -10 234 -18 Q208 -25 165 -20 Q140 -14 140 16 L141 69 L141 70 Q115 51 84 32 Q82 31 82 33 Q81 34 83 35 Q115 58 140 82 L140 90 L145 87 Q149 91 157 99 Q164 107 167 110 L125 109 Q108 109 100 106 L91 114 L151 115 L151 160 L144 160 ZM5 68 Q3 67 2 68 Q1 69 2 71 Q68 121 98 206 L118 193 Q120 192 117 188 Q102 161 80 134 L80 3 Q78 -12 67 -25 Q61 -30 60 -24 L62 42 L63 115 Q41 93 5 68 ZM212 86 L226 70 Q228 69 228 68 Q228 67 226 67 Q197 56 170 49 Q167 49 169 52 Q195 67 212 86 Z" /><glyph glyph-name="" unicode="&#x4f73;" d="M5 73 Q3 72 2 73 Q1 74 2 76 Q70 130 101 211 L122 198 Q124 197 121 193 Q102 161 80 136 L80 0 Q78 -13 65 -27 Q62 -30 61 -30 Q59 -30 59 -27 L60 40 L61 118 Q45 102 5 73 ZM110 45 Q107 45 107 48 Q106 50 109 50 L152 51 L152 52 L151 97 L181 89 Q182 89 183 88 Q182 87 181 86 Q178 83 176 76 L176 52 L205 53 L216 66 L232 52 Q233 50 233 50 Q232 49 231 49 L176 47 L176 -10 L217 -9 L231 5 L249 -11 Q251 -13 248 -14 L118 -17 Q101 -18 89 -20 L82 -13 L152 -11 L152 47 L110 45 ZM113 156 Q111 155 110 158 Q110 161 112 161 L153 162 L153 167 L152 211 L181 204 Q184 204 181 200 Q178 199 176 190 L176 163 L199 164 L211 177 L228 162 Q230 159 227 159 L176 158 L176 108 L213 109 L226 122 L242 108 Q243 106 243 106 Q242 105 241 105 L100 102 Q97 102 96 104 Q96 106 99 107 L152 108 L153 157 L113 156 Z" /><glyph glyph-name="" unicode="&#x4f97;" d="M211 203 L231 189 Q233 189 232 186 L225 178 L225 40 L227 9 Q225 -14 199 -27 Q197 -28 197 -26 Q196 -9 188 -6 Q187 -5 187 -4 Q187 -3 188 -3 Q203 -3 202 0 L201 185 L120 183 L121 5 Q120 -12 106 -25 Q104 -27 102 -27 Q101 -26 101 -23 L103 45 L102 170 L101 196 Q101 198 103 197 L119 188 L201 190 L211 203 ZM4 77 Q2 76 1 77 Q1 78 2 80 Q39 121 75 214 L97 201 Q100 198 97 197 L93 193 Q80 169 66 150 L69 0 Q67 -14 54 -27 Q51 -30 50 -30 Q49 -30 49 -27 L50 40 L50 129 Q29 102 4 77 ZM175 125 L195 113 Q197 113 195 111 L189 103 L188 57 L190 55 Q191 54 190 53 Q185 54 170 53 Q158 52 149 52 Q149 43 139 31 Q136 29 135 30 Q134 30 134 32 L134 66 L134 95 Q134 117 133 121 Q133 123 136 122 L150 113 L167 114 L175 125 ZM149 109 L149 57 L168 58 L168 110 L149 109 ZM132 146 Q129 146 129 148 Q129 151 131 151 L168 153 L180 165 L195 152 Q196 149 194 149 L132 146 Z" /><glyph glyph-name="" unicode="&#x4f9d;" d="M121 161 Q116 161 107 160 Q96 160 93 159 L84 166 L145 167 L146 208 L172 200 Q174 200 174 199 Q175 198 173 196 L170 189 L169 167 L209 168 L224 183 L240 167 Q242 165 240 164 L152 162 L171 153 Q175 151 171 148 L168 145 Q172 58 252 2 Q254 1 254 0 Q254 0 252 0 Q233 1 218 -14 Q166 39 165 143 L164 142 Q154 125 140 107 L137 10 L172 31 Q175 32 174 29 L139 -5 Q133 -10 123 -21 Q131 -13 122 -23 Q119 -24 118 -24 L101 -10 Q100 -9 101 -7 Q103 -6 107 -4 Q115 -1 120 0 L119 83 Q111 74 94 57 Q83 46 78 40 Q74 41 75 43 Q119 97 144 161 L121 161 ZM4 68 Q3 67 2 67 Q1 68 1 70 Q54 134 79 213 L99 201 Q101 200 98 198 L95 195 Q86 173 71 151 L70 1 Q68 -13 57 -26 Q51 -31 50 -26 L52 41 L54 126 Q30 93 4 68 ZM223 126 L239 110 Q240 108 238 107 L233 105 Q208 95 189 87 L188 89 Q210 107 223 126 Z" /><glyph glyph-name="" unicode="&#x4fac;" d="M175 33 Q178 34 177 31 L142 -1 Q137 -6 129 -13 Q124 -18 121 -21 Q121 -23 119 -21 L103 -7 Q102 -5 103 -5 Q110 -2 124 4 L124 94 Q105 73 73 49 L73 3 Q71 -12 60 -25 Q54 -30 53 -24 L55 42 L56 118 Q40 101 4 74 Q2 73 1 74 Q1 76 2 77 Q59 124 88 209 L109 196 Q111 195 108 191 Q90 158 73 137 L73 54 Q125 100 150 167 L122 166 Q119 143 105 134 Q101 131 93 146 Q93 149 96 151 Q114 160 119 181 Q119 183 121 183 Q122 183 123 181 Q123 175 122 171 L152 172 Q159 191 165 215 L186 204 Q187 202 184 199 Q181 192 176 180 Q175 175 174 173 L209 174 L221 185 L244 165 Q247 161 242 160 Q225 159 208 147 Q206 146 205 147 Q204 148 205 149 L211 170 L172 168 Q169 165 168 162 Q171 63 247 -6 Q249 -8 247 -9 Q234 -7 215 -22 Q168 39 165 154 Q155 134 144 119 L142 14 L175 33 ZM226 127 L244 109 Q245 108 245 106 Q244 105 242 105 Q239 104 234 102 Q215 93 192 86 L191 88 Q215 105 226 127 Z" /><glyph glyph-name="" unicode="&#x4faf;" d="M116 141 L134 129 Q134 128 133 126 Q130 121 125 115 L186 117 L197 130 L213 115 Q214 114 214 114 Q214 113 212 112 L168 111 Q167 88 165 70 L209 71 L222 84 L239 69 Q241 66 238 66 L172 65 Q178 16 252 2 Q254 1 254 0 Q254 0 252 -1 Q233 -2 221 -20 Q173 -1 168 65 L164 65 Q157 0 64 -29 Q62 -30 61 -29 Q61 -27 63 -26 Q137 2 141 64 L110 63 Q92 63 82 60 L74 68 L142 70 Q145 87 144 110 L120 110 Q105 92 86 75 Q84 74 84 77 Q108 107 114 140 Q114 142 116 141 ZM6 79 Q5 78 3 78 Q2 79 3 81 Q51 135 78 215 L99 204 Q101 203 98 201 L95 197 Q84 175 70 155 L69 7 Q67 -7 55 -20 Q52 -22 51 -21 Q49 -21 49 -18 L51 46 L53 131 Q30 102 6 79 ZM170 191 L108 188 Q106 188 105 191 Q105 193 108 194 L170 196 L179 207 L200 194 Q202 193 200 191 L193 183 L188 151 L208 152 L220 164 L236 149 Q237 147 235 147 L121 145 Q105 146 94 143 L87 150 L165 151 L170 191 Z" /><glyph glyph-name="" unicode="&#x4fdd;" d="M127 93 Q105 92 97 89 L89 97 L154 98 L154 109 L153 131 Q153 134 155 133 L176 123 Q179 123 178 119 L176 110 L176 99 L214 100 L227 114 L244 99 Q245 96 243 96 L180 94 Q194 44 252 20 Q254 19 254 18 Q254 17 252 16 Q242 18 222 2 Q186 32 178 94 L176 94 L176 37 L177 2 Q176 -12 159 -26 Q156 -28 154 -27 Q152 -26 153 -23 L154 33 L154 65 Q125 26 81 -5 Q79 -6 78 -5 Q78 -3 79 -2 Q120 35 148 93 L127 93 ZM201 202 L220 190 Q222 189 220 187 L214 180 L213 141 L215 138 Q215 136 214 136 Q211 136 203 136 Q162 137 131 135 Q129 126 120 120 Q117 118 116 119 Q115 119 115 121 L115 155 L115 174 Q115 195 114 199 Q114 201 117 199 L135 191 L191 192 L201 202 ZM4 67 Q3 66 2 67 Q1 69 2 70 Q55 127 87 215 L109 202 Q111 201 109 198 L105 194 Q90 167 73 144 L76 0 Q74 -11 61 -26 Q59 -28 57 -28 Q56 -28 55 -25 L57 42 L57 123 Q33 92 4 67 ZM133 186 L132 141 L191 142 L192 187 L133 186 Z" /><glyph glyph-name="" unicode="&#x4fe1;" d="M210 73 L233 58 Q235 58 233 56 L227 47 L227 1 L229 0 Q229 -3 228 -3 Q191 -1 140 -2 L140 -3 Q138 -17 124 -27 Q122 -28 120 -28 Q119 -27 119 -25 L120 8 L120 42 Q120 64 119 68 Q119 70 121 69 L141 58 L200 59 L210 73 ZM4 67 Q3 66 2 67 Q1 69 2 70 Q55 127 87 215 L109 202 Q111 201 109 198 L105 194 Q93 172 80 153 L82 0 Q80 -14 66 -27 Q62 -31 60 -26 L62 40 L62 129 Q35 95 4 67 ZM140 52 L140 1 L201 3 L201 54 L140 52 ZM136 165 Q121 165 106 163 L98 170 L161 171 L161 186 L160 211 L188 204 Q191 203 189 200 L186 195 L184 171 L219 172 L232 187 L250 171 Q251 169 249 168 L136 165 ZM121 90 Q118 90 117 92 Q117 94 120 95 L204 97 L216 110 L231 95 Q234 93 230 93 L121 90 ZM120 130 Q117 130 117 132 Q117 134 120 134 L202 136 L214 149 L229 134 Q231 133 228 132 L120 130 Z" /><glyph glyph-name="" unicode="&#x4fe9;" d="M103 173 Q100 172 99 175 Q100 178 103 178 L214 182 L227 196 L244 180 Q246 178 244 177 L181 175 L195 168 Q199 167 196 164 L194 159 L192 140 Q192 138 191 136 Q191 134 191 133 L208 134 L217 145 L239 132 Q241 131 239 129 L233 121 L234 36 L235 12 Q233 -12 208 -26 Q206 -27 206 -25 Q206 -10 197 -6 Q195 -3 198 -3 Q212 -3 211 1 L209 128 L191 127 Q188 104 184 86 Q185 86 187 85 Q200 79 206 73 Q212 61 202 54 Q195 50 192 57 Q188 76 182 81 Q176 59 146 20 Q144 18 143 19 Q143 20 144 23 Q174 61 175 126 L152 125 Q150 110 147 98 Q148 98 150 97 Q157 94 166 87 Q171 83 167 76 Q165 72 162 71 Q156 67 154 73 Q151 89 146 94 Q141 70 122 37 Q119 36 119 37 L119 12 Q117 -7 105 -23 Q103 -25 101 -25 Q100 -24 100 -21 L101 26 L101 111 L100 139 Q100 142 102 140 L119 130 L137 131 Q137 149 137 174 L103 173 ZM5 76 Q4 74 3 76 Q2 77 3 79 Q53 127 86 212 L108 198 Q110 197 108 194 L104 190 Q102 188 99 183 Q89 169 76 152 L79 0 Q76 -15 65 -27 Q62 -30 61 -30 Q60 -30 59 -27 L61 40 L61 132 Q36 103 5 76 ZM119 39 Q138 73 137 125 L118 124 L119 38 Q119 39 119 39 ZM155 168 Q155 161 154 150 Q154 137 153 131 L175 132 L175 139 L175 175 L142 174 L155 168 Z" /><glyph glyph-name="" unicode="&#x4fee;" d="M4 67 Q3 66 2 67 Q1 69 2 70 Q55 127 87 215 L109 202 Q111 201 109 198 L105 194 Q92 169 77 148 L75 4 Q73 -11 63 -23 Q57 -28 56 -23 L58 44 L60 126 Q34 94 4 67 ZM251 97 Q254 95 251 93 Q240 92 228 76 Q188 103 175 122 Q145 92 117 70 Q114 69 115 72 Q145 100 168 132 Q158 151 153 165 L155 167 Q164 151 174 140 Q188 160 198 179 L158 177 Q139 150 122 131 Q119 127 120 132 Q142 168 152 212 L171 204 Q176 203 172 197 Q166 190 162 182 L199 184 L208 193 L225 177 Q227 175 225 173 L216 167 Q196 143 184 131 Q205 114 251 97 ZM100 161 L113 154 Q116 153 114 148 L113 55 Q112 41 102 30 Q100 28 98 29 Q97 29 97 31 L98 159 Q98 162 100 161 ZM86 -33 Q84 -34 83 -33 Q83 -31 85 -30 Q164 0 212 49 L230 33 Q232 32 229 30 L225 28 Q170 -5 86 -33 ZM193 72 L207 60 Q209 59 207 57 Q177 35 114 9 Q112 9 113 11 Q159 37 191 71 Q192 72 193 72 ZM179 101 L196 89 Q198 87 196 87 Q160 61 116 41 Q114 41 115 43 Q153 68 179 101 Z" /><glyph glyph-name="" unicode="&#x5043;" d="M119 191 L210 193 L224 206 L240 191 Q241 189 241 189 Q240 188 239 188 L119 186 L119 1 Q119 1 120 2 Q156 21 173 44 Q157 52 140 57 Q144 68 150 78 Q142 78 132 76 Q132 76 130 76 L122 83 L152 83 Q154 88 158 99 Q161 109 163 114 L151 114 Q149 108 143 101 Q139 97 138 101 L139 131 L139 172 Q139 173 140 174 Q140 174 142 173 L152 166 L202 168 L210 179 L228 167 Q230 167 228 165 L222 158 L222 146 L223 128 Q223 114 207 101 Q204 99 203 102 Q201 110 198 115 L166 114 L182 107 Q184 106 182 104 L178 100 L165 84 L216 85 L226 97 L241 83 Q241 81 240 81 L214 80 Q213 78 211 75 Q200 56 193 47 Q208 43 218 36 Q225 28 218 13 Q214 8 210 14 Q201 25 183 38 Q162 18 121 0 Q120 0 119 0 L119 -4 L217 -2 L232 11 L249 -4 Q251 -6 249 -6 L117 -8 Q112 -20 103 -29 Q99 -32 98 -27 L99 30 L100 156 L98 205 L119 191 ZM4 78 Q0 75 2 80 Q39 123 73 214 L95 200 Q97 199 95 197 L91 193 Q83 177 67 154 L70 -1 Q68 -17 55 -30 Q53 -32 51 -32 Q49 -32 49 -29 L50 37 L50 130 Q29 103 4 78 ZM152 162 L152 143 L197 145 Q200 143 197 140 L152 138 L152 119 L202 120 Q202 120 202 122 L203 164 L152 162 ZM146 59 Q163 56 178 51 Q187 64 194 80 L162 79 L146 59 Z" /><glyph glyph-name="" unicode="&#x504f;" d="M102 190 L103 191 L123 179 L151 179 L151 212 L177 207 Q180 205 177 202 L175 194 L174 179 L197 180 L207 191 L229 178 Q231 177 231 177 Q231 177 229 175 L223 166 L223 135 L225 131 Q226 129 223 129 Q193 131 123 129 L123 128 Q123 114 122 102 L136 94 L205 95 L212 106 L234 96 Q236 94 234 93 L229 85 L228 5 Q229 -14 202 -23 Q199 -24 199 -22 Q201 -11 192 -6 Q190 -5 193 -4 Q208 -5 206 0 L205 50 L188 50 L188 15 Q187 6 177 0 Q175 -1 174 1 L175 31 L175 50 L163 49 L163 40 L164 17 Q162 4 152 -1 Q151 -3 149 0 L150 49 L135 49 L135 2 Q132 -13 122 -21 Q118 -24 116 -20 L118 19 L119 77 Q111 29 51 -29 Q47 -30 48 -26 Q80 12 91 45 Q103 78 103 128 L102 165 L102 190 ZM6 71 Q4 70 3 71 Q2 72 3 74 Q42 123 70 215 L93 204 Q95 203 93 200 L89 195 Q79 175 68 157 L71 24 Q69 8 56 -3 Q55 -5 53 -5 Q51 -5 51 -3 L52 64 L52 132 Q30 99 6 71 ZM197 174 L123 173 L123 135 L197 136 L197 174 ZM205 90 L189 90 L188 56 L205 56 L205 90 ZM135 89 L135 54 L150 55 L150 89 L135 89 ZM164 90 L163 55 L175 55 L175 90 L164 90 Z" /><glyph glyph-name="" unicode="&#x5065;" d="M113 194 L131 182 Q133 180 131 180 L123 171 L104 119 L116 120 L124 130 L142 119 Q144 119 143 116 L136 106 Q130 66 113 36 Q138 10 244 2 Q246 2 246 1 Q247 0 245 0 Q228 -3 214 -25 Q134 -13 106 25 Q88 0 57 -26 Q55 -26 55 -25 Q54 -25 55 -23 Q85 5 97 38 Q87 58 82 86 L86 87 Q91 64 101 49 Q109 71 116 114 L102 113 Q96 105 85 102 Q81 101 82 106 L105 179 L82 178 Q79 180 82 184 L105 184 L113 194 ZM169 209 L190 202 Q191 202 191 199 L188 193 L188 180 L205 180 L212 190 L229 180 Q231 180 229 177 L224 170 L224 151 L228 152 L237 162 L250 150 Q251 148 251 148 Q250 147 249 147 L224 146 L224 120 L227 116 Q228 114 225 113 Q213 114 198 114 L187 114 L187 93 L207 94 L216 104 L229 92 Q231 90 228 90 L187 88 L187 78 L187 64 L215 65 L226 76 L239 63 Q241 61 238 61 L188 59 L188 41 Q185 28 174 16 Q171 14 169 15 Q167 15 168 18 L168 59 L136 58 Q132 60 135 63 L168 64 L169 79 L169 88 L144 87 Q140 89 143 92 L169 93 L169 113 L149 113 Q146 113 146 116 Q146 118 149 119 L169 119 L169 145 L136 144 Q132 147 136 150 L169 150 L169 165 L169 174 L147 174 Q144 174 143 176 Q143 179 146 179 L169 180 L169 209 ZM4 74 Q1 73 2 76 Q40 126 70 214 L90 204 Q92 204 89 201 L87 197 Q78 179 67 160 L66 16 Q65 2 54 -11 Q48 -16 47 -11 L49 56 L50 133 Q29 101 4 74 ZM187 119 L205 120 L205 145 L187 145 L187 119 ZM205 175 L188 175 L187 151 L205 151 L205 175 Z" /><glyph glyph-name="" unicode="&#x5088;" d="M126 189 Q109 189 100 186 L91 194 L210 195 L224 207 L239 192 Q241 191 238 189 L187 189 L186 164 L202 165 L211 175 L232 163 Q234 162 232 159 L226 152 L226 118 L230 113 Q231 110 228 110 Q219 111 200 111 L121 110 Q118 104 111 98 Q105 94 105 98 L105 123 L105 147 Q105 153 104 162 Q104 166 104 168 Q104 171 105 170 L120 163 L138 163 L138 189 L126 189 ZM124 71 Q102 70 94 67 L87 75 L154 76 L153 105 Q153 108 153 108 Q154 109 155 108 L173 103 Q177 102 176 98 L175 77 L221 77 L234 90 L250 76 Q251 73 249 73 L182 71 Q189 34 248 9 Q250 8 249 6 Q249 5 247 5 Q236 6 220 -6 Q188 15 178 71 L175 71 L174 4 Q172 -17 151 -27 Q149 -28 149 -26 Q148 -13 142 -8 Q141 -8 141 -7 Q141 -5 142 -5 Q156 -7 155 0 L154 47 Q118 9 67 -17 Q65 -18 64 -17 Q64 -15 65 -14 Q107 7 147 71 L124 71 ZM6 78 Q2 76 4 80 Q50 146 73 216 L94 206 Q96 206 93 203 L91 199 Q90 197 87 192 Q81 179 68 159 L68 8 Q68 -2 55 -19 Q53 -21 51 -21 Q48 -20 49 -18 L51 49 L51 133 Q30 104 6 78 ZM121 157 L121 115 L138 115 L138 158 L121 157 ZM202 159 L186 159 L184 116 L201 117 L202 159 ZM154 158 L153 116 L168 116 L168 158 L154 158 ZM154 189 L154 164 L168 164 L168 189 L154 189 Z" /><glyph glyph-name="" unicode="&#x50a3;" d="M150 214 L175 205 Q177 205 175 201 L172 196 Q169 187 165 178 L204 179 L215 190 L229 177 Q231 175 228 175 L163 173 Q161 168 157 158 Q154 151 153 148 L190 149 L202 161 L216 147 Q218 145 215 145 L150 144 Q144 131 136 119 L213 120 L227 134 L244 118 Q245 116 242 116 L183 115 Q191 90 253 68 Q255 67 255 66 Q255 65 253 64 Q239 65 225 47 Q188 80 179 115 L133 114 Q112 83 76 47 Q74 46 73 47 Q72 47 73 50 Q95 74 117 113 L111 113 Q99 113 86 111 Q87 111 85 111 L76 119 L119 119 Q125 131 130 143 Q120 143 109 142 Q106 141 105 141 L97 148 L132 148 Q137 161 140 173 L122 172 Q103 172 96 170 L88 177 L142 178 Q147 196 150 214 ZM6 67 Q4 66 3 67 Q3 68 4 70 Q50 138 76 215 L96 204 Q98 204 95 201 L92 197 Q84 177 72 157 L70 0 Q67 -16 57 -27 Q52 -32 50 -27 L52 40 L54 130 Q31 95 6 67 ZM163 5 Q162 -14 135 -26 Q132 -27 133 -24 Q133 -12 126 -8 Q124 -6 126 -5 Q140 -6 141 -1 L141 38 Q107 10 97 0 Q92 -4 86 -3 Q80 0 84 5 Q92 14 89 21 Q96 14 141 42 L141 69 L140 98 L167 88 Q168 87 167 86 L164 81 L163 44 Q217 24 221 16 Q224 7 213 -2 Q210 -6 206 0 Q191 21 163 41 L163 5 ZM193 75 L204 61 Q205 58 203 58 Q191 52 169 47 L168 48 Q187 64 193 75 ZM104 72 Q124 67 128 59 Q129 52 120 46 Q113 44 113 48 Q111 63 103 70 Q101 72 104 72 Z" /><glyph glyph-name="" unicode="&#x50f3;" d="M125 188 Q112 187 99 185 L91 192 L210 193 L223 205 L239 190 Q241 188 238 188 L186 188 L186 163 L202 163 L211 173 L232 161 Q234 160 232 157 L226 151 L226 121 L228 116 Q229 113 227 113 Q207 115 121 113 Q118 107 111 101 Q105 97 105 101 L105 126 L105 145 Q105 151 104 160 Q104 165 104 167 Q104 169 105 168 L120 161 L138 162 L138 188 L125 188 ZM123 63 Q103 63 93 60 L86 68 L122 68 Q121 86 119 93 Q119 96 121 95 L136 89 Q137 88 137 85 L137 69 L154 69 L154 74 L153 105 Q153 108 153 108 Q154 109 155 108 L173 103 Q177 102 176 98 L175 69 L187 70 Q200 93 199 104 Q200 106 202 105 L217 92 Q218 91 217 89 Q216 89 216 88 L203 70 L220 70 L233 83 L249 68 Q250 66 248 66 L175 64 L174 5 Q172 -16 151 -26 Q149 -27 149 -25 Q148 -12 142 -7 Q141 -7 141 -6 Q141 -4 142 -4 Q156 -6 155 1 L154 44 Q122 8 67 -21 Q65 -21 64 -20 Q64 -19 65 -18 Q109 8 145 64 L123 63 ZM5 78 Q3 77 2 78 Q1 79 2 80 Q49 136 73 213 L94 204 Q96 203 93 201 L91 197 Q81 176 68 156 L68 5 Q68 -5 55 -22 Q53 -24 51 -24 Q48 -23 49 -21 L51 46 L51 131 Q28 101 5 78 ZM183 60 L185 61 Q192 30 250 7 Q252 6 252 5 Q252 3 250 3 Q238 4 223 -8 Q189 14 183 60 ZM121 156 L121 119 L138 119 L138 156 L121 156 ZM202 158 L186 157 L185 120 L201 121 L202 158 ZM153 156 L153 120 L168 120 L168 157 L153 156 ZM154 188 L154 162 L168 162 L168 188 L154 188 Z" /><glyph glyph-name="" unicode="&#x510b;" d="M144 216 L165 207 Q167 206 167 206 Q167 205 165 204 L160 199 Q159 198 157 196 Q155 193 146 186 L180 187 L191 196 L209 184 Q211 182 209 182 L198 176 L169 155 L218 156 L230 169 L247 155 Q249 153 246 153 L155 151 L171 143 Q173 142 171 141 L168 138 Q166 136 161 132 Q141 116 126 106 L126 105 Q126 103 126 100 L169 101 L168 126 L193 119 Q196 118 194 115 Q191 114 190 106 L189 101 L216 102 L227 113 L242 101 Q244 100 242 98 L162 96 Q158 96 152 95 Q136 95 131 93 L126 98 Q129 19 58 -32 Q55 -33 54 -32 Q53 -30 55 -29 Q88 2 97 26 Q107 52 107 106 L107 135 L106 155 Q98 149 90 144 Q86 142 89 146 Q125 179 144 216 ZM5 78 Q0 76 3 80 Q40 123 77 214 L99 200 Q101 199 98 197 L95 193 Q80 169 67 150 L70 10 Q68 -3 55 -17 Q52 -20 51 -20 Q50 -20 50 -17 L51 50 L51 129 Q30 102 5 78 ZM215 48 L236 38 Q238 37 236 35 L231 28 L232 2 L233 0 Q234 -1 232 -1 Q222 0 181 -1 Q165 -2 156 -2 L156 -3 Q154 -11 142 -24 Q135 -27 136 -23 L136 3 L136 18 Q136 34 136 44 Q136 45 138 45 L156 36 L207 37 L215 48 ZM156 31 L156 1 L208 2 L207 33 L156 31 ZM113 159 L129 155 L163 155 L180 182 L141 181 Q138 179 133 175 Q127 171 113 159 ZM126 109 Q141 125 153 149 Q154 150 154 151 L126 151 L126 109 ZM191 148 Q219 142 221 132 Q222 123 214 120 Q207 117 205 122 Q201 140 190 146 Q189 147 191 148 ZM144 75 Q142 74 141 77 Q141 80 143 80 L217 82 Q220 82 221 80 Q221 79 219 78 L144 75 ZM144 55 Q142 54 141 57 Q141 59 143 59 L217 62 Q219 62 220 60 Q220 59 218 58 L144 55 Z" /><glyph glyph-name="" unicode="&#x513f;" d="M149 205 L177 192 Q179 191 179 191 Q179 190 177 189 L173 183 L164 31 Q162 16 178 16 Q187 15 206 18 Q209 19 210 19 Q224 22 229 44 Q229 46 231 45 Q233 44 233 42 Q231 28 239 22 Q249 14 247 5 Q245 -2 232 -6 Q211 -15 177 -11 Q144 -4 145 37 L148 164 Q149 187 147 202 Q147 206 149 205 ZM97 199 Q97 202 99 201 L125 190 Q126 189 126 188 Q125 188 125 187 L122 181 L122 139 Q127 26 5 -30 Q1 -28 5 -25 Q104 23 100 143 L100 167 Q99 191 97 199 Z" /><glyph glyph-name="" unicode="&#x5143;" d="M165 111 Q167 110 165 109 L161 102 L151 24 Q147 4 168 4 Q194 4 214 7 Q228 8 235 32 Q236 34 238 34 Q239 34 239 32 Q237 11 242 9 Q257 -3 238 -13 Q208 -24 167 -19 Q129 -15 134 28 L138 104 L139 120 L104 119 L114 115 Q117 114 115 112 L113 105 Q116 8 5 -33 Q3 -34 2 -32 Q1 -30 3 -29 Q58 -3 75 26 Q93 54 92 119 L56 118 Q39 117 30 115 L21 123 L202 127 L217 142 L236 125 Q238 124 235 122 L146 120 L165 111 ZM87 189 Q67 187 60 186 L52 194 L164 197 L178 211 L197 195 Q198 193 195 192 L87 189 Z" /><glyph glyph-name="" unicode="&#x5145;" d="M58 175 Q55 175 48 174 Q34 174 29 172 L22 179 L114 181 Q114 182 114 182 L115 182 L116 214 L144 208 Q147 208 145 204 L142 197 L141 181 L204 183 L217 195 L233 180 Q235 178 232 178 L122 176 L136 166 Q140 164 136 161 L128 157 Q120 149 96 130 Q83 119 78 114 L180 120 Q172 135 157 146 Q156 149 159 148 Q208 128 210 116 Q211 103 202 94 Q192 86 189 97 Q188 102 184 111 Q183 114 182 115 Q161 112 145 108 L169 97 Q171 96 169 94 L165 88 L159 21 Q156 8 172 8 Q188 7 209 11 Q221 13 228 37 Q229 39 231 38 Q232 38 232 36 Q230 22 238 17 Q256 0 231 -11 Q205 -21 172 -16 Q137 -15 141 32 L142 73 Q142 99 141 108 Q116 102 100 99 L121 90 Q123 89 123 88 Q123 87 121 86 L119 80 L116 60 Q118 -5 6 -34 Q4 -35 3 -33 Q3 -32 5 -31 Q96 -6 95 61 L97 75 Q97 88 95 98 Q66 90 59 88 Q55 85 53 89 L44 113 L68 114 Q97 149 111 176 L58 175 Z" /><glyph glyph-name="" unicode="&#x5149;" d="M49 105 Q34 104 23 102 L15 110 L118 113 L118 168 L116 212 L144 205 Q147 205 144 201 Q141 200 140 191 L139 113 L148 114 Q173 157 183 190 L208 174 Q210 173 208 170 L202 165 Q180 137 153 114 L204 115 L220 132 L242 113 Q244 111 241 111 L146 108 L166 98 Q168 96 166 95 L162 89 L154 25 Q150 10 168 10 Q189 8 205 13 Q218 14 225 38 Q225 40 227 39 Q229 39 228 37 Q226 21 234 16 Q254 -2 228 -12 Q202 -22 168 -17 Q133 -16 137 31 L138 75 Q140 95 138 108 L110 107 L122 102 Q124 101 124 101 Q124 100 122 99 L120 93 L115 73 Q107 10 5 -34 Q3 -34 3 -33 Q3 -31 5 -30 Q96 12 96 106 L49 105 ZM53 187 Q85 168 96 149 Q98 140 82 129 Q74 125 73 134 Q67 164 51 185 Q50 188 53 187 Z" /><glyph glyph-name="" unicode="&#x514b;" d="M159 145 L171 159 L193 145 Q196 144 194 142 L188 135 L189 89 L190 85 Q191 83 189 83 Q172 83 140 83 L157 73 Q159 72 157 70 L153 65 L143 19 Q139 6 153 7 Q181 6 210 11 Q222 13 229 36 Q230 38 232 37 Q233 37 233 35 Q231 20 239 15 Q257 0 232 -13 Q201 -22 163 -17 Q125 -14 129 27 L133 60 L135 83 Q112 83 96 82 L120 69 L116 63 Q102 -7 6 -34 Q1 -35 5 -32 Q96 0 95 82 Q89 82 81 82 Q79 69 67 61 Q64 59 63 61 L63 151 Q63 154 63 154 Q64 155 66 154 L81 143 L114 144 L114 173 L63 172 Q47 172 37 169 L29 177 L115 179 L115 180 Q115 206 115 216 L141 209 Q143 208 141 206 L139 202 L136 179 L187 180 L202 195 L219 177 Q222 175 218 175 L136 174 L133 145 L159 145 ZM82 138 L82 88 L161 89 L161 140 L82 138 Z" /><glyph glyph-name="" unicode="&#x5156;" d="M158 131 Q199 106 202 94 Q200 81 190 74 Q180 68 178 79 Q177 82 176 88 Q174 96 173 100 Q163 99 146 95 Q140 94 137 93 L161 82 Q163 81 161 79 L157 74 L149 19 Q147 5 157 6 Q190 4 207 8 Q217 10 224 30 Q224 31 226 32 Q228 31 227 30 Q226 15 233 11 Q249 -4 228 -14 Q205 -22 161 -19 Q131 -15 132 24 L135 69 Q136 79 134 91 Q134 92 134 92 Q125 90 110 87 Q106 85 104 85 L119 80 Q122 78 119 76 L116 70 L114 52 Q117 -3 12 -30 Q10 -30 9 -28 Q8 -27 10 -26 Q92 0 95 53 L96 66 Q96 75 95 83 Q78 79 67 74 Q62 71 61 76 L52 98 L73 99 Q95 126 114 159 L135 144 Q138 142 135 139 L127 135 Q118 128 97 111 Q86 103 81 99 L172 104 Q168 119 156 129 Q157 131 158 131 ZM58 174 Q40 174 29 171 L22 179 L115 180 L116 214 L145 208 Q148 208 145 204 L142 197 L141 180 L209 182 L222 194 L238 180 Q239 179 239 178 Q239 177 237 177 L58 174 ZM153 165 Q201 149 215 136 Q221 125 212 111 Q208 106 204 106 Q200 107 198 113 Q179 145 152 163 Q150 166 153 165 ZM82 173 L98 157 Q101 155 97 152 Q67 124 16 96 Q13 95 15 98 Q60 131 79 172 Q81 175 82 173 Z" /><glyph glyph-name="" unicode="&#x5165;" d="M80 186 L71 193 L118 195 L124 204 L137 196 Q139 196 137 194 L130 188 Q126 62 244 0 Q246 0 246 -1 Q246 -2 244 -3 Q229 0 208 -18 Q142 29 131 108 Q112 35 12 -31 Q10 -32 9 -31 Q9 -29 10 -28 Q96 36 125 167 Q125 171 125 179 Q124 186 124 190 L99 189 Q92 189 80 186 Z" /><glyph glyph-name="" unicode="&#x5168;" d="M98 98 Q84 98 71 96 L63 104 L163 107 L177 121 L195 104 Q198 102 194 102 L127 99 L143 95 Q146 94 144 91 Q141 90 139 81 L138 47 L167 47 L182 61 L201 45 Q203 44 200 42 L138 41 L137 -11 L204 -10 L219 4 L239 -12 Q241 -14 239 -15 L54 -18 Q40 -19 27 -21 L19 -13 L116 -11 L116 40 L92 40 Q78 39 65 37 L56 45 L116 46 L116 58 L115 99 L98 98 ZM121 216 L146 205 Q149 204 146 201 L143 198 Q177 143 254 111 Q256 107 254 107 Q240 106 225 89 Q165 133 139 195 L139 194 Q94 124 6 67 Q4 66 3 67 Q3 69 4 70 Q81 130 121 216 Z" /><glyph glyph-name="" unicode="&#x516b;" d="M82 140 L103 124 Q107 121 104 117 Q80 35 8 -29 Q7 -30 6 -29 Q5 -28 6 -26 Q65 38 78 138 Q78 140 79 141 Q80 141 82 140 ZM88 185 L80 193 L126 195 L134 204 L146 196 Q148 196 146 194 L140 187 Q138 63 253 -2 Q256 -4 252 -6 Q235 -3 212 -24 Q166 14 150 60 Q134 101 133 190 L108 189 Q107 189 106 189 Q93 187 88 185 Z" /><glyph glyph-name="" unicode="&#x516c;" d="M154 66 Q204 26 206 8 Q204 -8 187 -16 Q179 -19 177 -17 Q174 -16 174 -8 Q173 8 170 21 Q79 -1 54 -10 Q48 -12 48 -9 L41 13 Q41 16 43 16 Q57 17 62 22 Q106 90 116 121 L140 101 Q145 97 140 94 L134 89 Q113 64 73 21 Q72 20 71 19 L169 27 Q164 49 152 63 Q151 65 152 66 Q153 67 154 66 ZM141 209 L143 210 Q161 151 244 103 Q246 102 246 101 Q246 99 244 99 Q231 99 212 78 Q157 121 141 209 ZM19 68 Q17 66 16 67 Q15 69 17 71 Q67 132 92 201 L119 190 Q121 189 119 187 L113 183 Q77 122 19 68 Z" /><glyph glyph-name="" unicode="&#x516d;" d="M52 130 Q34 130 23 127 L15 136 L209 139 L224 155 L243 136 Q245 135 243 134 L52 130 ZM91 103 L113 84 Q116 81 112 76 Q73 21 5 -31 Q4 -32 3 -30 Q3 -29 4 -28 Q63 24 87 101 Q88 104 89 104 Q90 104 91 103 ZM233 17 Q233 1 216 -12 Q208 -18 205 -6 Q191 42 152 91 Q151 92 152 93 Q152 94 154 94 L205 52 Q233 30 233 17 ZM111 210 Q150 191 149 178 Q147 165 133 159 Q123 157 121 166 Q118 195 108 207 Q107 210 111 210 Z" /><glyph glyph-name="" unicode="&#x5170;" d="M70 131 Q56 131 43 129 L34 136 L140 138 Q162 184 168 214 L197 200 Q199 198 197 196 L191 191 Q188 188 181 180 Q161 156 146 138 L191 140 L206 154 L223 137 Q224 136 224 135 Q224 134 222 134 L70 131 ZM54 -11 Q42 -12 29 -14 Q30 -14 27 -14 L19 -6 L203 -3 L218 11 L238 -5 Q240 -7 237 -7 L54 -11 ZM94 67 Q91 67 86 66 Q72 66 67 64 L58 72 L166 73 L181 88 L200 71 Q202 70 199 68 L94 67 ZM74 203 Q112 185 111 174 Q111 164 95 155 Q87 153 86 161 Q82 188 72 200 Q71 202 74 203 Z" /><glyph glyph-name="" unicode="&#x5171;" d="M152 212 L178 200 Q179 199 179 197 L175 189 L174 150 L197 150 L211 165 L230 147 Q232 145 230 145 L174 144 L174 70 L216 70 L231 85 L250 68 Q252 67 249 65 L40 63 Q25 62 12 60 L5 68 L81 69 L80 142 L61 142 Q43 142 33 140 L26 147 L80 148 L80 172 Q80 181 79 195 Q79 203 79 206 Q79 207 81 207 L107 196 Q109 196 107 194 L103 187 L102 148 L150 149 L151 180 Q151 186 150 200 Q150 209 150 211 Q150 212 152 212 ZM102 143 L102 69 L150 69 L150 144 L102 143 ZM100 58 L116 36 Q120 33 114 30 Q77 -3 9 -33 Q7 -34 6 -32 Q6 -31 7 -29 Q69 3 97 57 Q97 59 98 59 Q98 60 100 58 ZM142 43 Q196 29 217 16 Q224 1 216 -12 Q209 -23 200 -11 Q174 24 141 40 Q139 41 142 43 Z" /><glyph glyph-name="" unicode="&#x5173;" d="M78 150 Q64 150 51 148 L42 155 L85 156 L84 195 Q84 205 83 207 Q83 209 86 208 L104 201 Q106 200 106 197 L105 156 L143 157 L162 214 L186 201 Q188 201 186 199 L181 194 L161 158 L180 158 L193 172 L210 156 Q211 155 211 155 Q211 154 209 153 L138 152 Q137 119 134 95 L208 96 L223 111 L241 93 Q243 91 241 91 L143 89 Q150 30 247 -7 Q249 -8 249 -10 Q248 -11 246 -11 Q227 -12 214 -27 Q145 8 140 89 L134 89 Q130 4 5 -29 Q3 -30 3 -28 Q3 -26 4 -25 Q105 6 110 89 L51 88 Q33 88 24 85 L17 93 L111 94 Q114 119 114 151 L78 150 Z" /><glyph glyph-name="" unicode="&#x5174;" d="M201 206 L230 188 Q232 187 230 185 L223 180 Q200 146 162 96 L208 97 L225 115 L243 95 Q245 93 243 92 L57 88 Q54 88 48 87 Q34 87 29 85 L21 94 L158 96 Q194 171 201 206 ZM108 72 L124 49 Q126 45 122 41 Q74 -1 8 -32 Q6 -33 6 -31 Q5 -30 7 -28 Q71 5 104 71 Q105 73 106 73 Q106 74 108 72 ZM222 17 Q226 0 211 -10 Q200 -16 196 -7 Q179 29 148 54 Q147 55 147 56 Q148 57 150 57 L184 44 Q220 30 222 17 ZM109 208 Q111 206 115 203 Q156 172 156 153 Q153 137 135 131 Q126 129 126 137 Q126 176 107 207 Q107 209 109 208 ZM45 186 Q82 160 91 139 Q93 127 77 117 Q69 113 67 122 Q61 157 44 184 Q43 186 45 186 Z" /><glyph glyph-name="" unicode="&#x5175;" d="M69 196 L96 182 Q98 182 96 180 L91 173 L90 141 L193 143 L207 158 L225 142 Q226 140 226 140 Q225 139 224 139 L166 137 L165 62 L209 63 L225 78 L243 60 Q245 58 243 57 L57 54 Q38 54 28 52 L20 60 L69 60 L69 161 Q69 170 68 184 Q68 192 68 195 Q68 196 69 196 ZM90 135 L89 61 L144 61 L144 137 L90 135 ZM216 4 Q220 -11 206 -20 Q196 -26 193 -17 Q176 16 149 38 Q147 39 148 40 Q148 41 150 41 L182 28 Q214 17 216 4 ZM99 48 L114 30 Q116 27 113 24 Q73 -7 10 -32 Q8 -32 8 -31 Q7 -30 9 -29 Q68 -1 96 47 Q98 50 99 48 ZM183 216 L199 194 Q201 191 197 190 Q174 188 106 181 L105 184 Q174 206 183 216 Z" /><glyph glyph-name="" unicode="&#x5180;" d="M138 214 L159 205 Q161 205 160 202 L156 197 L154 184 Q183 192 206 208 L216 193 Q217 192 216 191 Q216 190 214 190 Q185 185 153 180 L152 173 Q150 164 164 164 Q189 164 205 168 Q218 171 221 184 Q223 186 224 183 Q223 175 230 169 Q243 157 225 150 Q207 145 188 145 L203 136 Q205 135 203 133 L197 126 L197 92 L199 86 Q200 84 199 83 Q199 82 197 83 Q168 86 79 86 L79 85 Q76 75 64 69 Q61 68 60 70 L60 143 Q60 145 61 145 Q61 146 63 145 L79 136 L174 137 L180 145 Q173 145 165 146 Q135 148 137 174 L138 199 L138 214 ZM74 53 Q57 52 47 50 L40 58 L90 59 L90 61 L89 85 L114 76 Q116 75 114 73 Q110 71 110 59 L144 59 L143 83 L168 74 Q171 73 169 72 Q165 69 164 59 L186 60 L200 72 L216 57 Q219 55 215 55 L164 54 L164 28 L207 29 L222 44 L240 26 Q242 24 240 24 L55 20 Q38 20 28 17 L20 26 L90 27 L90 53 L74 53 ZM60 183 Q41 183 32 179 L25 186 L95 190 L94 215 L116 205 Q117 205 118 204 Q118 204 117 202 L115 198 L114 180 L115 161 Q111 149 101 142 Q96 139 94 144 L95 167 L95 169 Q40 144 37 137 Q34 134 32 137 L23 155 L95 174 L95 185 L60 183 ZM106 18 L117 1 Q118 0 118 0 Q118 -1 115 -2 Q72 -20 8 -29 Q7 -29 7 -28 Q7 -27 8 -26 Q71 -10 103 18 Q105 20 106 18 ZM166 116 Q169 115 169 113 Q169 111 166 110 L136 110 L136 91 L174 92 L174 132 L136 132 L136 115 L166 116 ZM139 13 Q189 7 208 -3 Q212 -13 209 -24 Q204 -34 196 -24 Q175 -4 139 11 Q138 12 139 13 ZM109 53 L109 27 L145 28 L144 54 L109 53 ZM79 109 L79 91 L117 91 L116 110 L79 109 ZM79 131 L79 114 L116 115 L116 131 L79 131 Z" /><glyph glyph-name="" unicode="&#x5185;" d="M116 214 L143 206 Q146 206 144 202 L141 194 Q141 176 139 160 L193 161 L205 174 L227 159 Q229 158 227 156 L219 145 L218 60 L219 27 Q219 -8 180 -27 Q177 -29 176 -26 Q177 -8 166 -3 Q164 -2 165 0 Q165 0 167 0 Q195 -2 192 21 L194 155 L139 154 Q136 129 129 110 Q182 86 185 75 Q187 62 174 49 Q167 44 164 54 Q154 81 127 105 Q113 66 60 27 L60 1 Q59 -12 45 -27 Q42 -30 40 -30 Q38 -29 38 -26 L39 129 Q40 150 38 172 Q38 175 39 173 L62 159 L116 159 Q116 184 116 214 ZM61 153 L60 33 Q111 78 115 153 L61 153 Z" /><glyph glyph-name="" unicode="&#x5188;" d="M200 210 L223 199 Q225 198 223 197 L217 188 L218 30 Q222 -12 183 -25 Q184 -6 174 -1 Q172 -1 173 0 Q173 1 175 1 Q196 -1 194 20 L192 192 L69 189 L69 9 Q67 -6 54 -24 Q51 -27 49 -27 Q46 -27 46 -24 L48 34 L48 177 L48 206 Q48 207 49 207 L68 195 L191 198 L200 210 ZM177 60 Q172 51 163 43 Q159 42 157 46 Q149 64 132 91 Q108 57 75 25 Q71 23 71 28 Q97 58 123 105 Q107 129 81 160 Q80 162 83 162 Q96 150 125 123 Q123 126 130 119 Q145 149 156 183 L180 170 Q183 168 180 165 L176 158 Q169 146 155 125 Q147 112 143 106 Q162 89 176 72 Q180 68 177 60 Z" /><glyph glyph-name="" unicode="&#x518c;" d="M44 110 Q25 109 16 106 L9 116 L57 117 L57 158 Q57 186 55 202 Q54 206 57 204 L77 194 L101 195 L109 206 L126 196 Q128 195 126 193 L121 186 L121 119 L138 119 L138 160 Q139 179 136 204 Q136 207 138 206 L160 195 L181 196 L189 207 L208 197 Q210 196 208 194 L202 187 L203 120 L214 120 L229 136 L248 118 Q249 115 247 114 L203 113 L204 53 Q210 -4 171 -18 Q173 -4 165 0 Q163 1 166 2 Q186 -3 183 51 L182 113 L156 112 Q155 51 147 27 Q139 0 113 -28 Q111 -29 110 -28 Q109 -27 110 -25 Q126 -4 132 25 Q138 49 138 112 L121 111 L121 49 Q125 1 92 -18 Q92 -4 86 0 Q84 1 87 2 Q103 0 102 47 L102 111 L75 110 Q74 44 60 20 Q46 -9 3 -33 Q2 -34 1 -33 Q1 -31 2 -30 Q36 -7 47 21 Q57 44 57 110 L44 110 ZM77 180 L76 118 L102 118 L102 190 L80 189 L77 180 ZM157 182 L156 119 L182 120 L181 191 L159 190 L157 182 Z" /><glyph glyph-name="" unicode="&#x518d;" d="M179 163 L202 151 Q204 151 202 149 L195 140 L197 61 L215 62 L229 77 L248 59 Q250 56 247 56 L197 55 L198 27 Q201 -15 162 -28 Q163 -9 153 -4 Q151 -4 152 -2 Q152 0 154 0 Q175 -3 173 17 L173 55 L81 53 L80 0 Q79 -13 66 -27 Q62 -30 61 -30 Q59 -30 59 -26 L60 53 L44 52 Q34 52 20 50 Q18 49 17 49 L8 58 L60 59 L61 116 Q61 142 59 159 Q59 161 61 160 L83 148 L115 149 L114 186 L68 185 Q53 184 40 182 L33 190 L189 192 L204 207 L222 190 Q223 189 221 187 L120 186 L143 177 Q146 177 144 174 Q139 169 138 164 L138 150 L170 151 L179 163 ZM82 101 L81 59 L115 60 L115 101 L82 101 ZM138 101 L139 60 L173 61 L172 102 L138 101 ZM172 144 L138 144 L138 107 L172 108 L172 144 ZM82 140 L82 106 L115 106 L115 143 L84 143 L82 140 Z" /><glyph glyph-name="" unicode="&#x5195;" d="M9 -30 Q8 -31 7 -29 Q7 -28 8 -27 Q92 9 108 55 Q92 55 75 54 Q72 47 62 39 Q58 37 57 39 L57 93 Q35 80 8 66 Q5 65 6 68 Q66 105 97 149 Q95 149 92 148 Q89 148 87 147 L80 153 L150 154 L162 165 L175 153 Q177 151 174 150 L108 149 Q106 149 103 149 L120 141 Q122 138 119 137 L112 133 Q107 129 101 124 L134 125 L145 137 L166 124 Q168 123 165 121 L154 114 L130 98 L181 99 L190 112 L214 99 Q216 98 214 95 L209 87 L209 63 L211 59 Q211 56 209 56 Q186 56 148 56 L162 49 L159 43 L152 15 Q146 2 161 2 Q189 0 215 5 Q228 6 231 21 Q232 23 234 22 Q235 22 235 20 Q232 8 241 3 Q249 -1 247 -7 Q245 -13 235 -16 Q206 -23 167 -20 Q135 -14 136 16 L140 56 L132 56 Q117 11 9 -30 ZM188 137 Q185 135 183 136 Q181 136 181 140 L181 196 L74 194 L73 154 Q71 145 61 135 Q58 132 56 133 Q54 133 54 137 L55 185 L54 207 Q54 210 56 209 L74 199 L180 201 L191 212 L211 200 Q211 200 212 200 Q213 199 211 197 L205 189 L206 161 Q203 146 188 137 ZM182 94 L142 93 Q140 75 134 62 L182 63 L182 94 ZM75 91 L74 61 L110 61 Q115 76 116 92 L75 91 ZM94 118 Q81 109 66 99 L75 96 L123 98 L133 120 L94 118 ZM109 172 Q99 172 88 170 Q89 170 87 170 L81 176 L148 177 L159 187 L172 174 Q174 172 170 172 L109 172 Z" /><glyph glyph-name="" unicode="&#x519b;" d="M72 138 Q58 137 45 135 L38 143 L85 144 Q86 147 88 152 Q98 175 100 184 L126 168 Q127 168 127 166 L120 160 Q119 159 118 157 Q115 154 109 145 L176 146 L188 160 L206 144 Q208 143 205 142 L105 139 L72 88 L118 89 L118 104 L117 133 L143 124 Q147 123 144 119 L143 115 L142 90 L174 90 L187 104 L205 89 Q206 87 203 86 L142 84 L142 46 L211 48 L225 62 L242 46 Q244 45 242 43 L142 41 L142 22 L143 0 Q141 -16 124 -30 Q116 -36 116 -29 L118 21 L118 40 L51 39 Q46 38 38 37 Q28 36 24 35 L16 44 L118 46 L118 83 L50 82 Q44 84 49 89 Q56 90 59 95 Q69 110 82 138 L72 138 ZM201 196 L213 205 L238 179 Q240 177 239 175 Q238 174 235 174 Q219 173 196 161 Q193 160 194 163 L202 191 L56 188 Q49 160 27 147 Q22 146 22 149 Q18 161 22 166 Q38 178 40 200 Q40 203 41 203 Q42 203 45 202 Q51 198 55 193 L201 196 Z" /><glyph glyph-name="" unicode="&#x519c;" d="M150 36 Q154 38 152 34 L109 -3 Q101 -10 91 -19 Q86 -23 84 -25 Q84 -26 83 -27 Q82 -26 81 -25 L61 -9 Q59 -7 61 -6 Q71 -3 82 0 L81 95 Q53 64 8 35 Q4 35 6 37 Q66 85 101 156 L68 155 Q61 125 42 109 Q37 107 37 110 Q30 122 34 129 Q50 142 52 167 Q51 170 53 171 Q54 172 57 170 Q60 167 67 160 L104 162 Q115 186 123 212 L148 199 Q152 197 147 193 L143 189 Q137 175 130 163 L197 166 L210 175 L234 151 Q237 148 236 145 Q235 143 231 143 Q213 144 195 132 Q192 131 192 134 L199 161 L145 158 Q148 63 235 -9 Q236 -10 236 -11 Q236 -12 234 -12 Q215 -10 199 -24 Q145 29 141 158 L127 157 Q117 139 104 122 L101 10 L150 36 ZM211 118 L230 99 Q232 98 231 96 Q231 95 229 95 Q205 84 176 75 L175 77 Q198 96 211 118 Z" /><glyph glyph-name="" unicode="&#x51a0;" d="M54 100 Q36 100 26 97 L19 105 L117 108 L130 121 L147 105 Q149 103 147 102 L96 101 L116 93 Q117 92 116 91 L112 84 L103 15 Q101 4 111 3 Q169 -2 218 5 Q230 6 233 23 Q237 26 237 23 Q235 9 243 2 Q250 -2 248 -8 Q245 -13 235 -16 Q173 -24 110 -16 Q84 -12 87 25 L91 84 L91 101 L61 100 L79 94 Q81 94 79 91 L76 85 Q75 9 7 -32 Q5 -32 4 -31 Q4 -29 5 -28 Q36 -3 44 20 Q55 45 55 100 L54 100 ZM184 165 L206 155 Q209 154 207 152 L203 146 L202 124 L213 125 L223 135 L236 122 Q237 121 235 121 L202 119 L202 89 L203 50 Q205 28 175 10 Q173 9 172 10 Q171 10 172 13 Q173 25 164 32 Q162 36 165 36 Q183 33 182 45 L182 114 L182 118 L148 116 Q145 116 145 119 Q145 121 148 122 L182 123 Q182 151 180 163 Q181 166 184 165 ZM198 197 L209 205 L235 181 Q237 179 236 177 Q235 176 232 176 Q215 177 194 165 Q191 165 191 165 Q190 166 191 167 L199 191 L63 188 Q55 157 31 143 Q26 141 26 144 Q22 157 26 163 Q45 176 48 200 Q47 202 49 203 Q50 203 52 202 Q58 198 62 193 L198 197 ZM82 143 Q77 143 70 142 Q59 141 55 141 L48 147 L104 149 L114 162 L130 147 Q132 146 130 144 L82 143 ZM150 95 Q172 84 172 75 Q171 66 161 62 Q154 61 154 68 Q154 85 148 93 Q146 96 150 95 Z" /><glyph glyph-name="" unicode="&#x51b2;" d="M172 199 L169 188 L169 149 L198 150 L208 164 L233 151 Q235 151 233 147 L227 138 L227 86 L229 82 Q230 79 228 79 Q205 79 169 79 L169 44 L170 0 Q166 -21 148 -31 Q145 -32 143 -27 L145 21 L145 78 Q132 78 115 77 L115 71 Q111 59 98 50 Q93 48 92 52 L94 97 L95 133 L94 158 Q94 161 97 160 L116 148 L145 149 L145 167 L143 213 L171 202 Q172 202 172 199 ZM87 161 L51 43 Q48 31 48 25 Q48 16 50 8 Q54 2 48 -3 Q42 -9 28 -10 Q20 -11 22 -2 Q22 0 24 9 Q25 14 25 17 Q27 27 16 31 Q15 34 17 34 Q27 32 30 40 L83 162 Q84 163 86 163 Q88 163 87 161 ZM199 145 L169 144 L169 84 L199 85 L199 145 ZM116 143 L115 83 L145 84 L145 143 L116 143 ZM27 189 Q62 173 61 160 Q61 149 47 143 Q38 141 36 149 Q34 176 24 186 Q25 189 27 189 Z" /><glyph glyph-name="" unicode="&#x51b6;" d="M181 76 L193 90 L218 76 Q219 75 219 73 L211 63 L212 6 L215 0 Q217 -2 211 -2 Q173 0 121 0 L121 -8 Q120 -19 110 -28 Q99 -36 100 -25 L99 83 Q99 85 100 85 Q100 86 102 85 L121 74 L181 76 ZM184 152 Q183 155 186 155 Q224 132 231 119 Q233 115 230 110 Q227 102 219 95 Q211 91 209 100 Q206 112 202 120 Q138 111 94 100 Q90 99 90 102 L85 120 Q84 123 86 123 Q94 123 99 128 Q126 159 145 212 Q146 215 148 213 Q148 214 149 213 L171 199 Q175 196 171 193 Q149 165 106 122 L200 125 Q195 136 185 151 Q184 152 184 152 ZM121 68 L121 5 L184 6 L183 70 L121 68 ZM85 166 L51 46 Q48 39 48 28 Q48 17 50 9 Q53 2 48 -2 Q42 -8 30 -9 Q23 -10 24 -1 Q25 1 26 11 Q27 17 27 19 Q29 29 19 34 Q18 36 20 37 Q28 33 32 42 L82 167 Q83 169 84 168 Q86 168 85 166 ZM25 184 Q58 169 58 155 Q56 145 44 139 Q36 137 34 145 Q30 172 23 182 Q22 185 25 184 Z" /><glyph glyph-name="" unicode="&#x51b7;" d="M69 94 Q67 93 66 94 Q65 95 67 97 Q113 135 135 214 L161 204 Q163 203 161 201 L157 199 Q168 154 246 107 Q248 106 248 104 Q248 102 246 103 Q230 104 214 91 Q167 127 155 196 Q124 134 69 94 ZM104 39 Q109 37 120 33 Q130 29 135 27 Q153 50 170 81 L120 80 Q105 79 95 77 L89 83 L171 86 L182 98 L204 82 Q205 81 205 81 Q205 80 203 79 L194 72 Q165 43 140 25 Q167 12 174 3 Q177 -7 165 -20 Q157 -28 152 -17 Q136 14 102 37 Q102 39 104 39 ZM83 160 L49 46 Q45 28 49 12 Q55 2 49 -2 Q41 -10 27 -9 Q18 -8 22 1 Q25 10 26 21 Q27 30 16 35 Q14 38 17 38 Q27 34 30 44 L80 161 Q81 162 82 162 Q84 161 83 160 ZM27 191 Q62 177 62 163 Q60 151 47 146 Q37 145 36 153 Q35 176 24 189 Q24 192 27 191 ZM132 142 Q159 127 161 116 Q160 106 147 101 Q138 99 137 105 Q139 126 131 140 Q130 142 132 142 Z" /><glyph glyph-name="" unicode="&#x51c6;" d="M75 83 Q73 82 72 84 Q71 85 72 86 Q109 135 133 216 L157 205 Q159 204 159 204 Q159 204 157 202 L154 198 Q143 179 131 159 L208 160 L220 173 L237 158 Q239 156 236 156 L189 154 L188 113 L202 114 L214 125 L229 112 Q230 111 230 110 Q230 109 228 109 L188 108 L187 72 L202 73 L214 84 L229 71 Q231 68 228 68 L187 67 L187 25 L215 25 L228 39 L244 24 Q246 23 246 22 Q246 21 244 21 L129 18 L128 -2 Q128 -15 114 -31 Q107 -36 107 -31 L109 36 L112 131 Q109 127 103 119 Q93 106 75 83 ZM86 160 L55 45 Q49 27 53 10 Q59 1 53 -3 Q45 -12 33 -11 Q24 -10 27 0 Q30 8 30 20 Q31 30 18 35 Q17 37 19 38 Q31 34 35 43 L83 161 Q84 162 85 162 Q87 161 86 160 ZM129 66 L129 24 L166 24 L166 67 L129 66 ZM131 153 L130 112 L166 113 L166 154 L131 153 ZM130 106 L130 71 L166 72 L166 107 L130 106 ZM31 197 Q65 182 65 169 Q62 157 51 153 Q44 151 40 159 Q39 185 29 195 Q29 198 31 197 ZM168 199 Q193 190 194 180 Q193 172 183 167 Q175 165 175 171 Q174 187 167 198 Q166 200 168 199 Z" /><glyph glyph-name="" unicode="&#x51c9;" d="M176 9 Q175 -16 146 -28 Q143 -29 142 -26 Q143 -13 133 -8 Q131 -7 131 -6 Q131 -5 133 -5 Q154 -7 152 0 L152 83 Q140 83 127 83 Q123 75 114 69 Q108 66 108 70 L109 100 L109 123 Q109 144 108 148 Q108 151 110 150 L131 140 L191 141 L202 151 L224 137 Q226 137 224 135 L217 128 L217 89 L219 86 Q219 85 218 83 Q216 83 210 83 Q191 84 176 83 L176 9 ZM128 134 L128 88 L193 90 L192 135 L128 134 ZM86 151 L56 44 Q50 28 55 9 Q60 0 55 -4 Q45 -13 34 -12 Q25 -11 28 -1 Q31 7 31 19 Q32 29 20 34 Q18 37 21 37 Q33 34 36 42 L83 152 Q84 153 85 153 Q87 152 86 151 ZM151 211 L177 204 Q180 203 178 200 Q175 198 175 190 L174 174 L211 174 L225 189 L243 173 Q244 172 243 171 Q243 170 241 170 L114 167 Q107 168 94 165 L86 172 L149 173 L148 210 Q148 210 149 211 Q149 212 151 211 ZM140 54 Q142 53 140 51 Q112 16 65 -23 Q62 -24 61 -24 Q60 -23 62 -21 Q103 20 116 64 L140 54 ZM186 57 Q235 38 236 26 Q236 16 225 8 Q216 4 214 11 Q204 40 185 55 Q184 57 186 57 ZM33 198 Q66 183 66 169 Q64 159 52 153 Q45 151 41 159 Q40 185 30 196 Q30 198 33 198 Z" /><glyph glyph-name="" unicode="&#x51cc;" d="M145 212 L169 202 Q172 200 169 198 Q166 194 166 184 L165 175 L191 176 L201 186 L215 174 Q216 173 216 172 Q216 171 214 171 L165 170 L165 138 L211 139 L225 153 L242 137 Q244 135 240 135 L129 132 L144 118 Q147 115 143 114 Q137 111 130 105 L148 94 Q149 93 147 91 L144 88 Q143 87 143 86 Q142 84 139 81 L175 83 L187 94 L207 81 Q209 80 209 80 Q209 79 207 78 L199 69 Q185 45 164 25 Q195 3 246 -6 Q247 -6 248 -7 Q247 -8 246 -9 Q232 -9 211 -30 Q177 -16 150 13 Q114 -12 60 -33 Q57 -34 56 -33 Q55 -32 58 -30 Q112 -5 141 25 Q129 43 123 64 Q106 46 85 30 Q82 28 83 31 Q111 60 129 105 Q95 85 74 73 Q72 72 71 74 Q70 75 72 76 Q103 97 129 132 L119 132 Q101 131 89 129 L82 136 L144 137 L143 169 L137 169 Q122 169 109 167 L100 174 L143 175 L143 179 L143 211 Q144 213 145 212 ZM84 160 L52 46 Q47 27 51 10 Q57 1 51 -3 Q43 -11 30 -11 Q21 -9 25 0 Q27 7 28 20 Q29 31 16 35 Q15 37 17 38 Q30 35 33 43 L81 161 Q82 163 83 162 Q84 162 84 160 ZM175 78 L134 76 Q131 72 125 66 Q136 47 150 36 Q165 54 175 78 ZM170 129 Q213 117 223 105 Q228 98 219 86 Q213 80 208 88 Q190 115 169 126 Q167 127 167 128 Q168 130 170 129 ZM29 199 Q63 184 62 171 Q60 159 48 154 Q39 153 38 161 Q37 185 27 197 Q25 200 29 199 Z" /><glyph glyph-name="" unicode="&#x51e4;" d="M65 206 Q65 209 67 208 L88 197 L88 193 L180 195 L189 210 L212 198 Q215 197 213 194 L206 185 Q193 33 229 7 Q233 5 234 8 L240 19 Q241 20 242 19 Q243 19 243 17 Q241 0 247 -7 Q253 -19 246 -24 Q239 -29 226 -22 Q170 3 180 190 L88 187 L88 125 Q90 32 6 -34 Q4 -35 4 -33 Q3 -32 5 -31 Q70 28 67 131 L67 172 L65 206 ZM172 46 Q169 37 161 31 Q158 29 153 33 Q147 48 133 69 Q107 30 67 0 Q65 -1 64 0 Q63 0 64 1 Q102 36 123 83 Q114 97 95 117 L97 118 Q106 113 122 101 Q127 98 129 96 Q138 120 143 148 L98 145 Q96 145 95 148 Q95 150 98 151 L142 153 L152 165 L174 153 Q177 151 174 148 L167 140 Q161 116 144 84 Q159 72 173 57 Q176 52 172 46 Z" /><glyph glyph-name="" unicode="&#x51ed;" d="M150 87 L172 77 Q175 76 173 74 L166 67 L156 17 Q154 7 163 6 Q171 5 192 6 Q210 7 216 8 Q225 11 232 27 Q233 29 234 28 Q236 28 235 26 Q230 7 240 2 Q247 -2 245 -8 Q242 -14 233 -16 Q224 -18 201 -18 Q176 -19 163 -17 Q136 -12 138 24 L142 68 L104 66 Q108 0 11 -34 Q10 -35 9 -33 Q8 -32 9 -31 Q80 0 81 56 L82 83 L105 72 L141 74 L150 87 ZM125 141 Q116 140 105 139 Q101 138 99 138 L90 145 L144 146 L144 153 L143 182 Q124 181 100 179 Q98 178 98 179 Q98 181 99 182 Q151 191 188 211 L204 192 Q205 191 205 190 Q204 189 202 189 Q182 186 150 183 L169 177 Q172 177 170 174 Q167 171 166 164 L165 147 L196 148 L210 161 L225 145 Q227 143 224 143 L165 141 L163 100 L188 101 L202 114 L218 98 Q219 96 216 96 L134 93 Q122 93 109 91 Q110 91 108 91 L99 98 L144 99 L144 141 L125 141 ZM13 110 Q10 110 11 113 Q50 148 79 212 L97 200 Q99 199 97 196 L94 193 Q87 182 79 173 L80 105 Q79 91 65 76 Q63 74 61 74 Q59 75 59 78 L60 136 L60 152 Q46 137 13 110 Z" /><glyph glyph-name="" unicode="&#x51ef;" d="M210 192 Q212 191 210 189 L203 179 L190 20 Q189 11 197 10 Q209 9 224 14 Q233 14 240 33 Q241 35 242 35 Q243 34 243 32 Q238 10 247 6 Q254 1 253 -5 Q251 -11 241 -13 Q222 -17 199 -15 Q175 -10 174 22 L178 185 L152 185 L152 137 Q153 63 139 34 Q130 6 81 -33 Q79 -34 78 -32 Q78 -30 79 -29 Q113 0 123 30 Q134 60 134 130 L134 176 L132 201 Q132 204 134 203 L152 190 L152 189 L177 190 L186 205 L210 192 ZM59 112 Q44 111 32 109 L24 116 L89 118 L100 130 L120 118 Q123 115 120 114 L114 105 L113 79 L114 76 Q115 74 113 74 L92 74 L61 73 L57 16 Q58 17 58 17 L120 52 Q123 53 122 50 L71 6 Q55 -5 46 -14 Q44 -17 41 -15 L26 0 Q23 1 26 1 Q29 2 34 5 Q39 7 41 8 L39 90 Q40 92 42 91 L61 80 L61 79 L90 80 L91 112 L91 113 L59 112 ZM66 211 L86 203 Q88 203 86 200 L83 193 L81 146 L99 147 L101 192 L123 182 Q125 181 123 179 L119 172 L119 146 L120 144 Q120 142 119 142 Q108 142 46 140 Q42 134 35 131 Q33 130 32 130 Q31 130 31 132 L31 155 L31 171 Q31 175 30 185 Q30 192 30 194 L50 184 L47 178 L45 144 L65 145 L65 175 Q65 197 63 210 Q63 212 66 211 Z" /><glyph glyph-name="" unicode="&#x51f0;" d="M64 206 Q64 209 66 208 L86 198 L86 194 L181 196 L191 210 L213 199 Q216 198 213 195 L206 185 Q194 29 229 8 Q232 5 234 8 L240 19 Q241 20 242 20 Q243 20 243 18 Q239 2 246 -5 Q252 -14 245 -21 Q238 -25 225 -20 Q171 -5 183 191 L86 188 L86 126 Q90 28 7 -34 Q5 -34 5 -32 Q4 -31 6 -30 Q70 27 66 131 L66 172 L64 206 ZM109 95 Q107 87 100 82 Q99 80 97 80 Q96 81 96 83 L96 104 L96 140 Q96 152 95 156 Q95 158 97 157 L106 151 Q120 168 127 182 L143 170 Q144 170 142 168 Q138 166 123 158 Q115 154 110 151 L148 153 L157 164 L173 154 Q174 154 175 153 Q175 153 174 151 L170 145 L169 103 L172 99 Q173 97 170 97 Q161 97 145 96 L109 95 ZM112 64 Q109 64 104 63 Q97 62 90 62 L85 68 L155 70 L166 81 L180 69 Q181 67 179 66 L133 65 L144 61 Q146 60 144 58 Q142 57 140 49 L140 32 L153 32 L163 42 L176 31 Q178 29 176 28 L140 27 L140 -6 L169 -5 L181 4 L196 -7 Q197 -9 195 -9 L96 -12 Q85 -12 74 -14 L69 -8 L121 -6 L121 26 L93 25 Q90 25 89 27 Q89 29 92 30 L121 31 L121 39 L120 64 L112 64 ZM150 148 L109 146 L109 126 L142 127 Q144 127 144 125 Q144 123 142 123 L109 122 L109 100 L149 101 L150 148 Z" /><glyph glyph-name="" unicode="&#x51fa;" d="M188 85 L217 73 Q220 72 217 69 L214 62 L214 14 Q214 -4 194 -19 Q190 -22 188 -17 Q184 -2 181 1 L63 0 L63 -2 Q60 -17 49 -24 Q44 -28 42 -23 L43 51 L43 81 L65 72 Q68 71 66 69 L64 63 L63 5 L114 5 L114 112 L72 111 Q69 99 57 89 Q51 85 50 90 L51 159 L50 186 L73 176 Q75 175 74 172 L72 166 L72 116 L114 117 L113 168 L112 213 L142 205 Q145 205 142 201 Q139 200 137 191 L136 117 L183 118 Q183 118 184 120 L185 169 L184 186 L213 174 Q217 173 214 170 L210 163 L210 126 Q210 107 191 93 Q187 90 185 95 Q181 108 177 113 L136 112 L135 6 L186 6 Q187 6 187 8 L188 66 L188 85 Z" /><glyph glyph-name="" unicode="&#x51fb;" d="M64 156 Q44 154 37 153 L29 161 L117 163 L117 168 Q117 176 116 191 Q116 207 115 212 L145 205 Q148 205 145 201 Q145 201 144 200 Q143 198 141 191 L141 164 L192 165 L207 179 L226 162 Q228 161 225 159 L141 157 L140 105 L214 106 L230 124 L250 104 Q251 103 248 101 L140 99 L140 0 L190 1 L191 59 L190 79 L219 67 Q222 66 220 62 L216 56 L216 8 Q215 -9 198 -24 Q193 -28 192 -23 Q190 -12 185 -3 L67 -6 L67 -7 Q65 -18 52 -28 Q48 -30 46 -26 L47 15 L47 45 L46 78 L72 69 Q74 68 72 66 L68 59 L67 0 L115 0 L116 98 L40 97 Q23 96 14 93 L5 102 L116 104 L116 157 L64 156 Z" /><glyph glyph-name="" unicode="&#x5200;" d="M50 191 L194 193 L205 206 L228 190 Q230 189 228 187 L220 177 Q220 167 219 121 Q217 69 217 56 Q217 28 216 20 Q211 -7 177 -23 Q174 -24 174 -21 Q174 -4 166 0 Q165 1 165 2 Q165 4 166 3 Q189 1 189 20 Q193 64 194 187 L116 185 L136 178 L131 167 L130 110 Q135 14 10 -33 Q8 -34 7 -32 Q6 -31 8 -30 Q109 14 108 107 L109 185 L98 185 Q77 185 60 181 L50 191 Z" /><glyph glyph-name="" unicode="&#x5206;" d="M52 106 L157 110 L169 124 L193 108 Q195 107 193 104 L185 95 Q184 37 182 11 Q175 -12 144 -26 Q142 -27 142 -27 Q141 -26 141 -25 Q143 -9 133 -3 Q131 -2 132 0 Q132 0 134 0 Q156 -1 155 12 Q157 19 158 49 Q159 86 158 104 L95 102 L116 94 Q118 93 118 93 Q118 93 116 91 L114 84 Q111 5 9 -34 Q7 -35 6 -34 Q5 -32 7 -31 Q91 9 91 79 Q91 89 91 102 L80 102 Q78 102 71 101 Q62 100 60 99 L52 106 ZM138 212 Q170 154 250 115 Q252 113 250 112 Q237 113 218 95 Q159 139 136 210 L138 212 ZM17 84 Q15 83 14 84 Q13 85 15 87 Q68 136 95 209 L122 198 Q122 197 121 195 L115 190 Q79 133 17 84 Z" /><glyph glyph-name="" unicode="&#x5217;" d="M70 95 Q74 93 82 88 Q89 84 93 82 Q106 106 113 132 L79 131 Q59 95 22 57 Q18 56 20 59 Q59 110 77 181 L66 181 Q44 179 36 178 L29 185 L129 188 L143 201 L159 186 Q161 184 159 184 L83 182 L98 170 Q100 169 98 167 Q91 150 82 135 L113 137 L123 148 L144 135 Q146 133 143 130 L136 122 Q127 95 111 70 Q136 53 135 48 Q133 34 125 27 Q116 22 113 31 Q107 46 100 55 Q71 14 11 -31 Q6 -33 9 -29 Q59 19 88 72 Q77 86 68 93 Q67 96 70 95 ZM207 209 L234 198 Q236 197 236 197 Q236 197 234 195 L229 186 L229 24 Q230 -7 199 -23 Q198 -24 197 -23 Q196 -23 196 -20 Q197 -8 188 -2 Q186 0 187 0 Q187 0 189 0 Q209 -1 206 11 L206 158 Q206 171 205 192 Q205 203 205 207 Q205 210 207 209 ZM169 171 L184 163 Q187 162 186 157 L185 64 Q184 48 171 37 Q167 34 165 38 L167 169 Q167 172 169 171 Z" /><glyph glyph-name="" unicode="&#x5219;" d="M50 39 Q47 36 46 36 Q44 37 44 40 L46 154 Q46 194 45 200 Q45 203 47 202 L70 190 Q70 189 70 189 L121 190 L131 203 L150 191 Q152 191 150 189 L144 181 L143 109 L144 74 Q141 59 126 47 Q122 46 120 49 L121 186 L69 185 L64 179 L61 66 Q59 51 50 39 ZM207 209 L232 198 Q233 198 234 197 Q234 197 233 195 L227 187 L227 24 Q230 -7 200 -23 Q196 -25 196 -20 Q198 -8 188 -1 Q186 0 189 0 Q209 -1 206 12 L206 159 Q206 172 205 192 Q205 203 205 207 Q205 211 207 209 ZM84 165 L103 158 Q107 158 104 151 L104 120 Q112 21 6 -28 Q4 -30 3 -29 Q1 -28 3 -26 Q88 21 84 117 L84 165 ZM171 181 L186 174 Q189 173 188 168 L185 68 Q185 52 173 43 Q168 39 167 44 L168 179 Q168 182 171 181 ZM101 46 Q152 16 153 3 Q151 -8 138 -15 Q131 -17 129 -9 Q120 19 99 44 Q98 47 101 46 Z" /><glyph glyph-name="" unicode="&#x521a;" d="M125 64 Q122 55 114 49 Q111 46 109 52 Q103 69 92 92 Q75 63 54 36 L54 7 Q54 -9 41 -23 Q38 -26 37 -26 Q35 -25 35 -21 L34 177 L34 203 Q34 206 36 205 L54 194 L129 195 L139 208 L160 196 Q162 195 161 193 L154 184 L155 46 L155 10 Q155 -11 128 -26 Q126 -27 126 -25 Q125 -8 117 -5 Q115 -4 116 -3 Q116 -2 118 -2 Q132 -2 131 1 L131 190 L54 189 L54 45 Q71 72 85 107 Q83 110 80 116 Q74 128 59 151 Q58 154 61 153 Q69 145 82 130 Q87 124 90 121 Q99 147 104 176 L125 164 Q128 163 125 159 L122 154 Q113 128 101 107 Q118 87 125 75 Q128 70 125 64 ZM209 211 L236 200 Q237 200 238 199 Q238 199 237 197 L231 189 L231 24 Q232 -7 201 -23 Q200 -24 199 -23 Q198 -23 198 -20 Q199 -8 190 -2 Q188 0 189 0 Q189 0 191 0 Q210 -1 208 11 L208 161 Q208 174 207 194 Q207 205 207 209 Q206 212 209 211 ZM173 171 L188 164 Q191 163 190 158 L190 73 Q187 53 177 42 Q172 39 171 44 L171 169 Q171 173 173 171 Z" /><glyph glyph-name="" unicode="&#x5229;" d="M112 215 L128 198 Q129 196 128 196 Q128 195 126 195 Q118 193 87 189 L101 184 Q102 183 102 181 L98 174 L97 138 L116 138 L130 152 L144 137 Q147 135 144 133 L97 132 L96 104 Q126 93 131 83 Q133 76 122 66 Q113 63 112 70 Q105 90 96 100 L95 45 L96 0 Q94 -12 79 -25 Q73 -30 72 -25 L74 46 L74 82 Q49 49 6 11 Q4 9 4 13 Q53 71 75 132 L60 132 Q57 132 51 131 Q37 131 31 129 L24 137 L76 137 L76 157 Q76 180 75 187 Q73 187 70 186 Q52 184 29 180 Q27 182 29 184 Q94 201 112 215 ZM201 208 L228 197 Q231 196 229 194 L223 185 L223 60 L224 21 Q224 -9 194 -25 Q192 -26 191 -26 Q189 -25 190 -23 Q190 -10 182 -4 Q180 -3 181 -2 Q181 -1 183 -1 Q201 -2 199 9 L199 157 Q199 191 198 206 Q198 208 198 208 Q199 209 201 208 ZM159 166 L176 159 Q179 158 178 153 L176 58 Q175 44 161 33 Q155 30 155 34 L157 164 Q156 168 159 166 Z" /><glyph glyph-name="" unicode="&#x522b;" d="M68 131 Q62 119 57 115 Q51 112 51 116 L52 146 L52 180 Q52 185 51 194 Q51 199 51 201 Q51 204 53 202 L70 190 L119 192 L127 204 L148 192 Q150 190 148 189 L143 182 L143 145 Q144 136 132 122 Q127 116 123 121 Q122 123 120 127 Q117 131 116 133 L68 131 ZM76 126 L100 117 Q103 116 101 114 L98 107 Q98 104 97 98 Q97 93 97 91 L127 92 L139 105 L159 91 Q161 90 161 90 Q161 90 159 88 L152 79 Q152 74 151 59 Q149 18 148 15 Q144 -6 115 -22 Q112 -23 111 -20 Q113 -3 103 0 Q101 0 102 2 Q102 4 104 3 Q126 3 126 16 Q129 29 129 87 L96 85 Q94 13 6 -32 Q4 -33 3 -32 Q2 -30 4 -29 Q73 12 74 84 L55 83 Q54 83 53 83 Q38 81 34 79 L26 87 L75 90 Q75 95 76 101 Q76 102 76 107 Q75 122 76 126 ZM212 207 L237 196 Q239 195 237 193 L232 184 L232 23 Q234 -9 205 -23 Q203 -24 202 -24 Q201 -23 201 -21 Q202 -7 193 -2 Q192 -1 192 0 Q192 0 194 0 Q212 0 210 10 L211 156 Q210 190 210 205 Q210 208 212 207 ZM120 187 L69 184 L69 136 L119 139 L120 187 ZM178 164 L191 157 Q194 156 193 151 L192 59 Q190 43 180 33 Q176 30 174 34 L175 162 Q175 164 176 164 Q176 165 178 164 Z" /><glyph glyph-name="" unicode="&#x5230;" d="M62 185 Q44 185 34 182 L26 189 L124 191 L138 205 L153 190 Q155 187 152 187 L84 186 L102 173 Q104 172 102 170 Q88 158 54 124 Q80 125 123 127 Q120 139 108 152 Q106 154 109 154 Q142 140 148 127 Q153 109 137 102 Q130 100 127 108 Q126 116 124 122 Q117 121 104 118 Q90 114 84 113 L104 106 Q108 104 105 101 Q101 97 101 86 L101 69 L123 70 L136 83 L153 68 Q154 67 152 65 L101 64 L101 17 L157 26 Q159 27 158 24 L44 -16 Q39 -18 36 -14 L25 3 Q24 5 24 5 Q25 6 26 6 Q29 6 37 7 Q52 9 61 10 L79 13 L79 63 L64 63 Q61 63 56 62 Q43 62 37 60 L29 68 L79 69 L80 85 Q79 102 79 111 Q77 111 74 110 Q55 106 41 100 Q39 100 38 102 L29 121 Q29 124 30 123 Q38 123 42 123 Q62 151 79 185 L62 185 ZM205 209 L232 198 Q234 197 234 197 Q234 197 232 195 L227 186 L227 21 Q228 -10 197 -26 Q196 -27 195 -26 Q194 -26 194 -23 Q195 -11 186 -5 Q184 -3 185 -2 Q185 -1 187 -1 Q206 -4 204 8 L204 158 Q204 171 203 192 Q203 203 203 207 Q202 210 205 209 ZM169 170 L185 163 Q188 162 186 157 L185 62 Q185 48 172 37 Q166 34 166 38 L167 168 Q167 171 169 170 Z" /><glyph glyph-name="" unicode="&#x524d;" d="M110 145 L133 133 Q136 131 134 129 L129 121 L129 44 L130 9 Q129 -10 104 -25 Q100 -26 101 -23 Q101 -11 93 -8 Q92 -7 92 -6 Q92 -5 93 -5 Q106 -5 105 0 L104 123 Q104 127 100 128 L66 125 L66 94 L94 97 Q97 97 97 95 Q97 92 94 92 L66 89 L65 57 L94 59 Q97 59 97 57 Q97 55 94 54 L65 51 L65 5 Q65 -6 52 -23 Q49 -25 48 -25 Q46 -24 46 -22 L47 25 L48 110 Q48 118 47 130 Q47 136 47 137 Q47 140 49 139 L66 131 L100 133 L110 145 ZM189 154 L213 143 Q215 142 215 142 Q215 142 213 140 L210 131 L210 22 Q212 -9 182 -25 Q180 -26 179 -26 Q178 -25 178 -22 Q179 -10 170 -4 Q169 -3 169 -2 Q170 0 171 -1 Q189 -2 187 9 L188 103 Q187 137 187 152 Q186 155 189 154 ZM159 216 L185 203 Q187 202 185 200 L180 195 L165 167 L208 168 L222 183 L242 167 Q243 164 241 164 L51 159 Q33 158 23 156 L15 164 L84 166 L83 188 Q83 202 82 204 Q82 207 85 206 L105 197 Q106 197 106 194 L105 166 L145 167 L159 216 ZM154 131 L168 123 Q171 122 170 118 L169 58 Q168 45 156 34 Q151 30 150 35 L151 129 Q151 132 154 131 Z" /><glyph glyph-name="" unicode="&#x5251;" d="M201 209 L228 198 Q229 198 230 197 Q230 197 229 195 L223 187 L223 57 L224 18 Q224 -11 194 -29 Q192 -30 191 -29 Q189 -28 190 -26 Q190 -15 182 -7 Q180 -6 181 -5 Q181 -4 183 -4 Q201 -7 199 5 L199 159 Q199 198 198 207 Q198 209 198 209 Q199 210 201 209 ZM154 30 Q156 31 155 28 L45 -22 Q41 -25 38 -21 L21 -4 Q21 -4 21 -3 Q19 -1 22 -1 Q39 0 65 6 L88 13 Q110 65 120 112 L144 97 Q146 95 144 93 L138 86 Q121 54 96 14 L154 30 ZM10 93 Q7 91 8 95 Q52 141 82 213 L106 199 Q108 198 106 196 L101 192 Q100 191 99 189 Q97 187 96 186 Q141 167 145 158 Q145 145 136 137 Q129 132 126 143 Q116 169 94 184 Q59 137 10 93 ZM159 166 L176 159 Q179 158 178 153 L177 71 Q177 58 162 45 Q156 41 155 46 L157 164 Q156 168 159 166 ZM66 108 Q94 80 99 61 Q98 51 83 45 Q80 44 79 45 Q78 46 78 49 Q78 78 65 107 Q64 109 66 108 ZM39 91 Q61 63 67 43 Q67 35 53 27 Q49 26 48 27 Q47 28 47 33 Q47 64 38 89 Q37 91 39 91 ZM77 122 Q74 122 67 121 Q57 120 54 119 L48 125 L94 130 L103 141 L117 129 Q118 128 118 128 Q118 127 116 126 L77 122 Z" /><glyph glyph-name="" unicode="&#x529b;" d="M117 213 L143 204 Q146 203 144 201 L141 195 Q140 173 140 153 L193 154 L205 168 L229 153 Q232 152 230 150 L221 139 Q221 129 220 97 Q219 60 219 47 Q219 24 217 16 Q210 -9 178 -23 Q175 -24 175 -21 Q175 -4 167 0 Q165 1 165 2 Q165 4 167 3 Q190 1 190 20 Q194 66 195 148 L139 146 Q137 62 110 29 Q85 -6 8 -30 Q6 -31 6 -29 Q6 -27 7 -26 Q72 -2 93 32 Q116 65 118 145 L93 144 Q69 144 55 140 L46 150 L118 152 Q118 179 117 213 Z" /><glyph glyph-name="" unicode="&#x529d;" d="M216 165 L237 153 Q240 152 238 151 L231 142 Q231 66 226 27 Q222 -6 191 -22 Q188 -23 187 -20 Q190 -7 178 -1 Q176 0 179 0 Q203 -2 203 27 Q207 80 207 146 L181 145 L181 120 Q183 33 74 -34 Q70 -33 71 -31 Q159 31 160 121 L160 144 L154 144 Q149 144 139 142 Q134 141 132 141 L123 149 L160 150 L161 185 L159 211 Q158 214 160 214 L183 204 Q186 204 184 200 L182 194 L181 151 L206 152 L216 165 ZM122 48 Q120 42 112 32 Q111 31 110 30 Q104 26 101 33 Q92 53 80 71 Q55 27 5 -16 Q3 -17 3 -16 Q2 -15 3 -13 Q49 36 69 88 Q57 105 36 130 Q33 134 31 136 Q30 139 33 138 Q54 122 75 104 Q85 129 91 162 L33 159 Q30 159 29 162 Q28 165 31 166 L91 169 L102 183 L125 167 Q127 166 125 164 L116 154 Q107 120 91 89 Q104 78 121 59 Q125 55 122 48 Z" /><glyph glyph-name="" unicode="&#x529f;" d="M151 212 L174 202 Q177 200 175 197 L173 190 L173 156 L200 157 L210 170 L233 157 Q235 156 232 154 L225 145 L224 80 L225 26 Q225 0 195 -18 Q193 -19 192 -18 Q190 -17 191 -15 Q192 -3 183 1 Q182 2 182 3 Q182 4 184 4 Q202 4 200 16 L201 152 L173 151 L173 118 Q182 14 47 -32 Q43 -31 46 -27 Q158 17 152 118 L152 150 L147 150 Q133 150 124 147 L117 154 L152 155 L152 174 Q152 205 151 212 ZM23 165 Q19 168 23 171 L99 173 L112 187 L129 172 Q131 170 129 169 L85 168 L83 61 L130 78 Q134 79 132 76 L71 36 Q65 32 55 26 Q43 18 38 15 Q38 15 37 14 Q36 12 34 14 L16 35 Q13 38 16 39 Q35 42 56 51 L61 52 L60 167 L23 165 Z" /><glyph glyph-name="" unicode="&#x52a0;" d="M213 177 L235 164 Q237 164 235 162 L229 152 L230 50 L231 48 Q232 46 230 46 Q211 46 175 45 L175 16 Q174 0 161 -13 Q155 -16 155 -12 L156 44 L156 151 Q156 167 156 177 Q156 179 158 177 L176 165 L205 166 L213 177 ZM65 216 L87 206 Q90 204 88 201 L86 195 L86 162 L111 163 L121 176 L144 163 Q146 162 143 160 L136 150 L135 82 L136 29 Q138 0 106 -16 Q104 -17 103 -17 Q101 -16 102 -14 Q103 -1 94 3 Q92 4 93 5 Q93 6 95 6 Q113 6 111 18 L112 158 L86 157 L86 123 Q90 23 5 -27 Q0 -29 3 -25 Q42 7 53 35 Q66 64 66 123 L66 156 L54 156 Q46 156 31 153 L24 160 L66 162 L66 178 Q66 185 65 202 Q65 213 65 216 ZM176 161 L175 50 L206 51 L204 162 L176 161 Z" /><glyph glyph-name="" unicode="&#x52a1;" d="M95 215 L117 201 Q120 200 116 197 L111 192 Q108 187 104 184 L160 186 L175 199 L198 181 Q199 180 200 179 Q199 178 198 178 L187 171 Q184 168 177 163 Q154 143 142 135 Q168 122 248 103 Q250 103 250 102 Q250 100 248 100 Q234 98 216 78 Q156 99 127 126 Q90 102 23 76 Q21 75 20 76 Q19 77 21 79 Q78 107 116 138 Q104 153 93 171 Q70 146 39 122 Q37 121 36 122 Q35 123 36 124 Q72 163 92 214 Q92 215 93 216 Q93 216 95 215 ZM100 109 L125 100 Q127 99 125 97 L122 90 Q122 87 122 82 Q121 76 121 73 L165 76 L176 89 L200 74 Q202 72 200 70 L193 61 Q193 55 192 41 Q191 14 190 11 Q184 -10 152 -26 Q149 -27 149 -24 Q151 -8 141 -2 Q139 -2 140 0 Q140 0 142 0 Q164 0 163 13 Q166 24 166 70 L120 68 Q115 -3 7 -35 Q5 -36 4 -34 Q4 -32 6 -31 Q94 -4 98 67 L69 65 L49 63 L41 70 L99 72 Q99 74 100 78 Q100 82 100 84 Q100 97 100 109 ZM157 181 L99 178 Q98 175 95 174 Q108 157 124 145 Q139 158 157 181 Z" /><glyph glyph-name="" unicode="&#x52a8;" d="M160 212 L183 202 Q186 200 184 197 L182 191 L182 156 L206 157 L217 170 L239 157 Q241 156 239 154 L232 145 L230 80 L231 22 Q229 -3 201 -18 Q198 -20 197 -15 Q198 -3 189 1 Q188 2 188 3 Q188 4 190 4 Q208 4 206 16 L208 152 L182 151 L182 119 Q188 8 73 -32 Q71 -32 71 -30 Q70 -29 72 -28 Q124 -3 141 26 Q160 56 161 119 L161 150 L158 150 Q152 150 139 147 Q138 147 137 147 L129 154 L161 155 L161 174 Q161 205 160 212 ZM52 113 Q47 113 39 112 Q29 112 25 111 L17 117 L113 120 L125 132 L141 117 Q142 116 140 114 L71 113 L90 104 Q92 102 90 100 Q66 60 40 27 L102 39 Q98 54 90 63 Q89 66 92 65 Q125 42 129 27 Q129 14 114 7 Q106 4 106 13 Q106 25 103 36 Q72 23 30 2 Q26 1 25 0 Q22 -1 21 0 L13 21 Q12 24 14 24 Q26 24 29 27 Q48 52 63 113 L52 113 ZM68 174 Q50 174 40 172 L33 178 L96 180 L106 191 L121 178 Q123 177 121 175 L68 174 Z" /><glyph glyph-name="" unicode="&#x52a9;" d="M137 48 L138 46 Q88 25 37 0 Q34 -3 33 0 L23 19 Q22 22 23 23 Q27 23 34 25 Q39 26 42 26 L43 148 Q43 180 41 196 Q41 198 44 197 L65 185 Q66 184 66 184 L100 186 L108 197 L127 187 Q129 186 129 186 Q129 185 127 184 L120 175 L120 44 Q123 45 130 46 Q135 48 137 48 ZM213 164 L234 152 Q237 152 235 150 L229 141 Q229 136 228 123 Q226 53 223 27 Q219 -7 188 -23 Q184 -23 185 -21 Q187 -6 176 -2 Q175 -1 175 0 Q175 0 176 0 Q200 -3 200 27 Q204 78 204 145 L177 144 L177 122 Q181 30 93 -35 Q91 -35 90 -34 Q90 -33 91 -32 Q129 2 142 36 Q156 66 157 123 L158 143 L155 143 Q143 143 133 141 L124 148 L158 150 L158 185 L157 211 Q156 214 158 214 L179 206 Q181 205 179 202 L178 196 L177 150 L204 151 L213 164 ZM88 98 Q91 97 88 94 L61 92 L61 30 Q67 32 80 35 Q93 38 99 39 L99 181 L65 179 L60 173 L60 138 L88 140 Q92 137 88 135 L60 133 L61 97 L88 98 Z" /><glyph glyph-name="" unicode="&#x52c3;" d="M165 212 L187 202 Q190 200 188 197 L186 190 L186 156 L206 157 L216 170 L238 156 Q240 155 238 153 L231 144 L229 62 L229 23 Q229 -1 198 -18 Q196 -19 195 -19 Q194 -18 194 -16 Q197 -3 186 1 Q185 2 186 3 Q186 4 188 4 Q206 3 205 16 L208 152 L186 151 L186 119 Q193 7 59 -34 Q56 -34 58 -30 Q173 8 167 119 L167 151 L165 151 Q162 151 157 150 Q146 149 143 148 L137 155 L167 156 L167 174 Q167 180 166 193 Q166 208 165 212 ZM37 30 Q33 27 30 30 L19 49 Q18 52 20 52 Q42 55 75 64 Q75 70 74 81 Q74 91 74 95 Q74 97 76 96 L85 93 L98 115 L51 113 Q49 112 48 115 Q48 118 50 118 L99 120 L109 129 L126 114 Q127 113 127 111 Q126 110 124 110 Q117 111 88 92 L93 90 Q96 89 95 87 Q95 80 95 69 Q118 75 140 82 Q142 82 142 81 Q142 80 141 79 Q124 72 97 60 Q96 59 95 59 Q95 26 94 16 Q92 -3 66 -17 Q64 -18 64 -17 Q63 -16 64 -14 Q64 -2 56 0 Q55 1 55 2 Q55 3 57 3 Q75 0 74 14 Q75 32 75 50 Q49 38 37 30 ZM60 173 Q43 173 34 169 L27 177 L74 179 L74 188 L74 214 L98 206 Q100 206 98 202 Q95 199 95 193 L94 179 L119 180 L129 192 L144 178 Q146 176 143 176 L94 174 L94 145 L119 147 L130 156 L151 136 Q153 131 148 130 Q132 131 119 124 Q116 122 117 125 L121 142 L46 137 Q39 113 24 100 Q19 98 19 101 Q16 115 18 120 Q34 134 33 148 Q33 150 34 150 Q34 151 36 150 Q40 148 46 143 L75 144 L74 174 L60 173 Z" /><glyph glyph-name="" unicode="&#x52c9;" d="M124 79 L120 74 L109 16 Q106 3 119 4 Q163 1 211 7 Q223 7 226 26 Q227 28 229 28 Q231 27 230 25 Q228 12 238 6 Q253 -9 226 -16 Q175 -21 117 -16 Q93 -9 95 19 L100 87 L95 87 Q89 20 4 -31 Q2 -32 2 -30 Q2 -28 3 -27 Q68 15 75 86 L56 86 Q54 77 43 67 Q38 65 38 68 L39 124 Q39 140 38 146 Q32 139 20 129 Q17 127 18 131 Q51 171 62 211 Q63 216 66 214 L87 201 Q89 200 87 197 Q80 188 70 178 L94 179 L102 187 L122 173 Q124 172 122 170 L114 165 Q104 157 84 144 Q85 145 81 142 L118 143 L129 155 L149 141 Q150 141 150 138 L144 131 L143 91 L145 88 Q145 87 144 87 Q132 87 108 87 L124 79 ZM173 209 L192 200 Q195 199 193 197 L191 192 L190 157 L206 158 L214 168 L232 157 Q233 156 234 155 Q233 154 232 154 L227 147 L225 90 L225 55 Q223 35 198 22 Q196 21 196 24 Q197 34 189 38 Q187 41 190 40 Q203 40 203 49 L206 153 L190 152 L190 124 Q194 58 119 10 Q116 11 118 14 Q176 57 173 125 L173 152 Q163 152 156 150 L148 157 L173 157 L174 180 Q173 189 173 209 ZM66 173 Q63 170 56 163 Q47 154 42 150 L57 141 L75 142 Q88 163 93 174 L66 173 ZM76 92 Q78 112 79 137 L57 136 L56 91 L76 92 ZM99 137 Q99 112 96 92 L119 93 L120 137 L99 137 Z" /><glyph glyph-name="" unicode="&#x52d0;" d="M214 164 L236 152 Q238 151 236 150 L230 141 Q230 135 229 117 Q227 51 225 26 Q220 -8 190 -23 Q188 -24 187 -23 Q186 -22 187 -21 Q190 -8 178 -2 Q177 -1 177 0 Q177 0 178 0 Q202 -3 202 26 Q206 79 206 145 L185 144 L184 122 Q191 29 96 -34 Q94 -35 93 -34 Q93 -32 94 -31 Q131 1 145 27 L75 3 Q41 -8 30 -14 Q27 -17 26 -14 L8 7 Q12 8 19 8 Q26 9 30 9 L29 66 L28 90 Q28 92 30 91 L46 82 L108 83 L116 95 L136 83 Q138 82 136 80 L131 72 L130 27 L148 31 Q164 61 165 122 L165 143 Q158 141 150 141 L141 148 L165 149 L165 185 L164 211 Q163 214 165 214 L186 206 Q189 206 187 202 L185 196 L185 150 L205 151 L214 164 ZM26 139 L18 147 L75 148 Q73 157 73 166 Q72 169 75 168 L90 165 L108 194 L59 193 Q54 193 42 190 L34 197 L109 199 L119 207 L136 194 Q139 191 133 189 Q123 186 93 163 Q93 161 93 157 Q94 152 94 149 L111 150 L123 163 L139 148 Q141 147 138 145 L95 144 Q95 129 93 113 Q91 97 66 84 Q64 83 62 84 Q61 85 62 87 Q62 97 56 101 Q53 103 56 103 Q71 101 71 106 Q77 119 75 143 L48 142 Q33 142 26 139 ZM46 12 Q48 12 51 13 Q54 13 55 13 L58 14 L57 77 L46 77 L46 12 ZM109 78 L98 78 L98 21 L109 23 L109 78 ZM73 77 L72 16 L83 18 L82 78 L73 77 Z" /><glyph glyph-name="" unicode="&#x52d2;" d="M45 173 Q28 173 17 172 L10 178 L48 178 L47 204 Q47 207 49 206 L66 199 Q67 199 67 196 L66 178 L94 179 L93 213 Q92 216 94 215 L114 206 Q115 206 115 203 L113 179 L127 179 L137 191 L151 178 Q152 177 152 176 Q152 175 150 175 L113 174 L112 154 L115 149 Q118 146 114 145 Q104 145 82 145 L91 141 Q94 140 93 134 L93 117 L113 117 L122 128 L141 117 Q143 116 141 114 L136 107 L137 72 L138 70 Q139 69 138 68 Q135 68 125 68 Q105 69 92 69 L92 50 L92 42 L124 42 L136 55 L152 41 Q154 38 151 38 L92 37 L93 11 Q93 -3 78 -21 Q77 -24 73 -23 Q70 -22 71 -19 L72 37 L41 36 Q26 36 14 34 L7 40 L72 41 L73 46 L73 69 Q62 68 50 68 Q48 60 39 52 Q36 50 35 50 Q33 51 33 53 L34 84 L34 98 Q33 107 33 124 Q33 125 35 125 L53 116 L73 116 L73 145 L64 145 L63 134 Q62 131 61 131 Q60 131 59 132 Q51 137 50 142 L48 173 L45 173 ZM165 213 L187 202 Q190 201 188 198 L186 191 L186 156 L206 157 L216 170 L238 157 Q240 156 238 154 L231 145 L230 80 L230 22 Q230 -2 201 -18 Q199 -19 198 -18 Q196 -17 197 -15 Q197 -3 188 1 Q186 4 189 4 Q207 4 206 16 L207 152 L186 151 L186 118 Q195 1 83 -34 Q80 -34 82 -30 Q134 -7 149 21 Q165 47 166 118 L166 150 L163 150 Q151 150 141 148 L135 154 L166 156 L166 174 Q166 206 165 213 ZM51 111 L51 73 L73 73 L73 108 L73 112 L51 111 ZM113 112 L93 112 L92 73 L113 74 L113 112 ZM94 151 L94 174 L65 174 L64 150 L94 151 Z" /><glyph glyph-name="" unicode="&#x52e4;" d="M47 174 Q29 174 19 171 L12 179 L50 179 L49 205 Q49 208 50 207 L68 200 Q69 200 69 197 L68 180 L97 180 L96 212 Q96 214 98 213 L118 205 Q120 205 119 202 L118 180 L128 181 L140 194 L156 179 Q157 178 157 177 Q157 176 155 176 L118 175 L116 154 L120 149 Q123 146 119 145 Q117 145 111 145 Q95 146 81 145 L97 139 L94 134 L94 121 L117 122 L124 132 L143 123 Q145 122 143 120 L138 112 L139 86 L140 83 Q141 82 139 82 Q122 82 93 82 L93 62 L116 62 L127 73 L140 60 Q142 58 140 58 L93 57 L92 36 L117 37 L129 48 L142 35 Q144 33 141 33 L92 31 L92 8 L141 16 Q143 15 141 14 L75 -8 Q58 -14 41 -23 Q38 -25 37 -22 L26 -3 Q25 -2 25 -1 Q25 0 26 0 Q31 0 39 0 Q47 1 52 1 L75 5 L74 30 L61 30 Q58 30 53 29 Q41 29 38 27 L31 34 L74 35 L74 56 L63 56 Q49 56 40 54 L34 60 L74 61 L74 81 Q63 81 49 80 Q48 74 39 68 Q37 66 35 67 Q34 67 34 69 L34 108 Q34 119 34 126 Q33 128 35 127 L51 120 L50 86 L74 86 L74 115 L55 115 L55 120 L74 120 L74 145 L66 145 L65 134 Q65 132 64 131 Q62 131 61 132 Q53 137 52 142 L50 174 L47 174 ZM168 212 L190 202 Q193 200 191 197 L189 191 L189 156 L208 157 L219 170 L241 157 Q243 156 241 154 L234 145 L232 80 L233 22 Q231 -4 204 -18 Q202 -19 201 -19 Q199 -18 200 -16 Q201 -3 192 1 Q190 2 191 3 Q191 4 193 4 Q211 4 209 16 L210 152 L189 151 L189 119 Q198 2 86 -33 Q83 -33 85 -29 Q137 -6 152 22 Q168 48 169 119 L169 151 L166 151 Q164 151 161 150 Q148 149 144 148 L137 155 L169 156 L169 174 Q169 205 168 212 ZM98 152 L97 175 L67 174 L66 151 L98 152 ZM118 117 L94 116 L93 87 L118 88 L118 117 Z" /><glyph glyph-name="" unicode="&#x5300;" d="M11 93 Q8 92 8 93 Q7 94 9 96 Q74 147 104 213 L125 198 Q127 195 124 193 L119 190 Q115 185 106 175 Q101 170 99 167 L202 169 L213 183 L235 168 Q237 167 235 165 L227 154 L225 66 L225 33 Q224 -8 184 -28 Q181 -30 180 -27 Q182 -11 169 -4 Q167 -1 170 -1 Q204 -3 201 33 L203 164 L93 161 Q67 133 11 93 ZM180 72 Q185 73 182 70 L108 35 Q79 21 71 14 Q68 13 66 14 L48 39 Q47 40 47 41 Q47 42 48 42 Q65 43 94 50 L180 72 ZM89 128 Q131 116 133 106 Q134 95 123 85 Q115 82 112 90 Q101 113 88 126 Q86 129 89 128 Z" /><glyph glyph-name="" unicode="&#x5305;" d="M149 65 Q127 67 82 64 L81 23 Q79 5 95 7 Q120 6 159 7 Q200 8 218 11 Q231 13 238 35 Q238 37 240 36 Q242 36 242 34 Q240 17 246 12 Q259 0 241 -10 Q227 -15 182 -16 Q126 -18 95 -15 Q61 -11 63 41 L64 135 Q64 138 66 137 L83 126 L125 128 L134 139 L154 129 Q156 129 154 127 L149 120 L148 74 L151 68 Q152 65 149 65 ZM5 93 Q2 92 2 93 Q1 94 3 96 Q69 148 98 213 L119 198 Q121 195 118 193 L113 190 Q109 185 100 175 Q95 170 93 167 L186 169 L197 182 L217 169 Q219 168 217 166 L210 157 L208 86 Q207 43 168 23 Q165 21 164 24 Q166 40 154 47 Q152 48 153 49 Q153 50 155 50 Q187 48 185 86 L187 164 L87 161 Q61 133 5 93 ZM83 121 L82 70 L125 72 L126 123 L83 121 Z" /><glyph glyph-name="" unicode="&#x5316;" d="M212 169 L233 154 Q236 152 231 150 L227 147 Q193 116 161 95 L157 24 Q155 9 171 10 Q193 9 215 14 Q229 16 236 38 Q237 40 238 40 Q239 40 239 38 Q238 19 243 13 Q258 -1 239 -11 Q213 -20 170 -15 Q138 -12 139 31 L140 82 Q121 70 100 58 Q96 58 98 60 Q102 63 110 69 Q122 78 140 92 L142 169 Q142 176 141 187 Q141 195 140 205 Q140 208 142 207 L169 195 Q171 194 169 191 L165 186 L161 111 Q196 143 212 169 ZM5 67 Q4 66 2 67 Q1 68 2 69 Q71 145 95 217 L118 204 Q120 203 118 200 L114 196 Q100 173 85 152 L88 1 Q84 -15 72 -27 Q69 -29 68 -29 Q67 -29 67 -26 L68 41 L68 131 Q51 110 13 74 Q8 69 5 67 Z" /><glyph glyph-name="" unicode="&#x5317;" d="M217 174 L235 152 Q238 148 233 146 Q227 143 204 130 Q178 115 162 107 L159 33 Q156 13 175 13 Q200 13 216 16 Q230 17 236 41 Q237 43 239 42 Q240 42 240 40 Q239 23 244 20 Q258 4 240 -4 Q213 -15 172 -10 Q139 -5 140 38 L142 173 Q142 183 141 199 Q141 206 141 209 Q141 212 143 211 L169 197 Q170 197 171 196 Q170 195 169 194 L166 189 L163 114 Q196 145 217 174 ZM106 2 Q103 -9 94 -22 Q90 -25 88 -25 Q86 -24 86 -20 L87 31 L87 72 Q54 43 30 17 Q25 10 18 12 Q12 14 15 21 Q24 36 22 47 Q27 37 87 79 L88 138 L56 135 Q37 135 28 132 L21 139 L88 143 L89 171 L88 207 L109 198 Q112 197 110 194 L108 189 L105 43 L106 2 Z" /><glyph glyph-name="" unicode="&#x533a;" d="M45 202 L74 188 L74 187 L188 189 L203 203 L221 187 Q223 184 220 184 L71 181 L69 177 L66 1 L198 2 L215 20 L235 1 Q237 0 234 0 L66 -2 Q60 -17 49 -25 Q45 -26 42 -23 L45 41 L45 165 Q45 195 44 201 Q45 203 45 202 ZM169 179 L193 163 Q196 162 193 158 L188 152 Q176 125 158 99 Q159 98 161 97 Q192 69 200 60 Q204 57 201 47 Q196 35 187 28 Q182 26 179 33 Q170 49 146 82 Q115 43 74 10 Q72 9 71 10 Q71 11 72 13 Q107 42 135 95 Q108 130 88 150 Q86 152 86 153 Q87 154 90 153 Q94 150 102 143 Q128 123 143 111 Q161 148 169 179 Z" /><glyph glyph-name="" unicode="&#x5341;" d="M55 112 Q52 112 46 111 Q32 111 27 109 L18 118 L115 120 L115 170 L114 215 L146 207 Q148 206 146 204 Q143 201 141 194 L141 120 L204 122 L220 140 L241 119 Q243 116 240 116 L141 114 L141 39 L142 -1 Q137 -19 119 -31 Q115 -32 114 -27 L116 33 L115 113 L55 112 Z" /><glyph glyph-name="" unicode="&#x5343;" d="M144 171 L142 159 L142 107 L204 108 L222 125 L243 105 Q245 104 242 102 L142 101 L141 46 L142 0 Q138 -19 119 -28 Q116 -30 114 -24 L116 50 L116 100 L48 99 Q30 98 21 96 L12 105 L116 107 L117 147 Q117 153 116 162 Q116 173 115 177 Q109 176 97 175 Q87 174 49 170 Q46 170 46 171 Q45 172 47 174 Q129 185 177 215 L197 194 Q200 191 195 189 Q170 185 127 179 L142 174 Q142 174 143 173 Q144 173 144 171 Z" /><glyph glyph-name="" unicode="&#x534e;" d="M91 134 Q90 134 90 135 Q90 136 91 137 Q113 145 134 154 L134 211 Q134 214 136 212 L157 201 Q159 200 157 197 Q154 194 152 185 L152 164 Q182 180 206 202 L219 185 Q219 184 219 184 Q220 183 218 182 L213 180 Q181 161 151 151 L151 131 Q150 119 159 119 Q186 118 211 123 Q222 126 228 141 Q229 142 230 142 Q231 142 231 140 Q227 125 236 120 Q243 116 242 110 Q240 104 232 101 Q202 91 165 96 Q134 101 134 133 L134 146 Q113 139 91 134 ZM143 87 L140 76 L140 57 L207 58 L224 76 L244 56 Q245 54 243 54 L140 52 L140 36 L140 -1 Q137 -19 117 -31 Q113 -32 113 -26 L115 31 L115 51 L51 51 Q30 50 20 47 L13 56 L115 57 L115 69 L115 101 L141 90 Q143 90 143 87 ZM6 102 Q3 100 4 104 Q52 148 81 217 L100 203 Q103 201 100 199 L97 195 Q90 184 82 175 L83 99 Q82 84 71 72 Q69 70 67 70 Q65 70 65 73 L66 135 L66 156 Q49 137 10 105 Q7 103 6 102 Z" /><glyph glyph-name="" unicode="&#x5353;" d="M80 77 Q75 66 65 59 Q60 57 59 63 L60 139 Q60 142 59 150 Q59 155 59 157 Q59 159 62 158 L80 148 L113 148 L114 171 L112 213 L142 206 Q145 206 142 202 Q139 201 137 193 L137 179 L195 180 L208 195 L226 178 Q228 177 226 175 L137 173 L137 149 L173 150 L181 162 L205 151 Q207 150 206 148 L200 139 L201 91 Q200 77 186 65 Q179 60 178 66 Q173 76 170 79 L138 78 L137 48 L206 50 L223 67 L244 48 Q245 46 242 45 L137 42 L137 30 L138 0 Q136 -16 118 -30 Q113 -32 112 -27 L113 16 L113 42 L55 41 Q36 40 27 37 L17 46 L114 48 L114 78 L80 77 ZM174 145 L81 143 L80 116 L166 119 Q169 119 169 117 Q168 115 166 114 L80 112 L80 82 L173 84 L174 145 Z" /><glyph glyph-name="" unicode="&#x5355;" d="M154 214 L176 200 Q178 200 176 197 L170 193 L138 163 L173 164 L182 176 L204 164 Q206 164 205 162 L200 153 L200 125 L201 98 Q200 86 188 73 Q183 69 180 73 Q174 83 171 86 L138 86 L138 52 L208 53 L225 69 L242 52 Q243 49 241 49 L138 47 L138 42 L139 -1 Q135 -17 124 -28 Q116 -35 115 -28 L116 46 L49 45 Q30 44 21 42 L15 50 L116 51 L116 85 L79 84 Q73 74 66 69 Q60 66 59 71 L60 114 L60 153 L59 172 Q58 175 61 173 L79 162 L131 163 L154 214 ZM174 159 L138 158 L138 129 L164 129 Q166 130 166 127 Q165 125 163 125 L138 125 L138 90 L174 91 L174 159 ZM79 123 L79 89 L116 90 L116 124 L79 123 ZM79 157 L79 127 L116 128 L116 158 L79 157 ZM80 207 Q112 196 111 189 Q112 178 102 173 Q96 170 94 176 Q89 196 79 205 Q78 207 80 207 Z" /><glyph glyph-name="" unicode="&#x5357;" d="M51 167 Q31 166 23 163 L14 173 L115 175 L119 214 L146 204 Q148 202 146 200 Q142 197 140 190 L138 175 L209 177 L224 194 L244 175 Q246 174 244 172 L137 169 L133 137 L187 138 L198 152 L220 138 Q222 137 220 135 L213 126 L213 45 L214 10 Q215 -13 186 -28 Q184 -29 184 -27 Q184 -12 175 -8 Q172 -6 175 -4 Q190 -6 189 0 L188 133 L67 130 L67 3 Q65 -13 52 -27 Q49 -30 47 -29 Q45 -28 45 -25 L46 34 L46 120 L46 146 Q46 148 48 147 L67 135 L111 136 L114 169 L51 167 ZM147 130 L169 119 Q171 118 171 118 Q171 117 169 116 L165 112 L142 89 L154 89 L164 100 L177 88 Q178 86 176 85 L138 84 L138 51 L159 51 L170 61 L184 49 Q185 47 183 47 L138 46 L138 31 L139 7 Q136 -6 123 -20 Q115 -24 115 -16 L116 23 L116 46 L76 45 Q73 45 73 48 Q73 50 76 50 L116 51 L117 84 L84 83 Q81 83 81 85 Q80 88 83 88 L100 88 Q98 106 95 122 Q94 124 96 123 L114 119 Q117 118 116 115 L115 89 L136 89 L147 130 Z" /><glyph glyph-name="" unicode="&#x535a;" d="M153 215 L176 206 Q179 206 177 204 L174 197 L174 182 L214 183 L227 196 L242 182 Q243 180 241 179 L174 177 L173 158 L199 159 L208 168 L229 156 Q231 155 228 153 L223 145 L225 100 Q221 85 207 73 Q202 71 202 74 L200 154 L173 153 L173 134 L194 135 Q197 135 197 133 Q197 131 195 130 L173 130 L173 127 L173 113 L195 113 Q197 113 198 111 Q198 110 196 109 L174 108 L174 100 Q172 87 159 73 Q156 71 155 71 Q153 72 153 74 L154 107 L129 106 L129 91 Q128 82 118 70 Q116 67 114 67 Q112 67 112 70 L113 103 L113 166 L132 157 L154 157 L154 177 L136 176 Q120 176 107 174 L99 181 L154 182 L154 183 L153 215 ZM45 145 Q42 145 36 144 Q23 144 18 142 L9 150 L51 151 L51 176 L50 210 Q50 213 50 213 Q51 214 52 213 L72 204 Q73 203 73 201 L70 195 L70 152 L82 152 L94 165 L111 150 Q112 148 110 147 Q110 148 109 147 L70 146 L69 48 L70 3 Q66 -15 53 -28 Q50 -30 49 -29 Q47 -28 47 -25 L50 52 L51 145 L45 145 ZM133 50 Q109 49 100 46 L93 54 L177 57 L176 77 Q176 80 179 79 L198 72 Q201 71 201 67 L200 57 L217 58 L231 71 L247 56 Q248 53 246 53 L200 51 L198 2 Q197 -18 172 -29 Q170 -30 170 -28 Q169 -14 162 -10 Q161 -10 161 -9 Q161 -7 162 -7 Q179 -9 178 0 L177 51 L133 50 ZM118 40 Q147 32 151 22 Q150 12 142 8 Q134 4 131 11 Q128 30 117 37 Q115 40 118 40 ZM129 152 L129 133 L154 134 L154 152 L129 152 ZM154 112 L154 119 L154 129 L129 128 L129 111 L154 112 ZM189 211 Q210 206 210 196 Q210 188 202 187 Q195 186 194 191 Q195 207 188 210 Q186 211 189 211 Z" /><glyph glyph-name="" unicode="&#x5361;" d="M50 104 Q39 104 24 101 Q23 101 22 101 L15 111 L108 113 L108 174 L107 216 L137 209 Q140 208 137 205 Q134 203 132 195 L132 168 L184 169 L200 184 L216 167 Q218 165 216 165 L132 163 L132 113 L202 114 L221 132 L240 112 Q241 110 238 109 L123 106 L134 102 Q135 101 135 99 L134 87 L133 31 L134 0 Q130 -22 111 -31 Q107 -31 107 -25 L108 16 L109 77 Q109 98 108 106 L50 104 ZM156 74 Q207 58 214 45 Q214 31 202 22 Q197 17 191 26 Q177 52 155 71 Q154 72 154 73 Q154 74 156 74 Z" /><glyph glyph-name="" unicode="&#x5362;" d="M129 213 L156 203 Q159 202 157 199 Q153 196 153 188 L152 175 L207 177 L219 189 L234 175 Q236 173 234 173 L152 170 L150 141 L189 141 L200 153 L220 139 Q223 138 221 135 L215 128 L216 81 L217 77 Q218 75 216 75 Q204 76 117 74 Q102 73 96 73 Q94 6 5 -32 Q2 -33 1 -32 Q1 -31 3 -29 Q47 -5 61 20 Q77 47 76 97 L76 123 L75 152 L98 140 L128 140 L129 213 ZM97 96 Q97 87 97 79 L189 81 L189 136 L98 134 L97 133 L97 96 Z" /><glyph glyph-name="" unicode="&#x5367;" d="M106 65 L104 65 L103 5 L124 5 L138 20 L156 3 Q156 1 155 1 L57 0 Q53 -15 42 -25 Q36 -28 35 -24 L37 33 L38 175 Q38 180 37 193 Q37 199 37 201 Q37 202 40 202 L58 189 L58 188 L121 190 L133 202 L150 187 Q152 186 150 185 L90 184 L106 179 Q107 179 108 178 Q107 177 106 176 L105 170 L104 132 L117 133 L126 144 L146 132 Q149 131 146 128 L140 121 L140 69 L141 67 Q143 64 140 64 Q129 65 106 65 ZM187 201 L184 189 L184 29 L185 0 Q182 -17 165 -29 Q162 -30 162 -24 L162 17 L163 172 Q163 202 161 215 L186 204 Q187 204 187 201 ZM117 127 L58 125 L57 70 L116 71 L117 127 ZM57 65 L57 4 L85 4 L85 65 L57 65 ZM85 158 L84 184 L58 184 L58 131 L85 132 L85 158 ZM193 138 Q239 116 244 103 Q246 92 230 79 Q224 74 221 83 Q213 119 191 136 Q190 139 193 138 Z" /><glyph glyph-name="" unicode="&#x536b;" d="M124 174 L123 155 L120 -1 L211 0 L227 14 L246 -2 Q248 -4 245 -4 L43 -7 Q24 -9 15 -10 L8 -2 L99 -1 L99 145 Q99 166 97 185 L66 185 Q48 185 36 182 L27 190 L189 192 L200 206 L221 194 Q223 193 221 190 L214 180 L212 116 L213 86 Q212 64 184 49 Q181 49 181 51 Q182 64 172 70 Q170 71 173 72 Q189 72 189 77 L189 186 L105 185 L122 179 Q124 178 124 174 Z" /><glyph glyph-name="" unicode="&#x5370;" d="M143 191 L164 179 L203 180 L210 193 L232 183 Q234 183 232 180 L227 172 L228 104 L228 73 Q229 52 201 39 Q201 54 191 59 Q189 62 192 62 Q205 59 205 66 L205 175 L163 174 L163 5 Q162 -14 146 -29 Q139 -33 139 -28 L141 25 L142 160 Q142 178 140 190 Q140 192 143 191 ZM125 79 L127 76 L39 14 Q35 11 33 14 L15 28 L41 40 L39 160 L37 194 Q36 196 37 197 Q38 197 40 196 L63 181 L61 128 L96 129 L110 143 L126 127 Q127 125 124 125 L60 123 L57 48 L125 79 ZM109 212 L130 191 Q131 188 128 188 Q118 186 92 183 Q76 181 68 180 L67 182 Q94 195 109 212 Z" /><glyph glyph-name="" unicode="&#x5373;" d="M84 70 Q129 45 134 34 Q137 20 123 7 Q116 3 114 10 Q109 30 102 41 L36 -12 Q35 -14 33 -12 L22 3 Q20 5 23 6 L36 13 L35 174 L34 201 Q34 203 35 203 Q35 204 37 202 L56 190 L101 191 L110 202 L130 190 Q133 188 131 186 L124 178 L124 103 L126 100 Q127 97 124 98 Q122 98 115 98 Q81 99 55 97 L54 20 L100 45 Q93 57 83 67 Q82 69 84 70 ZM212 199 L232 187 Q234 186 232 184 L227 176 L227 104 L228 72 Q224 52 200 39 Q198 39 198 41 Q198 55 191 59 Q190 61 191 62 Q205 62 205 66 L203 183 L166 182 L166 171 L166 50 L167 8 Q167 -11 152 -31 Q149 -34 147 -33 Q145 -32 145 -29 L146 35 L146 161 Q146 166 145 175 Q145 197 143 204 L166 192 L166 186 L203 188 L212 199 ZM94 148 L55 147 L55 103 L100 104 L101 186 L56 185 L55 151 L94 152 Q96 152 96 150 Q96 148 94 148 Z" /><glyph glyph-name="" unicode="&#x5382;" d="M68 195 Q68 198 70 197 L96 183 L207 185 L223 201 L241 184 Q243 181 240 181 L93 177 L93 114 Q98 32 5 -32 Q3 -32 3 -30 Q3 -29 5 -28 Q42 3 56 37 Q69 69 69 127 L69 164 L68 195 Z" /><glyph glyph-name="" unicode="&#x5386;" d="M131 177 L158 167 Q160 167 158 164 L155 157 Q156 150 155 137 Q155 131 155 128 L194 129 L206 143 L230 127 Q232 125 230 123 L222 113 Q220 36 217 16 Q212 -5 180 -21 Q177 -22 176 -19 Q177 -3 169 1 Q167 2 167 3 Q167 5 169 5 Q192 4 191 18 Q193 25 194 61 Q196 105 195 123 L155 122 Q159 22 49 -33 Q47 -34 46 -33 Q46 -30 48 -29 Q136 16 133 122 L128 122 Q127 122 124 122 Q106 120 102 119 L94 126 L133 127 Q133 138 133 148 L131 177 ZM68 202 Q67 205 69 204 L93 193 L206 195 L220 211 L240 194 Q242 191 239 191 L91 187 L91 120 Q97 42 5 -21 Q3 -22 3 -20 Q3 -18 5 -17 Q44 15 57 47 Q70 77 69 133 L69 172 L68 202 Z" /><glyph glyph-name="" unicode="&#x539f;" d="M121 81 Q118 74 110 68 Q105 65 104 69 L105 99 L105 138 Q105 142 104 151 Q104 158 104 160 Q104 163 106 161 L121 153 L133 154 Q141 170 146 191 L87 189 L87 119 Q92 38 5 -21 Q3 -22 3 -20 Q3 -18 5 -17 Q42 14 54 44 Q66 73 64 132 L64 174 L62 205 Q62 207 64 206 L88 195 L203 197 L217 214 L237 196 Q238 194 235 193 L153 191 L170 183 Q173 181 170 179 Q162 175 138 154 L191 156 L199 167 L222 156 Q224 156 222 154 L218 147 L217 91 L219 85 Q220 83 220 83 Q219 82 218 82 Q207 84 186 82 L171 82 L170 32 L171 8 Q171 -14 143 -27 Q140 -27 140 -25 Q140 -12 132 -7 Q130 -6 130 -5 Q130 -4 132 -4 Q150 -5 148 0 L149 82 L121 81 ZM193 151 L122 148 L122 122 L180 124 Q183 125 183 122 Q183 120 180 120 L122 118 L122 86 L192 88 L193 151 ZM136 52 Q138 51 136 49 Q107 14 66 -22 Q61 -24 64 -20 Q99 21 115 64 L136 52 ZM186 60 Q227 43 232 28 Q231 18 221 9 Q213 4 210 12 Q202 42 185 58 Q185 60 186 60 Z" /><glyph glyph-name="" unicode="&#x53a2;" d="M154 164 Q154 166 156 165 L173 154 L204 155 L213 167 L231 156 Q233 156 231 154 L226 145 L225 45 L226 10 Q226 -2 211 -23 Q206 -27 205 -22 Q202 -3 197 4 L172 2 Q170 -11 160 -25 Q155 -29 154 -24 L155 43 L155 117 Q155 158 154 164 ZM105 182 L127 170 Q129 170 127 168 L123 161 L122 129 L128 129 L140 141 L153 127 Q154 125 152 124 L122 123 L122 99 Q145 90 147 82 Q147 73 139 67 Q134 63 132 70 Q129 86 122 95 L122 38 L123 -4 Q119 -17 108 -29 Q105 -32 104 -32 Q102 -31 102 -28 L103 43 L103 71 Q87 41 54 2 Q53 1 52 2 Q50 3 51 5 Q84 49 102 122 Q90 122 80 120 L76 125 L76 116 Q76 64 62 38 Q49 10 4 -29 Q2 -29 2 -27 Q1 -26 3 -25 Q38 11 46 38 Q56 63 55 129 L54 169 L53 200 Q52 203 55 202 L78 191 L208 193 L222 208 L242 191 Q243 189 240 189 L76 185 L76 127 L104 128 L104 129 L104 146 Q104 170 104 181 Q104 182 105 182 ZM198 63 Q201 61 198 59 L172 57 L171 7 L200 9 Q203 10 203 16 L204 151 L174 150 L172 143 L172 106 L198 108 Q201 106 198 103 L172 102 L172 62 L198 63 Z" /><glyph glyph-name="" unicode="&#x53a6;" d="M128 160 Q111 161 102 158 L96 164 L206 168 L217 179 L232 165 Q234 163 231 163 L156 161 L166 153 Q168 152 168 152 Q168 152 166 150 L158 140 L187 141 L194 150 L215 140 Q216 139 216 137 L212 130 L212 95 Q212 83 200 71 Q195 66 191 71 Q190 72 189 75 Q187 79 184 82 L125 79 Q123 73 115 67 Q111 64 110 68 L110 124 Q110 128 109 135 Q109 140 109 142 Q109 145 111 144 L125 138 L143 139 Q146 149 148 161 L128 160 ZM76 12 Q74 12 74 14 Q110 48 125 72 L140 60 Q141 58 139 58 L136 55 Q135 54 134 54 L190 57 L202 68 L222 53 Q224 52 224 52 Q224 51 222 50 L213 44 Q194 26 168 11 Q195 -2 251 -10 Q252 -10 253 -12 Q252 -13 251 -13 Q236 -12 217 -33 Q179 -20 153 3 Q112 -17 65 -34 Q63 -35 61 -34 Q60 -33 62 -31 Q110 -9 143 13 Q131 28 125 46 Q103 31 76 12 ZM61 200 Q60 202 63 202 L85 188 L206 191 L221 206 L239 190 Q241 187 238 187 L86 183 L86 114 Q89 27 6 -31 Q3 -32 2 -31 Q2 -30 4 -28 Q39 1 51 34 Q63 63 62 127 L62 170 L61 200 ZM187 136 L124 134 L124 120 L170 122 Q173 122 173 120 Q173 118 170 118 L124 115 L124 102 L170 104 Q172 104 172 102 Q172 100 169 100 L125 98 L125 84 L187 87 L187 136 ZM187 52 L127 48 Q136 33 153 20 Q174 35 187 52 Z" /><glyph glyph-name="" unicode="&#x53bf;" d="M150 44 Q197 15 203 0 Q206 -11 187 -23 Q181 -25 180 -18 Q177 -6 172 2 Q112 -6 58 -23 Q54 -26 53 -22 L46 -1 Q46 1 47 0 Q59 0 64 5 Q84 26 103 59 L51 58 Q33 57 24 54 L16 62 L78 64 L78 173 L77 206 L97 196 L155 199 L163 210 L185 198 Q185 198 186 198 Q187 197 185 195 L178 184 L178 67 L209 68 L225 83 L242 67 Q245 64 241 63 L111 59 L128 48 Q130 46 127 44 Q109 33 74 2 L170 8 Q161 27 148 42 Q147 45 150 44 ZM97 191 L97 152 L143 155 Q146 155 146 153 Q146 152 144 150 L97 147 L97 112 L145 115 Q147 115 148 113 Q148 111 146 110 L97 108 L97 64 L154 66 L155 194 L97 191 Z" /><glyph glyph-name="" unicode="&#x53cb;" d="M103 214 L134 201 Q136 201 136 200 Q136 200 134 198 L129 193 Q125 177 122 162 L202 163 L219 179 L239 161 Q240 158 238 158 L120 156 Q114 134 106 115 L180 117 L191 130 L214 115 Q216 113 213 112 L206 105 Q190 68 161 38 Q196 11 244 -1 Q246 -2 246 -3 Q247 -5 245 -5 Q224 -7 206 -29 Q164 -1 146 24 Q108 -8 52 -29 Q48 -31 50 -27 Q105 0 137 37 Q118 68 110 110 L104 110 Q81 56 18 -2 Q16 -4 15 -3 Q13 -2 14 0 Q78 68 95 155 L52 155 Q34 154 25 152 L16 160 L96 161 Q100 186 103 214 ZM180 112 L113 110 Q124 75 148 51 Q167 78 180 112 Z" /><glyph glyph-name="" unicode="&#x53cc;" d="M128 177 Q125 176 125 179 Q125 182 128 183 L196 185 L206 198 L229 184 Q231 182 229 180 L221 170 Q204 105 178 67 Q202 25 253 -8 Q256 -9 253 -12 Q233 -10 215 -26 Q178 14 164 47 Q140 14 83 -29 Q81 -30 80 -29 Q79 -28 80 -26 Q128 12 157 66 Q144 103 140 177 L128 177 ZM123 51 Q120 40 110 31 Q105 27 102 34 Q93 55 80 75 Q49 22 5 -18 Q3 -19 3 -18 Q2 -17 3 -15 Q46 33 68 93 Q54 115 31 142 Q30 145 33 144 Q35 142 40 138 Q61 121 74 110 Q84 140 89 170 L33 167 Q30 167 29 170 Q28 173 31 174 L88 176 L101 191 L124 175 Q126 174 124 172 L115 162 Q105 125 90 95 Q108 80 121 63 Q126 57 123 51 ZM196 180 L143 177 Q151 122 167 87 Q187 130 196 180 Z" /><glyph glyph-name="" unicode="&#x53d9;" d="M50 127 Q46 127 46 130 Q31 114 13 97 Q11 96 10 97 Q9 98 10 100 Q53 152 71 215 L97 203 Q99 203 97 200 L92 197 Q92 196 91 194 Q118 186 130 175 Q136 165 126 151 Q119 143 114 153 Q101 181 89 190 Q72 159 48 133 Q49 133 50 133 L103 134 L113 145 L127 132 Q128 130 126 130 L95 129 L95 94 L118 95 L130 107 L144 94 Q145 92 145 92 Q144 91 143 91 L95 89 L94 14 Q93 -7 67 -23 Q64 -23 64 -21 Q63 -7 56 -2 Q54 -2 54 -1 Q54 0 56 0 Q74 -1 72 6 L73 89 L31 87 Q28 87 28 90 Q28 93 30 93 L73 94 L73 128 L50 127 ZM154 145 Q158 105 176 74 Q195 113 203 162 L141 160 Q137 162 141 166 L203 168 L214 179 L235 165 Q237 163 235 161 L227 153 Q211 92 187 57 Q212 24 252 -5 Q255 -8 251 -9 Q239 -6 218 -21 Q194 3 174 40 Q157 18 97 -26 Q95 -27 94 -26 Q93 -24 94 -23 Q139 9 167 58 Q152 96 151 145 L154 145 ZM66 69 Q68 68 66 66 Q45 31 13 -8 Q11 -10 10 -9 Q8 -8 10 -7 Q33 32 46 78 L66 69 ZM101 73 Q139 58 143 42 Q143 32 133 25 Q127 21 124 28 Q117 57 101 71 Q100 73 101 73 Z" /><glyph glyph-name="" unicode="&#x53e0;" d="M41 -20 Q26 -21 13 -23 L5 -14 L70 -14 L71 39 L71 72 L90 62 L159 64 L168 76 L191 62 Q193 61 190 59 L184 49 L184 -12 L214 -12 L230 3 L251 -14 Q253 -16 251 -17 L41 -20 ZM90 57 L89 37 L150 39 Q153 39 153 37 Q153 36 151 34 L89 31 L89 12 L150 13 Q153 13 153 11 Q153 9 151 8 L89 6 L88 -13 L160 -13 L160 58 L90 57 ZM76 195 Q80 194 90 193 Q117 189 131 186 Q146 194 159 203 L70 201 Q66 203 70 206 L162 208 L172 216 L191 204 Q192 201 190 200 L181 196 Q168 189 152 181 Q155 180 161 178 Q171 175 173 174 Q179 170 176 156 Q175 150 166 155 Q150 166 133 173 Q98 158 36 140 Q34 140 34 141 Q34 142 35 143 Q86 161 118 179 Q93 188 75 193 Q73 194 76 195 ZM199 90 L211 99 L235 79 Q239 74 233 73 Q218 73 199 61 Q197 60 196 63 L201 85 L61 79 Q56 55 41 42 Q38 39 37 42 Q31 50 32 57 Q49 71 48 91 Q47 93 49 94 Q50 94 52 93 Q54 92 57 89 Q59 86 61 84 L199 90 ZM104 94 Q101 90 98 94 Q87 103 78 111 Q46 93 11 81 Q8 79 9 82 Q45 102 67 118 Q64 120 59 122 Q57 124 48 129 Q47 131 49 132 Q52 131 59 129 Q70 127 76 125 Q79 128 86 134 Q92 140 95 143 L53 141 Q51 140 51 143 Q51 144 53 145 L97 147 L105 156 L125 146 Q126 146 124 143 L118 138 Q107 129 92 120 Q100 117 106 112 Q110 106 104 94 ZM196 95 Q193 91 189 95 Q187 97 183 100 Q171 111 165 115 Q148 105 116 91 Q112 90 111 89 Q108 88 109 91 Q137 109 153 122 Q151 123 147 125 Q142 128 130 133 Q129 136 131 135 Q133 135 136 134 Q145 132 160 128 Q171 137 178 145 L130 143 Q128 143 128 145 Q128 147 130 147 L180 149 L189 158 L209 148 Q211 147 208 145 L202 141 Q190 131 177 123 Q187 120 196 115 Q201 110 196 95 Z" /><glyph glyph-name="" unicode="&#x53e3;" d="M202 38 Q176 40 97 40 Q83 40 78 40 L78 27 Q75 7 62 -2 Q56 -5 55 -1 L56 58 L56 141 L54 179 Q54 184 57 182 L79 167 L170 169 L183 185 L208 170 Q209 169 209 167 L202 158 L203 48 L205 41 Q206 39 205 38 Q204 37 202 38 ZM77 162 L78 47 L173 48 L172 163 L77 162 Z" /><glyph glyph-name="" unicode="&#x53e4;" d="M44 135 Q25 134 16 131 L8 141 L116 143 L118 179 L119 214 L150 208 Q152 206 150 204 L143 196 L139 144 L214 145 L229 161 L247 143 Q250 140 246 139 L139 137 L135 72 L164 72 L175 86 L199 72 Q201 71 199 69 L194 61 L194 4 L197 -1 Q198 -3 197 -4 Q196 -5 194 -4 Q143 0 90 -2 L90 -13 Q79 -30 68 -25 L67 78 Q67 83 70 81 L89 71 L112 71 L115 136 L44 135 ZM89 64 L90 3 L166 4 L165 67 L89 64 Z" /><glyph glyph-name="" unicode="&#x53e5;" d="M11 95 Q8 94 8 95 Q7 96 9 98 Q74 149 104 215 L125 200 Q127 197 124 195 L119 192 Q115 187 106 177 Q101 172 99 169 L204 172 L215 185 L236 170 Q238 169 236 167 L227 157 L225 68 L226 35 Q225 -6 185 -26 Q182 -27 182 -24 Q184 -9 171 -2 Q169 -1 170 0 Q170 0 172 0 Q204 -1 202 36 L204 166 L93 163 Q67 135 11 95 ZM164 50 Q149 52 94 52 L94 41 Q91 15 76 13 L77 56 L78 121 Q78 125 80 123 L95 115 L141 117 L150 128 L169 118 Q170 117 170 115 L165 108 L164 59 L166 53 Q167 50 164 50 ZM95 109 L94 57 L141 58 L142 111 L95 109 Z" /><glyph glyph-name="" unicode="&#x53ec;" d="M201 -1 Q173 0 112 0 Q101 0 97 0 L97 -10 Q85 -33 75 -26 L74 86 Q74 91 77 89 L97 78 L172 80 L184 94 L207 80 Q209 79 207 77 L201 69 L202 8 L205 1 Q207 -1 201 -1 ZM206 138 Q204 111 175 95 Q173 94 172 94 Q170 95 171 97 Q171 109 162 114 Q160 115 163 116 Q181 115 180 130 L181 188 L109 186 L127 178 Q130 177 127 174 L123 168 Q95 119 31 69 Q26 68 29 71 Q81 119 103 186 L76 186 Q72 186 65 185 Q58 185 55 184 L48 191 L180 193 L190 205 L214 192 Q216 191 213 189 L206 180 L205 156 L206 138 ZM96 72 L97 6 L174 8 L173 74 L96 72 Z" /><glyph glyph-name="" unicode="&#x53ef;" d="M124 156 L144 143 Q144 142 144 140 L138 133 L138 71 L140 68 Q140 66 139 66 Q123 68 73 65 L73 59 Q72 41 60 29 Q57 27 56 28 Q55 28 55 30 L55 125 Q55 130 54 143 Q54 149 54 151 Q54 154 56 153 L73 143 L114 145 L124 156 ZM55 180 Q43 179 30 177 Q31 178 28 177 L20 185 L203 189 L219 206 L240 187 Q242 185 240 185 L179 183 L200 175 Q200 175 201 174 Q202 174 201 172 L197 163 L197 69 L199 21 Q198 -14 159 -30 Q156 -31 157 -28 Q158 -11 148 -3 Q147 -2 147 -1 Q148 0 150 0 Q175 -3 173 8 L173 134 L171 183 L55 180 ZM114 140 L73 138 L73 70 L115 72 L114 140 Z" /><glyph glyph-name="" unicode="&#x53f0;" d="M164 77 L176 90 L199 76 Q202 75 200 73 L194 66 L195 3 L197 -2 Q198 -4 197 -5 Q196 -6 194 -5 Q144 -1 88 -3 L89 -14 Q78 -31 67 -26 L66 82 Q66 85 67 86 Q68 87 69 85 L88 75 L164 77 ZM166 167 Q218 136 219 122 Q217 107 206 100 Q195 93 193 105 Q192 112 188 123 Q187 128 186 130 Q100 114 58 101 Q54 98 52 102 L42 127 Q62 128 70 138 Q97 174 122 214 L144 197 Q149 195 144 191 L136 186 Q109 159 71 128 L185 134 Q178 150 165 165 Q164 168 166 167 ZM88 69 L88 2 L167 3 L166 71 L88 69 Z" /><glyph glyph-name="" unicode="&#x53f3;" d="M119 213 L144 197 Q146 196 144 193 Q135 175 125 157 L202 158 L219 174 L239 155 Q240 153 237 152 L121 151 Q105 122 82 98 L94 91 L174 93 L187 108 L210 92 Q212 92 210 89 L204 81 L205 10 L208 2 Q210 0 204 0 Q150 3 95 1 Q90 -13 77 -26 Q72 -26 72 -23 L71 66 L71 84 Q46 55 9 22 Q8 21 6 21 Q5 22 6 24 Q59 77 94 150 L51 150 Q31 149 22 147 L13 156 L97 157 Q108 184 116 210 Q116 215 119 213 ZM93 85 L94 7 L176 8 L175 87 L93 85 Z" /><glyph glyph-name="" unicode="&#x53f6;" d="M81 187 L105 174 Q107 173 105 171 L98 161 L99 63 L100 60 Q101 58 99 58 Q86 60 46 58 L46 39 Q45 24 31 7 Q25 4 25 8 L27 69 L27 159 Q27 164 26 176 Q26 184 26 186 Q26 187 28 187 L46 174 L71 175 L81 187 ZM181 199 L178 190 L178 126 L209 127 L223 143 L241 125 Q243 123 240 123 L178 121 L178 52 L179 2 Q176 -16 158 -29 Q154 -30 153 -24 L154 40 L155 120 L135 120 Q122 119 109 117 L100 125 L155 126 L155 167 L153 212 L180 202 Q181 201 181 199 ZM46 168 L46 63 L73 64 L73 170 L46 168 Z" /><glyph glyph-name="" unicode="&#x5403;" d="M76 190 L100 177 Q100 176 100 174 L92 164 L93 68 L95 66 Q95 64 94 64 Q73 64 45 63 L45 47 Q42 29 30 15 Q26 12 24 16 L26 78 L26 163 Q26 168 25 181 Q25 187 25 189 Q25 191 27 190 L45 177 L66 178 L76 190 ZM173 116 L142 114 Q127 113 114 110 L105 117 L171 122 L183 134 L209 116 L198 107 L129 20 Q124 14 127 11 Q129 8 138 7 Q174 4 202 10 Q217 12 225 36 Q226 38 227 38 Q229 37 228 35 Q225 17 235 12 Q254 -3 228 -15 Q195 -23 143 -17 Q102 -10 115 27 L173 116 ZM45 172 L45 68 L68 69 L68 173 L45 172 ZM139 216 L161 204 Q163 203 161 201 L156 196 Q150 183 141 170 L200 173 L214 189 L233 172 Q235 171 232 169 L136 165 Q120 143 96 120 Q94 118 94 122 Q125 162 139 216 Z" /><glyph glyph-name="" unicode="&#x5404;" d="M97 214 L118 200 Q120 199 117 197 L112 191 Q108 187 105 183 L161 186 L175 198 L199 180 Q201 178 199 177 L187 170 Q162 146 137 127 Q170 106 249 87 Q252 85 249 83 Q234 83 217 61 Q157 82 124 117 Q88 90 23 58 Q21 57 20 59 Q20 60 21 62 Q75 93 114 129 Q101 147 92 168 Q65 140 39 120 Q36 119 37 122 Q73 161 94 212 Q94 215 97 214 ZM155 66 L166 79 L189 66 Q190 65 190 63 L184 55 L185 0 L187 -7 Q188 -10 187 -10 Q187 -11 184 -11 Q153 -8 104 -8 Q97 -8 94 -8 Q89 -26 77 -32 Q74 -32 72 -28 L72 72 Q72 77 75 75 L93 65 L155 66 ZM93 58 L93 -1 L157 -1 L157 60 L93 58 ZM159 180 L100 177 Q99 176 98 175 Q98 174 95 172 Q105 151 123 138 Q147 162 159 180 Z" /><glyph glyph-name="" unicode="&#x5408;" d="M166 72 L177 86 L201 73 Q202 72 202 70 L195 61 L196 5 L198 0 Q199 -3 198 -3 Q198 -4 195 -4 Q153 0 91 -2 Q86 -20 72 -30 Q69 -31 68 -28 L69 19 L70 52 L69 79 Q69 81 70 81 Q70 82 72 81 L91 71 L166 72 ZM121 216 L146 205 Q149 204 146 201 L143 198 Q177 143 254 111 Q256 107 254 107 Q240 106 225 89 Q165 133 139 195 L139 194 Q94 124 6 67 Q4 66 3 67 Q3 69 4 70 Q81 130 121 216 ZM91 65 L91 3 L168 4 L167 66 L91 65 ZM118 111 Q103 110 90 108 L83 116 L154 117 L166 130 L184 115 Q185 112 183 112 L118 111 Z" /><glyph glyph-name="" unicode="&#x5409;" d="M167 74 L179 89 L204 74 Q206 73 204 72 L197 63 L198 9 L200 2 Q201 0 200 0 Q200 0 197 0 Q160 2 90 2 L90 -5 Q90 -14 81 -21 Q70 -29 68 -23 L69 11 L68 48 L67 81 Q67 83 68 83 Q68 84 70 83 L90 72 L167 74 ZM47 156 Q27 156 18 153 L11 163 L116 163 L116 178 L115 215 L146 208 Q148 208 146 204 L141 198 L140 164 L211 164 L226 180 L245 163 Q246 160 243 159 L140 158 L140 110 L189 111 L205 127 L224 109 Q226 108 224 107 L71 103 Q56 103 44 101 L37 109 L116 110 L116 157 L47 156 ZM89 66 L90 8 L169 9 L168 69 L89 66 Z" /><glyph glyph-name="" unicode="&#x540c;" d="M196 206 L220 194 Q222 191 220 190 L213 180 L213 49 L214 13 Q214 -11 181 -27 Q178 -27 178 -25 Q180 -8 168 -4 Q167 -4 167 -3 Q168 -1 169 -1 Q187 -3 187 1 L186 187 L69 186 L70 10 Q68 -7 55 -24 Q52 -27 50 -26 Q47 -26 47 -22 L49 35 L49 166 L48 201 Q48 204 50 202 L71 191 L186 192 L196 206 ZM151 124 L173 113 Q175 112 173 111 L168 102 L167 55 L169 51 Q169 49 168 49 Q159 49 108 49 Q108 40 95 27 Q92 25 91 26 Q90 26 90 28 L91 65 L90 95 Q90 111 90 120 Q90 123 92 121 L110 111 L143 113 L151 124 ZM109 106 L109 54 L143 55 L144 107 L109 106 ZM83 149 Q80 148 79 151 Q79 154 82 154 L148 155 L160 168 L176 154 Q177 153 177 152 Q177 151 175 151 L83 149 Z" /><glyph glyph-name="" unicode="&#x540d;" d="M131 202 Q133 201 130 198 L124 193 Q123 191 120 188 Q117 184 115 182 L181 185 L195 197 L219 179 Q221 177 219 176 L207 168 Q184 144 157 123 Q162 120 169 114 Q171 113 172 112 Q177 106 165 88 Q159 80 154 89 Q150 95 140 108 Q139 109 139 109 Q118 93 94 79 L104 74 L185 76 L197 91 L222 78 Q224 77 222 75 L216 65 L217 7 L219 1 Q220 0 219 -1 Q218 -2 216 -1 Q177 0 104 0 L104 -5 Q99 -21 84 -30 Q81 -30 81 -27 L81 20 L81 71 Q62 60 21 39 Q11 34 6 31 Q3 30 2 32 Q1 33 3 35 Q67 68 126 123 Q114 134 97 146 Q95 148 96 149 Q96 150 98 149 Q101 148 107 146 Q126 138 137 133 Q161 156 179 179 L110 176 Q77 141 33 109 Q31 108 30 109 Q29 110 30 112 Q76 156 103 216 L131 202 ZM103 69 L103 6 L186 6 L186 70 L103 69 Z" /><glyph glyph-name="" unicode="&#x540e;" d="M184 82 L195 96 L218 82 Q219 81 219 79 L213 71 L214 14 L216 7 Q217 4 216 4 Q216 3 213 3 Q182 6 129 6 Q121 6 118 6 L118 -1 Q115 -16 99 -25 Q96 -25 95 -22 L96 20 L96 58 L95 91 Q96 95 99 93 L118 80 L184 82 ZM66 195 L89 181 L86 176 L86 132 L205 133 L220 150 L239 132 Q241 129 238 128 L86 126 Q86 68 69 39 Q55 10 4 -22 Q2 -23 1 -22 Q1 -20 2 -19 Q42 10 52 38 Q64 67 64 134 L64 164 Q64 190 63 193 Q63 196 66 195 ZM118 75 L118 13 L185 14 L185 77 L118 75 ZM209 190 Q210 187 207 186 Q148 181 95 179 L94 181 Q160 196 187 212 L209 190 Z" /><glyph glyph-name="" unicode="&#x5410;" d="M85 179 L109 166 Q109 165 109 163 L101 153 L102 57 L104 54 Q104 52 103 52 Q87 54 47 51 L47 37 Q45 17 33 1 Q27 0 27 3 L29 62 L28 151 Q28 168 28 178 Q28 180 30 178 L48 166 L75 167 L85 179 ZM115 114 Q112 114 111 117 Q111 119 114 120 L157 120 L158 168 L156 214 L185 207 Q188 206 185 203 Q182 200 180 193 L180 121 L206 121 L219 135 L235 120 Q236 119 236 118 Q236 117 234 117 L180 115 L179 -8 L218 -8 L234 6 L252 -10 Q253 -12 251 -12 L121 -16 Q107 -16 94 -18 L87 -10 L157 -9 L157 115 L115 114 ZM47 160 L47 57 L77 58 L76 162 L47 160 Z" /><glyph glyph-name="" unicode="&#x5411;" d="M125 216 L140 197 Q141 196 138 194 Q121 185 72 166 Q69 166 71 168 Q108 193 125 216 ZM201 178 L226 165 Q228 164 226 162 L219 152 L220 62 L221 17 Q221 -13 187 -28 Q185 -29 185 -26 Q186 -9 173 -4 Q172 -3 172 -2 Q172 -1 173 -1 Q195 -2 194 2 L192 159 L62 157 L63 8 Q61 -9 46 -25 Q44 -28 42 -27 Q40 -26 40 -23 L41 51 L42 137 L41 173 Q41 175 44 174 L64 162 L191 165 L201 178 ZM104 113 L103 58 L147 59 L146 114 L104 113 ZM146 120 L155 133 L177 120 Q179 119 177 117 L171 108 L172 58 L174 54 Q175 51 172 51 Q150 53 103 51 Q101 37 89 25 Q85 22 84 26 L85 74 L85 109 L85 130 Q85 132 86 130 L104 119 L146 120 Z" /><glyph glyph-name="" unicode="&#x5415;" d="M83 189 L83 133 L166 134 L165 191 L83 189 ZM166 197 L176 211 L200 197 Q202 196 200 194 L194 186 L195 134 L197 127 Q198 125 197 124 Q196 123 194 124 Q163 126 97 126 Q87 126 83 126 L84 122 Q78 105 65 99 Q61 98 61 102 L61 146 L61 179 L61 204 Q61 206 62 206 Q62 207 64 206 L83 195 L166 197 ZM70 78 L69 14 L183 16 L182 81 L70 78 ZM183 87 L193 101 L217 88 Q219 87 217 85 L211 76 L212 16 L214 9 Q215 6 214 6 Q214 5 211 5 Q181 8 89 7 Q75 7 71 7 L71 -1 Q67 -18 52 -26 Q48 -27 48 -23 L49 23 L49 68 L48 93 Q48 98 51 96 L70 84 L183 87 Z" /><glyph glyph-name="" unicode="&#x541b;" d="M54 145 Q51 145 46 144 Q32 144 26 142 L19 151 L101 151 Q104 168 105 184 L70 184 Q67 184 67 187 Q67 190 70 190 L174 191 L185 205 L207 191 Q210 191 208 189 L201 180 L201 152 L215 153 L230 168 L250 150 Q250 148 249 148 L201 147 L201 114 L204 109 Q205 107 203 106 Q199 106 188 106 Q175 107 169 107 L108 106 Q101 89 90 74 L105 64 L184 66 L196 80 L220 65 Q222 64 220 62 L214 54 L215 4 L216 0 Q217 -1 215 -2 Q191 -1 104 -2 Q102 -17 90 -26 Q86 -29 84 -25 L85 66 Q57 30 7 -3 Q6 -4 5 -3 Q4 -1 5 0 Q65 45 88 106 L55 106 Q51 106 50 109 Q50 112 54 112 L91 113 Q96 130 100 146 L54 145 ZM105 58 L105 2 L185 4 L185 59 L105 58 ZM111 113 L174 114 L174 147 L122 146 Q117 128 111 113 ZM174 186 L119 185 L128 177 Q131 176 128 172 Q126 161 123 152 L174 152 L174 186 Z" /><glyph glyph-name="" unicode="&#x542b;" d="M190 -7 Q155 -3 85 -3 L85 -14 Q76 -34 65 -29 L64 64 Q64 66 65 66 Q65 67 67 66 L86 56 L159 57 L172 71 L196 56 Q198 55 196 53 L190 45 L191 2 L194 -3 Q196 -7 190 -7 ZM116 217 L141 207 Q144 206 141 203 L137 200 Q158 157 252 118 Q254 117 252 115 Q238 116 221 98 Q159 139 135 198 L134 197 Q86 129 5 77 Q4 76 3 78 Q3 79 4 80 Q72 129 116 217 ZM84 50 L85 1 L161 2 L161 51 L84 50 ZM62 114 L153 115 L164 126 L186 110 Q187 109 185 107 L176 102 L130 62 L128 64 L152 110 L100 109 Q78 109 68 107 L62 114 ZM108 159 Q136 150 138 139 Q139 128 128 121 Q120 118 118 124 Q118 146 106 157 Q105 160 108 159 Z" /><glyph glyph-name="" unicode="&#x542c;" d="M113 193 L136 180 Q182 199 198 211 Q200 214 201 212 L219 190 Q220 187 217 186 Q207 186 157 179 Q140 176 132 175 L132 130 L209 131 L223 145 L241 130 Q243 128 240 126 L182 125 L198 115 Q201 113 198 109 L193 102 L194 1 Q191 -13 178 -23 Q172 -26 171 -22 L170 125 L132 124 Q133 49 117 23 Q102 -4 43 -33 Q41 -33 40 -32 Q40 -30 41 -29 Q89 -3 99 25 Q112 50 111 134 L111 162 Q111 184 111 191 Q111 194 113 193 ZM77 193 L97 181 Q97 181 97 179 L91 172 L90 73 L92 69 Q93 67 90 66 Q77 68 44 66 L44 54 Q43 38 31 26 Q27 24 26 27 L27 75 L27 164 Q27 180 27 189 Q27 191 29 190 L45 181 L69 183 L77 193 ZM44 176 L44 71 L69 73 L69 178 L44 176 Z" /><glyph glyph-name="" unicode="&#x542f;" d="M198 191 L221 177 Q223 176 221 174 L215 166 L215 121 L218 116 Q218 113 216 113 Q204 114 167 114 L89 113 Q89 36 5 -23 Q3 -23 3 -21 Q2 -20 4 -19 Q75 39 69 131 L69 154 L67 185 Q67 188 69 187 L93 176 L129 176 L131 214 L159 209 Q161 207 159 205 Q159 204 158 202 Q156 196 156 191 L154 176 L188 177 L198 191 ZM190 75 L201 90 L226 75 Q228 74 226 72 L220 64 L221 7 L222 3 Q223 0 221 0 Q197 2 111 0 Q107 -13 95 -24 Q91 -26 90 -22 L90 81 Q90 83 91 83 Q91 84 94 83 L110 73 L190 75 ZM110 68 L110 5 L191 7 L191 69 L110 68 ZM89 170 L89 119 L189 121 L189 171 L89 170 Z" /><glyph glyph-name="" unicode="&#x5434;" d="M165 197 L174 211 L200 199 Q202 198 200 196 L194 186 L193 148 L195 144 Q195 142 195 142 Q194 141 192 142 Q188 142 179 142 Q155 143 135 142 L88 140 L87 137 Q76 119 67 124 L69 205 Q69 207 70 207 Q70 208 72 207 L91 195 L165 197 ZM80 107 Q63 106 54 104 L46 112 L180 115 L195 129 L213 113 Q214 111 213 111 Q213 110 211 110 L141 108 Q141 86 137 69 L210 71 L223 86 L243 70 Q244 68 242 67 L154 64 Q166 18 246 2 Q248 2 248 1 Q248 0 246 0 Q232 -2 216 -23 Q157 7 150 64 L136 63 Q132 8 7 -30 Q5 -31 4 -29 Q4 -27 6 -26 Q108 9 115 63 L54 61 Q34 60 25 57 L18 66 L116 68 Q119 86 119 108 L80 107 ZM89 189 L88 146 L164 149 L165 191 L89 189 Z" /><glyph glyph-name="" unicode="&#x543e;" d="M161 61 L171 75 L196 62 Q199 61 197 58 L191 50 L191 0 L194 -4 Q195 -6 193 -7 Q178 -6 155 -6 Q143 -6 128 -6 Q115 -6 88 -6 Q84 -19 70 -31 Q65 -32 65 -29 L66 10 L66 42 L65 70 Q65 72 67 71 L88 60 L161 61 ZM65 187 Q52 187 35 184 Q34 184 34 184 L26 192 L185 194 L200 210 L218 192 Q220 191 218 189 L113 188 L108 152 L151 153 L152 147 L108 146 L100 95 L156 95 L159 150 L157 152 L170 165 L190 152 Q192 151 191 149 L185 143 L183 95 L208 96 L224 113 L242 94 Q243 92 243 92 Q242 91 241 91 L54 89 Q33 89 23 87 L15 94 L78 94 L84 145 L77 145 Q65 145 55 143 L48 150 L85 151 L89 188 L65 187 ZM88 55 L88 -1 L162 0 L161 55 L88 55 Z" /><glyph glyph-name="" unicode="&#x5448;" d="M134 134 L86 132 Q84 125 74 118 Q65 112 65 118 L65 205 Q65 207 66 207 Q66 208 68 207 L87 194 L163 196 L172 211 L198 198 Q199 198 199 196 L192 185 L192 140 L194 136 Q195 133 192 133 Q165 135 134 134 ZM77 99 Q63 99 50 97 L42 104 L188 108 L202 122 L219 105 Q220 104 220 104 Q220 103 218 102 L124 100 L144 91 Q147 90 145 87 Q142 85 140 77 L140 51 L175 52 L189 66 L207 50 Q208 48 208 48 Q207 47 206 47 L140 45 L140 -10 L208 -8 L223 5 L242 -11 Q244 -13 242 -14 L57 -17 Q43 -18 30 -20 L23 -12 L118 -10 L117 44 L91 43 Q78 42 65 40 L56 48 L117 50 L117 58 L116 100 L77 99 ZM86 188 L86 139 L163 141 L163 190 L86 188 Z" /><glyph glyph-name="" unicode="&#x5468;" d="M97 148 Q95 148 94 150 Q94 152 96 153 L126 154 Q126 176 124 191 L86 190 L86 114 Q86 59 70 31 Q56 3 6 -33 Q4 -34 3 -32 Q3 -31 4 -29 Q41 1 52 30 Q65 58 66 116 L66 178 L66 206 Q66 208 67 207 L85 195 L187 198 L195 210 L217 199 Q219 198 217 196 L211 187 L212 31 Q215 -6 178 -25 Q180 -6 170 -1 Q168 0 168 0 Q168 1 170 1 Q193 0 190 21 L188 193 L130 191 L145 186 Q148 186 147 183 L145 176 L145 154 L157 155 L166 165 L179 154 Q181 152 179 151 L144 150 L144 119 L162 120 L172 131 L185 119 Q187 116 184 116 L93 113 Q91 113 91 115 Q91 117 93 118 L126 119 L126 149 L97 148 ZM158 105 L177 94 Q179 94 177 92 L172 85 L172 48 L174 45 Q174 43 173 43 Q161 45 118 42 L118 35 Q118 25 107 14 Q105 12 103 13 Q102 13 102 15 L103 45 L103 76 Q103 81 102 92 Q102 99 102 101 Q102 103 104 102 L119 94 L151 95 L158 105 ZM118 90 L118 47 L151 48 L150 91 L118 90 Z" /><glyph glyph-name="" unicode="&#x547c;" d="M72 188 L91 176 Q93 176 91 174 L86 167 L84 70 L86 67 Q87 67 86 65 Q84 65 80 65 Q62 66 39 64 L39 49 Q39 34 26 22 Q24 20 23 20 Q22 20 21 23 L22 70 L22 159 Q22 180 21 184 Q21 185 22 186 Q22 186 24 185 L40 176 L63 178 L72 188 ZM94 87 Q91 88 91 90 Q91 93 94 93 L151 95 L151 179 Q145 178 133 176 Q115 173 106 172 Q104 171 104 173 Q103 174 105 175 Q170 197 191 212 L211 193 Q213 191 212 191 Q212 190 210 189 Q200 188 162 181 L177 176 L173 168 L172 95 L178 95 Q202 146 206 169 L230 155 Q232 154 230 152 L224 148 Q220 142 208 128 Q193 109 182 95 L217 97 L230 110 L246 94 Q249 92 245 92 L172 90 L171 53 L172 7 Q172 -14 143 -28 Q140 -29 140 -26 Q141 -13 133 -7 Q132 -6 132 -5 Q132 -4 133 -4 Q153 -6 151 0 L151 89 L94 87 ZM39 172 L39 69 L63 71 L63 173 L39 172 ZM103 158 Q104 157 105 156 Q134 136 140 122 Q141 111 128 103 Q121 100 120 108 Q114 141 101 156 Q100 158 103 158 Z" /><glyph glyph-name="" unicode="&#x548c;" d="M209 184 L233 170 Q235 170 233 168 L226 157 L227 46 L229 44 Q229 42 228 42 Q200 42 167 40 L167 31 Q166 12 152 -3 Q146 -6 146 -2 L147 56 L147 156 Q147 178 146 183 Q146 185 149 184 L167 171 L199 172 L209 184 ZM112 216 L127 199 Q128 198 128 197 Q128 196 126 196 Q116 194 86 190 L100 185 Q102 184 100 183 L96 175 L95 140 L114 140 L128 153 L142 138 Q143 137 144 136 Q143 135 142 135 L95 134 L95 106 Q128 94 131 86 Q132 76 122 67 Q113 62 112 70 Q107 88 95 101 L94 43 L95 0 Q92 -12 78 -27 Q72 -31 71 -26 L72 45 L73 85 Q49 54 5 13 Q2 11 3 15 Q43 62 74 134 L57 133 Q42 133 29 131 L22 138 L74 139 L74 158 Q74 177 74 188 Q69 187 59 186 Q39 183 29 182 Q26 182 28 185 Q97 204 112 216 ZM167 165 L167 46 L202 47 L201 166 L167 165 Z" /><glyph glyph-name="" unicode="&#x54b8;" d="M58 177 Q57 180 59 179 L82 165 L154 167 Q152 191 152 215 L177 203 Q179 202 177 200 L172 195 Q172 181 172 167 L207 168 L221 184 L239 166 Q241 163 238 163 L173 162 Q175 119 184 84 Q197 108 207 131 L225 117 Q229 115 226 112 L221 109 Q213 93 196 67 Q194 64 193 62 Q205 34 226 17 Q232 12 237 18 L245 27 Q246 28 248 28 Q249 27 248 25 Q238 10 246 -2 Q251 -16 245 -21 Q240 -26 228 -18 Q192 3 176 42 Q145 5 79 -29 Q78 -30 77 -28 Q76 -27 77 -26 Q135 7 170 60 Q157 99 154 161 L80 159 L80 116 Q79 64 64 40 Q49 12 4 -23 Q2 -24 2 -22 Q1 -20 3 -19 Q37 11 48 41 Q60 70 59 129 L59 146 L58 177 ZM134 106 L151 94 Q153 94 151 92 L146 85 L145 47 L146 45 Q147 43 145 42 Q142 43 126 42 Q112 42 102 42 L102 38 Q100 26 91 16 Q89 14 88 14 Q87 14 86 17 L88 77 Q88 93 88 103 Q88 104 90 104 L103 95 L125 96 L134 106 ZM103 90 L102 47 L125 48 L125 91 L103 90 ZM88 124 Q85 124 85 127 Q86 130 88 130 L128 131 L137 142 L150 130 Q151 127 149 127 L88 124 ZM189 201 Q209 197 211 191 Q210 183 204 177 Q200 174 198 179 Q193 191 188 199 Q187 201 189 201 Z" /><glyph glyph-name="" unicode="&#x54c8;" d="M70 185 L90 173 Q92 173 90 171 L84 164 L83 97 Q124 137 150 214 L175 204 Q177 203 175 201 L172 199 Q184 154 252 115 Q254 114 253 113 Q253 111 251 112 Q237 113 224 99 Q180 140 170 197 Q138 138 83 92 L83 70 L85 67 Q86 65 84 66 Q70 66 41 64 L41 51 Q40 37 29 23 Q26 21 24 21 Q23 21 23 24 L24 73 L25 156 Q25 161 24 172 Q24 179 24 181 Q24 184 26 182 L42 173 L62 175 L70 185 ZM181 76 L191 89 L215 77 Q217 76 215 74 L210 67 L210 11 L212 6 Q214 2 209 2 Q181 5 127 5 L127 -3 Q125 -15 113 -24 Q110 -26 109 -25 Q107 -24 107 -21 L108 16 L109 58 L108 87 L128 75 L181 76 ZM127 70 L127 10 L181 10 L182 71 L127 70 ZM41 168 L41 69 L61 70 L62 170 L41 168 ZM154 114 Q136 114 123 111 L117 119 L170 120 L184 133 L201 118 Q202 115 199 115 L154 114 Z" /><glyph glyph-name="" unicode="&#x54cd;" d="M125 163 L205 166 L215 177 L236 164 Q236 164 237 164 Q238 163 236 161 L229 152 L231 22 Q235 -7 204 -24 Q201 -25 201 -23 Q200 -9 193 -6 Q192 -5 192 -4 Q192 -3 193 -3 Q209 -5 206 6 L204 160 L123 158 L122 12 Q122 -4 109 -20 Q106 -24 104 -24 Q102 -23 102 -19 L103 31 L103 131 L103 174 L125 163 ZM73 188 L93 176 Q93 175 93 173 L87 166 L86 68 L88 66 Q88 64 87 64 Q81 65 69 64 Q55 63 42 62 L42 47 Q41 31 30 19 Q26 17 25 20 L26 68 L26 158 Q26 179 25 184 Q25 185 28 185 L43 175 L65 177 L73 188 ZM178 134 L196 124 Q196 123 196 121 L191 115 L191 61 L192 58 Q193 57 192 56 Q168 56 152 55 Q152 43 142 29 Q138 26 137 30 L137 106 Q137 128 136 132 L153 124 L171 125 L178 134 ZM43 170 L42 67 L65 69 L66 172 L43 170 ZM152 120 L152 60 L172 61 L171 121 L152 120 ZM176 198 Q178 197 176 195 Q174 194 170 191 Q160 184 130 167 L129 168 Q150 196 157 213 L176 198 Z" /><glyph glyph-name="" unicode="&#x5510;" d="M125 141 Q110 141 99 138 L91 146 L137 146 L137 173 L159 166 Q162 166 161 163 L157 157 L157 147 L185 147 L195 158 L215 145 Q217 144 215 142 L210 135 L209 119 L216 120 L228 132 L243 118 Q245 116 243 115 L209 114 L208 84 L210 82 Q211 80 209 80 L183 80 L156 80 L156 78 Q155 68 142 58 Q135 55 136 59 L136 80 L127 80 Q110 79 101 77 L93 85 L136 86 L136 112 L85 111 Q87 36 6 -20 Q4 -20 4 -18 Q3 -17 5 -16 Q41 14 53 47 Q66 78 65 133 L65 161 L63 191 Q63 194 65 193 L90 182 L135 183 L136 215 L167 209 Q169 209 167 206 Q162 200 161 184 L200 184 L214 199 L232 183 Q234 180 231 180 L85 176 L85 120 L85 117 L136 118 L137 141 L125 141 ZM203 -3 Q188 -1 132 -1 Q121 -1 116 -1 Q116 -14 102 -26 Q99 -29 98 -28 Q96 -28 96 -24 L97 5 L98 38 L98 62 L117 52 L178 54 L187 65 L208 54 Q209 54 209 52 L205 45 L204 3 L206 0 Q208 -3 203 -3 ZM116 47 L116 2 L179 3 L179 48 L116 47 ZM156 86 L185 86 L186 113 L156 113 L156 103 L156 86 ZM186 142 L157 141 L156 118 L186 119 L186 142 Z" /><glyph glyph-name="" unicode="&#x5546;" d="M72 130 L92 130 Q92 149 90 164 Q90 167 92 166 L111 156 Q113 155 113 152 L112 130 L143 131 Q156 160 155 175 L49 174 Q34 173 22 171 L15 179 L116 180 L116 214 L145 204 Q148 203 146 200 L143 192 L142 180 L210 182 L225 197 L244 179 Q246 178 243 177 L163 175 L179 166 Q182 165 179 161 L162 131 L185 131 L195 144 L217 131 Q220 130 218 128 L211 118 L212 20 Q214 -10 185 -27 Q181 -28 181 -25 Q181 -12 172 -8 Q170 -7 171 -6 Q171 -5 173 -5 Q189 -6 188 3 L186 126 L111 125 L126 117 Q128 116 126 114 L121 111 Q115 103 97 85 L112 77 L143 78 L152 88 L170 77 Q172 77 170 75 L166 68 L166 36 L167 34 Q168 32 166 32 Q153 34 112 32 Q110 22 100 13 Q97 11 96 12 Q95 12 95 14 L96 41 L96 63 Q96 67 95 76 Q95 82 95 84 Q94 83 92 82 Q83 73 69 62 L68 1 Q67 -10 56 -25 Q51 -28 50 -28 Q48 -28 48 -24 L51 105 L50 142 L72 130 ZM70 124 L69 66 Q95 97 106 125 L70 124 ZM112 73 L112 37 L144 37 L144 73 L112 73 ZM144 119 Q179 108 181 100 Q179 90 172 84 Q166 81 164 86 Q156 108 142 117 Q141 120 144 119 Z" /><glyph glyph-name="" unicode="&#x554a;" d="M145 194 L217 196 L231 210 L248 195 Q249 193 247 192 L209 190 L224 185 Q226 184 224 182 L221 174 L222 62 L223 19 Q223 -14 191 -27 Q187 -29 187 -24 Q189 -10 179 -4 Q178 -3 179 -2 Q179 -1 181 -1 Q202 -2 200 5 L201 142 Q201 154 200 174 Q200 186 200 190 L146 188 Q143 188 142 191 Q142 190 141 190 Q140 189 140 189 L134 183 Q124 163 106 136 Q141 102 140 77 Q139 54 114 44 Q113 44 113 46 Q114 60 105 65 Q104 66 105 67 Q120 65 119 74 Q125 104 102 136 Q114 174 116 191 L99 190 L98 61 L98 12 Q97 -11 84 -26 Q81 -29 79 -29 Q77 -28 78 -26 L80 41 L82 207 L98 195 L115 197 L124 206 L141 194 Q141 194 142 193 Q142 193 142 192 Q142 193 144 193 Q142 193 145 194 ZM58 195 L76 183 Q78 183 76 181 L71 174 L70 77 L71 74 Q72 74 71 73 Q64 73 59 73 Q58 73 32 72 L32 55 Q31 38 21 26 Q17 23 16 27 L17 75 L18 165 Q18 170 17 183 Q17 189 17 191 Q17 193 19 192 L34 183 L50 184 L58 195 ZM179 168 L196 158 Q198 157 196 156 L191 149 L190 76 L192 73 Q193 73 191 72 Q183 72 163 71 Q167 71 156 71 L156 69 Q155 54 147 41 Q144 39 143 40 Q142 40 142 42 L143 90 L143 141 Q143 162 142 166 Q142 168 144 166 L158 158 L172 159 L179 168 ZM33 177 L32 76 L50 78 L51 179 L33 177 ZM156 153 L156 76 L172 77 L172 155 L156 153 Z" /><glyph glyph-name="" unicode="&#x5566;" d="M55 193 L74 180 Q74 180 74 178 L68 171 L67 75 L69 72 Q70 70 68 70 Q62 70 31 69 L31 52 Q30 36 20 24 Q16 21 15 25 L16 72 L17 163 Q17 168 16 180 Q16 186 16 188 Q16 191 18 189 L33 181 L47 182 L55 193 ZM196 137 L219 127 Q221 126 219 124 L216 117 L206 -4 L220 -4 L233 9 L250 -6 Q252 -8 249 -9 L156 -11 Q151 -11 143 -12 Q134 -12 130 -13 L123 -5 L153 -4 L151 97 Q151 106 150 121 Q149 129 149 132 Q149 134 151 133 L171 125 Q173 124 171 123 L169 115 L167 -4 L188 -4 L193 101 Q194 117 194 136 Q194 139 196 137 ZM78 149 Q74 149 74 152 Q74 155 78 155 L97 156 L97 162 Q98 177 96 200 Q96 208 96 211 Q95 213 96 214 Q97 214 99 213 L120 203 Q122 202 122 202 Q122 202 120 200 L117 192 L116 156 L118 156 L126 166 L139 155 Q140 152 138 152 L116 151 L116 106 Q121 109 131 115 Q138 118 141 120 Q143 121 142 117 Q141 116 139 114 Q127 104 116 93 L115 59 L115 16 Q115 -12 90 -27 Q88 -28 87 -28 Q86 -27 87 -25 Q87 -12 80 -4 Q79 -3 79 -2 Q79 -1 81 -1 Q100 -3 97 6 L97 75 Q93 72 88 66 Q84 61 82 60 Q81 59 81 59 Q80 59 79 60 L71 83 Q70 84 71 84 Q70 84 72 85 Q82 88 97 96 L97 150 L78 149 ZM142 155 Q139 155 138 158 Q139 161 142 161 L172 162 L173 211 L198 205 Q201 205 199 201 Q196 195 193 162 L207 163 L218 175 L233 161 Q234 159 232 158 L142 155 ZM32 176 L31 74 L48 75 L48 177 L32 176 Z" /><glyph glyph-name="" unicode="&#x5580;" d="M98 138 Q93 136 87 150 Q85 153 89 155 Q107 166 114 189 Q115 191 116 191 Q118 192 118 190 Q118 186 118 181 L152 182 L154 212 L179 206 Q181 204 179 201 L176 193 L175 183 L211 184 L222 194 L244 173 Q246 171 246 169 Q245 168 243 168 Q228 167 211 157 Q207 157 208 160 L212 179 L145 177 L160 167 Q162 166 160 164 L156 160 Q152 154 147 147 L186 150 L197 161 L217 145 Q219 144 217 141 L208 134 Q191 116 174 101 Q193 92 253 79 Q254 79 255 78 Q254 76 253 76 Q237 76 223 55 Q183 70 162 92 Q139 76 118 64 L136 51 L181 53 L191 66 L214 54 Q217 53 214 50 L208 42 L209 1 L211 -1 Q212 -4 209 -4 Q185 -3 136 -4 Q133 -18 122 -28 Q118 -31 116 -27 L118 16 L118 40 L116 62 Q116 63 117 63 Q104 56 77 44 Q69 40 65 38 Q63 37 63 39 Q63 41 64 42 Q115 69 151 105 Q142 117 136 132 L138 133 Q145 120 157 111 Q174 128 184 144 L142 142 Q131 128 103 103 Q100 102 101 105 Q128 142 141 177 L118 176 Q114 151 98 138 ZM67 195 L88 184 Q90 183 88 181 L83 173 L82 79 L84 76 Q84 74 83 74 Q76 75 64 74 Q50 73 36 72 L36 56 Q36 41 24 29 Q19 26 18 30 L19 77 L19 167 Q19 183 19 192 Q19 195 21 193 L37 182 L59 183 L67 195 ZM37 177 L36 77 L59 79 L59 179 L37 177 ZM136 46 L136 0 L182 1 L182 47 L136 46 Z" /><glyph glyph-name="" unicode="&#x5584;" d="M157 214 L181 201 Q183 200 183 200 Q183 200 181 198 L177 194 L163 177 L197 178 L212 193 L230 176 Q231 174 229 174 L140 172 L140 147 L178 148 L193 163 L211 147 Q211 144 210 144 L140 142 L140 116 L200 117 L214 131 L233 115 Q235 113 233 112 L140 111 L140 71 L158 71 Q171 94 175 109 L196 97 Q198 97 196 95 L191 92 Q177 80 164 71 L211 72 L226 86 L243 70 Q245 68 243 67 L48 63 Q37 63 23 60 Q21 60 20 60 L12 68 L116 70 L116 110 L56 109 Q38 109 28 106 L21 114 L116 116 L116 142 L81 141 Q59 139 52 138 L45 145 L116 147 L116 171 L61 170 Q43 170 33 168 L25 175 L84 176 L84 195 Q84 203 83 207 Q83 209 86 208 L104 200 Q105 200 105 197 L104 176 L145 177 L157 214 ZM204 -8 Q181 -6 121 -7 Q98 -8 84 -8 L84 -11 Q79 -21 67 -27 Q63 -29 62 -25 L62 21 L61 50 Q62 55 65 53 L83 41 L175 44 L185 58 L209 43 Q212 42 210 40 L204 33 L205 0 L207 -4 Q208 -7 207 -7 Q207 -8 204 -8 ZM84 36 L84 -2 L177 0 L176 38 L84 36 ZM63 104 Q90 94 92 87 Q92 78 83 72 Q77 69 75 75 Q71 95 62 102 Q60 105 63 104 Z" /><glyph glyph-name="" unicode="&#x5587;" d="M133 -1 Q131 -16 116 -30 Q113 -32 112 -27 L114 35 L114 54 Q83 18 34 -16 Q32 -18 31 -14 Q78 27 112 88 L97 88 Q91 69 82 70 L83 104 L83 145 L98 137 L114 138 L114 164 L111 164 Q108 164 103 163 Q88 163 83 161 L76 168 L114 169 L113 213 L135 205 Q137 205 135 201 Q132 198 132 191 L132 169 L147 170 L159 184 L175 169 Q177 167 175 167 L132 165 L132 138 L147 139 L155 150 L173 139 Q175 138 173 137 L169 130 L168 95 L170 90 Q171 87 168 87 Q160 88 132 88 L133 38 L133 -1 ZM59 187 L78 175 Q78 174 78 172 L72 165 L71 77 L73 74 Q73 72 72 72 Q54 72 35 71 L35 59 Q34 42 24 30 Q22 28 20 29 Q19 29 19 31 L20 79 L21 157 Q21 162 20 173 Q20 180 20 182 Q20 185 22 183 L37 174 L51 176 L59 187 ZM214 209 L237 198 Q240 197 238 195 L233 186 L233 21 Q235 -9 207 -26 Q206 -27 205 -26 Q204 -26 204 -23 Q206 -12 197 -5 Q195 -2 198 -1 Q215 -4 213 8 L213 158 Q213 171 212 192 Q212 203 212 207 Q212 210 214 209 ZM185 167 L198 159 Q201 158 199 153 L198 62 Q199 48 187 37 Q183 34 181 38 L183 165 Q183 168 185 167 ZM36 169 L35 76 L52 77 L52 171 L36 169 ZM135 70 Q173 58 175 48 Q175 39 166 30 Q160 27 158 33 Q150 57 134 67 L135 70 ZM98 132 L97 93 L114 94 L114 133 L98 132 ZM147 134 L132 133 L132 94 L147 94 L147 134 Z" /><glyph glyph-name="" unicode="&#x559c;" d="M48 55 Q30 54 21 51 L14 59 L89 60 Q89 73 86 90 Q86 92 86 92 Q87 93 89 92 L108 83 Q111 82 110 79 L110 61 L145 61 Q155 83 156 98 Q121 99 80 99 Q78 94 68 86 Q64 84 63 84 Q62 84 62 87 L62 111 L62 123 L62 141 L82 133 L172 134 L181 144 L202 132 Q204 132 202 130 L198 123 L198 102 L200 99 Q200 98 199 98 Q183 98 162 98 L181 89 Q182 89 183 88 Q182 87 181 86 L161 61 L213 62 L227 77 L246 60 Q247 59 245 57 L48 55 ZM170 36 L181 50 L207 35 Q209 35 207 32 L201 25 L202 1 L204 -1 Q204 -4 202 -4 Q187 -3 162 -3 Q150 -3 133 -3 Q118 -3 84 -3 Q81 -18 68 -28 Q64 -31 62 -27 L63 0 L63 26 L62 47 L85 35 L170 36 ZM53 177 Q39 176 26 174 L19 182 L115 183 L115 186 L114 215 L146 202 L141 195 L141 184 L205 185 L218 198 L236 182 Q238 180 236 180 L141 178 L140 155 L180 156 L191 167 L207 154 Q210 152 206 152 L84 150 Q66 149 57 147 L50 154 L115 155 L115 178 L53 177 ZM85 30 L84 0 L171 1 L170 31 L85 30 ZM82 128 L82 104 L172 104 L172 129 L82 128 Z" /><glyph glyph-name="" unicode="&#x5609;" d="M47 76 Q33 75 20 73 L12 81 L89 82 Q89 94 86 104 Q86 107 88 106 L108 98 Q109 97 109 93 L109 82 L144 82 Q158 104 157 112 Q117 112 81 111 Q71 94 62 99 L62 150 L81 142 L174 145 L182 155 L205 144 Q207 144 205 141 L201 134 L201 119 L202 114 Q203 111 200 111 Q187 112 167 112 L181 105 Q184 102 181 101 L165 83 L209 83 L225 99 L244 81 Q246 80 244 79 L78 76 L95 70 Q98 69 95 66 L93 61 Q93 59 92 55 Q92 50 91 48 L112 49 L118 57 L138 46 Q141 45 139 43 L133 35 Q133 34 133 33 Q131 12 129 6 Q124 -10 99 -23 Q96 -24 95 -22 Q95 -10 89 -6 Q88 -5 88 -4 Q88 -3 89 -3 Q107 -5 108 6 Q111 28 111 43 L90 42 Q88 -8 4 -34 Q3 -35 2 -33 Q2 -32 3 -31 Q69 -7 73 42 L62 42 Q55 42 42 39 L35 46 L74 47 Q74 53 75 59 L75 76 L47 76 ZM193 54 L200 64 L222 53 Q224 52 222 50 L217 42 L218 10 L219 6 Q219 3 218 3 Q200 5 161 3 L160 -5 Q159 -17 148 -26 Q143 -29 143 -26 L144 13 L145 37 L144 63 L161 52 L193 54 ZM55 181 Q37 181 26 178 L19 186 L115 187 L114 214 L144 206 Q147 206 145 203 Q142 200 140 193 L140 187 L204 188 L219 202 L236 186 Q238 184 235 184 L140 182 L139 163 L178 163 L189 175 L207 162 Q208 160 206 159 L82 157 Q79 157 73 156 Q59 156 54 154 L46 162 L115 162 L115 182 L55 181 ZM174 140 L81 137 L81 116 L175 119 L174 140 ZM161 47 L161 8 L194 9 L193 49 L161 47 Z" /><glyph glyph-name="" unicode="&#x560e;" d="M120 189 Q100 187 93 186 L86 192 L200 199 L210 211 L226 198 Q228 197 225 195 L145 190 L157 182 Q160 180 157 178 L149 165 L177 167 L185 177 L206 166 Q206 166 207 165 Q208 165 207 163 L202 157 L203 109 Q201 97 190 85 Q185 79 181 84 Q178 89 174 93 L121 90 Q120 84 111 78 Q108 75 106 79 L106 149 Q106 160 106 167 Q105 170 108 168 L121 164 L133 164 Q139 179 139 190 L120 189 ZM76 191 L95 179 Q95 179 95 177 L89 170 L88 73 L90 70 Q90 68 89 68 Q87 68 83 68 Q66 69 42 67 L42 52 Q42 36 30 25 Q26 22 25 26 L26 73 L26 162 Q26 183 25 187 Q25 188 26 189 Q26 189 28 188 L44 179 L67 180 L76 191 ZM126 86 L150 78 Q152 75 150 74 L148 71 Q150 63 153 54 L209 63 L220 78 L238 65 Q240 62 237 62 L155 49 Q159 39 170 25 Q191 40 206 52 L222 38 Q224 36 220 34 Q202 22 182 13 Q198 0 219 -5 Q225 -6 227 -2 L235 9 Q237 10 238 7 Q235 -3 242 -11 Q252 -20 243 -27 Q233 -32 215 -27 Q183 -17 162 4 Q115 -14 61 -26 Q59 -25 60 -23 Q109 -9 153 15 Q144 28 137 46 L118 42 Q103 40 91 36 L81 43 L135 51 Q131 67 126 86 ZM178 163 L121 159 L121 140 L166 143 Q169 143 168 141 Q168 139 165 139 L121 136 L121 119 L166 122 Q169 122 169 120 Q169 117 166 117 L121 114 L122 94 L178 98 L178 163 ZM43 175 L42 72 L67 74 L68 176 L43 175 ZM160 86 Q181 82 184 74 Q184 66 177 61 Q170 58 169 63 Q167 77 159 84 Q158 86 160 86 Z" /><glyph glyph-name="" unicode="&#x5634;" d="M157 177 Q161 175 158 172 L139 171 L138 144 L158 150 Q160 150 160 149 Q160 148 159 147 L126 131 L141 123 Q143 123 141 120 L136 116 L158 118 L167 127 L184 114 Q186 114 184 112 L177 108 L156 92 L188 93 L197 104 L219 92 Q221 91 219 89 L213 81 L213 49 L214 24 Q215 -3 182 -22 Q183 -4 175 0 Q174 1 175 2 Q192 0 190 19 L189 88 L155 87 L166 81 Q169 81 167 77 L166 72 L165 66 L183 66 Q185 66 185 64 Q185 61 183 61 L165 61 L165 39 L183 40 Q186 40 186 38 Q186 35 183 35 L165 34 L165 4 Q163 -6 151 -14 Q149 -16 147 -16 Q146 -16 146 -13 L147 34 L121 33 Q116 5 53 -30 Q51 -31 50 -30 Q49 -28 51 -27 Q107 4 106 60 L106 71 Q106 79 105 86 Q93 74 77 62 Q73 61 75 64 Q106 97 120 128 Q108 122 97 116 Q95 115 93 116 L83 129 Q81 131 84 131 Q91 133 100 134 L99 166 Q99 167 99 171 Q98 186 98 192 L115 183 Q117 182 115 179 L112 173 L111 137 Q112 138 115 138 L124 141 L123 207 Q123 210 125 208 L142 198 Q145 196 143 194 Q140 188 140 180 L139 175 L157 177 ZM65 193 L84 180 Q86 180 84 178 L79 171 L77 77 L79 74 Q80 72 78 72 Q72 73 62 72 Q49 71 36 71 L36 58 Q35 42 26 29 Q24 27 22 28 Q21 28 21 30 L22 78 L22 163 Q22 168 21 180 Q21 186 21 188 Q21 191 23 189 L38 180 L57 182 L65 193 ZM183 200 Q185 200 184 198 L181 192 L177 154 Q176 144 184 143 Q204 142 221 147 Q229 151 232 160 Q233 161 234 161 Q236 160 235 159 Q234 148 241 143 Q250 133 236 127 Q217 121 186 124 Q164 129 163 155 L163 190 L163 209 Q163 211 165 210 L183 200 ZM37 176 L36 76 L57 77 L58 177 L37 176 ZM116 96 L127 91 L150 92 L158 113 L132 112 Q130 110 127 107 Q125 104 116 96 ZM124 57 Q125 47 122 38 L147 39 L147 60 L124 60 L124 57 ZM124 86 L124 65 L148 65 L148 86 L124 86 ZM219 196 L230 183 Q231 181 230 181 Q230 180 228 180 Q214 176 183 171 L182 173 Q206 184 219 196 Z" /><glyph glyph-name="" unicode="&#x564e;" d="M63 185 L82 173 Q84 172 82 170 L76 164 L75 67 L77 64 Q77 62 76 62 Q70 64 33 62 L33 46 Q33 32 20 19 Q15 17 15 20 L16 68 L18 160 Q18 181 17 186 Q17 188 20 186 L36 173 L54 175 L63 185 ZM95 -18 Q81 -19 70 -21 L62 -13 L129 -12 Q129 9 126 18 Q126 20 127 21 Q128 21 129 20 L144 10 Q147 9 146 7 L145 -11 L165 -11 Q181 16 180 31 Q174 31 159 31 Q139 30 127 30 Q124 22 115 14 Q113 13 111 13 Q110 14 110 16 L111 47 Q111 72 110 78 Q110 80 113 79 L129 70 L188 71 L196 82 L217 70 Q218 69 217 68 L212 61 L213 36 L215 32 Q215 30 214 30 Q210 30 202 30 Q192 31 185 31 L203 18 Q206 17 203 14 L181 -11 L218 -10 L233 4 L252 -12 Q253 -14 251 -15 L95 -18 ZM117 171 Q100 170 91 168 L84 176 L148 176 Q148 201 146 214 L175 206 Q178 206 175 202 Q173 201 171 193 L170 177 L210 177 L223 191 L240 176 Q242 173 239 173 L170 172 L170 145 L187 146 L199 158 L216 144 Q218 142 215 142 L141 140 Q132 140 118 138 Q116 137 115 137 L107 144 L148 145 L148 169 L148 171 L117 171 ZM214 126 L223 137 L248 118 Q250 116 250 114 Q249 112 246 112 Q230 109 212 98 Q209 98 210 100 L214 122 L112 118 Q106 93 86 80 Q84 78 82 79 Q81 79 81 81 Q80 93 81 97 Q98 110 98 130 Q98 132 98 132 Q99 133 101 132 Q104 130 111 123 L214 126 ZM35 168 L33 67 L53 68 L55 169 L35 168 ZM188 67 L128 65 L129 36 L188 37 L188 67 ZM150 94 Q133 94 121 91 L115 98 L178 100 L189 112 L205 98 Q207 96 205 95 L150 94 Z" /><glyph glyph-name="" unicode="&#x5676;" d="M125 104 Q120 97 113 92 Q111 90 109 91 Q108 91 108 93 L108 121 L108 140 Q108 145 107 154 Q107 159 107 161 Q106 163 109 163 L124 156 L183 157 L191 168 L211 157 Q211 157 212 156 Q213 156 212 154 L207 147 L208 120 Q208 110 196 96 Q192 91 189 95 Q185 102 182 106 L140 105 L151 98 Q153 97 150 95 L145 92 Q143 90 138 87 Q134 83 132 81 L207 83 L216 94 L237 83 Q238 82 238 81 L232 73 L228 33 Q225 -15 189 -31 Q186 -31 186 -28 Q187 -15 179 -10 Q176 -7 179 -6 Q202 -9 204 21 L207 78 L158 77 L168 72 Q170 70 168 69 Q167 68 165 65 Q161 61 159 59 Q184 52 185 47 Q187 40 179 34 Q176 30 173 35 Q167 51 157 57 Q140 41 121 27 Q119 26 120 28 Q141 50 150 76 L125 76 Q124 75 122 74 Q117 70 108 63 L120 57 Q122 57 120 53 L119 50 L119 24 Q119 22 119 22 L175 24 L185 35 L200 23 Q202 22 200 19 L117 17 Q115 9 106 3 Q103 1 102 2 Q101 2 101 4 L101 27 L101 39 Q101 49 101 59 Q75 42 52 30 Q50 29 49 30 Q48 31 49 32 Q101 65 131 104 L125 104 ZM71 189 L90 177 Q92 177 90 175 L85 168 L84 74 L86 71 Q86 71 85 70 Q79 70 64 69 Q50 68 40 68 L40 54 Q39 37 28 27 Q24 24 23 28 L24 76 L24 160 Q24 165 23 177 Q23 184 23 186 Q23 188 25 186 L41 177 L63 179 L71 189 ZM40 173 L40 73 L62 74 L63 174 L40 173 ZM184 152 L124 151 L124 134 L177 135 Q179 136 179 133 Q179 131 177 131 L124 129 L124 109 L184 111 L184 152 ZM169 162 L168 178 L145 178 L142 162 L134 161 L132 178 L124 178 Q104 176 97 175 L89 182 L131 183 L127 210 L151 203 Q153 203 151 200 L148 195 L145 183 L168 183 L168 211 L190 202 Q193 201 191 199 L187 193 L183 184 L212 184 L223 197 L239 183 Q241 181 239 180 L182 179 L176 163 L169 162 Z" /><glyph glyph-name="" unicode="&#x56ca;" d="M142 100 L164 93 Q166 92 164 90 L162 84 L162 83 L189 84 L199 94 L214 82 Q216 80 214 80 L162 78 L162 66 L174 66 L183 75 L196 64 Q198 62 196 62 L162 61 L161 48 L205 48 L218 60 L233 46 Q235 44 232 44 L108 42 L115 36 Q117 35 114 33 Q104 27 96 23 L102 21 L100 -4 L136 8 Q139 9 138 6 L96 -17 Q94 -18 91 -20 Q87 -23 77 -30 Q74 -33 73 -31 L60 -19 Q60 -17 61 -17 Q64 -16 70 -15 Q78 -13 83 -11 L82 17 Q60 5 13 -9 Q11 -9 12 -6 Q55 8 94 41 L63 41 Q60 41 53 40 Q39 40 34 38 L27 46 L92 47 L92 59 L63 59 Q60 58 60 61 Q59 63 62 63 L92 64 L92 71 L92 77 L45 76 Q43 76 42 79 Q42 81 44 81 L92 82 L91 100 L112 92 Q113 92 113 90 L111 84 L111 82 L142 83 L142 100 ZM62 189 Q44 189 34 186 L27 193 L116 194 L115 215 L140 207 Q141 207 142 206 Q141 205 140 204 Q137 201 137 194 L197 195 L209 207 L224 195 Q227 192 223 191 L137 190 L137 179 L168 179 L174 188 L193 179 Q195 180 194 177 L190 171 L190 162 L191 159 Q193 157 190 157 Q178 157 147 157 L137 156 L137 145 L205 146 L215 156 L238 138 Q240 137 239 136 Q238 134 236 134 Q221 132 204 122 Q201 121 201 124 L206 142 L51 138 Q51 118 38 106 Q32 103 30 107 Q25 115 27 125 Q44 134 43 149 Q43 153 45 150 Q48 147 50 143 L116 144 L116 156 L83 155 Q80 152 73 147 Q71 146 70 147 Q69 148 70 150 L70 168 L69 184 L85 178 L116 178 L116 181 L116 190 L62 189 ZM105 133 L121 125 Q123 124 121 123 L117 118 L117 104 L118 102 Q119 102 118 101 Q105 101 74 100 Q73 99 72 97 Q68 92 65 90 Q61 88 60 91 L61 106 L61 114 Q61 127 60 130 Q60 131 62 131 L74 125 L98 126 L105 133 ZM177 136 L193 127 Q195 126 193 125 L189 119 L189 107 L190 105 Q190 105 190 104 Q170 104 142 103 Q140 101 134 96 Q131 94 130 97 L131 108 L131 119 Q131 123 130 129 Q130 132 130 133 Q130 134 132 134 L144 128 L171 129 L177 136 ZM149 36 Q153 9 231 -8 Q233 -9 233 -10 Q233 -12 231 -12 Q217 -12 202 -27 Q156 -6 146 36 L149 36 ZM144 124 L143 107 L170 108 L171 125 L144 124 ZM85 174 L85 159 L116 160 L116 174 L85 174 ZM169 175 L137 175 L137 161 L169 161 L169 175 ZM110 60 L110 47 L143 47 L143 61 L110 60 ZM75 122 L74 104 L98 105 L99 123 L75 122 ZM143 72 L142 78 L111 77 L110 65 L143 65 L143 72 ZM198 38 L211 26 Q212 24 210 24 L206 23 Q183 16 173 15 L172 16 Q185 24 198 38 Z" /><glyph glyph-name="" unicode="&#x56db;" d="M200 201 L222 190 Q225 189 222 186 L216 176 L218 72 L220 14 Q219 -7 198 -26 Q194 -28 192 -27 Q190 -26 190 -22 Q188 -6 185 2 L58 1 Q57 -11 44 -25 Q41 -28 39 -28 Q37 -27 37 -24 L39 156 Q39 182 38 199 Q37 201 39 200 L61 184 L190 186 L200 201 ZM147 90 Q144 78 156 78 Q159 78 165 79 Q176 80 178 81 Q186 76 190 62 Q180 56 154 59 Q131 65 131 94 L135 157 L135 178 L102 178 L120 171 Q122 169 120 169 L117 160 Q119 80 58 36 L58 8 L193 9 L190 179 L143 178 L159 171 Q162 170 160 168 L157 162 L147 90 ZM60 177 L58 42 Q97 79 95 164 L94 178 L60 177 Z" /><glyph glyph-name="" unicode="&#x56de;" d="M204 204 L226 192 Q229 191 227 188 L220 178 L221 78 L223 26 Q224 0 202 -19 Q198 -22 196 -21 Q193 -21 194 -17 Q192 -1 189 8 L57 7 Q56 -6 42 -21 Q36 -26 35 -20 L37 157 Q38 184 36 201 Q36 202 38 202 L60 187 L194 188 L204 204 ZM58 180 L57 14 L196 15 L195 181 L58 180 ZM168 61 Q140 65 104 63 L104 62 Q100 45 89 38 Q86 38 85 41 L86 149 Q86 152 89 151 L104 140 L140 141 L151 154 L173 141 Q175 140 173 138 L168 130 L168 72 L170 65 Q171 62 170 62 Q170 61 168 61 ZM104 134 L104 69 L142 70 L141 135 L104 134 Z" /><glyph glyph-name="" unicode="&#x56e2;" d="M204 210 L227 199 Q230 198 227 194 L220 185 L222 72 L225 14 Q224 -9 202 -26 Q198 -28 197 -27 Q195 -26 195 -22 Q193 -7 190 2 L54 1 Q51 -14 39 -25 Q36 -28 34 -28 Q33 -28 32 -24 L34 165 Q34 192 33 209 Q32 210 34 210 L57 194 L194 195 L204 210 ZM56 188 L54 7 L197 8 L196 189 L56 188 ZM136 186 L160 174 Q163 173 161 171 L158 162 L158 144 L166 144 L177 156 L193 142 Q195 140 192 140 L158 138 L158 96 L159 59 Q160 31 126 13 Q124 12 124 15 Q126 30 115 36 Q114 37 115 39 Q115 40 117 39 Q139 38 136 50 L135 108 Q110 74 59 36 Q57 35 56 36 Q55 37 57 39 Q97 78 125 137 L100 136 Q97 136 91 135 Q78 135 73 133 L66 141 L135 143 Q135 154 134 171 Q134 181 134 184 Q134 186 136 186 Z" /><glyph glyph-name="" unicode="&#x56ed;" d="M205 210 L227 199 Q230 198 227 195 L220 185 L223 72 L225 14 Q224 -7 202 -26 Q198 -28 197 -27 Q195 -26 195 -22 Q193 -7 190 2 L54 1 Q51 -14 39 -25 Q36 -28 34 -28 Q33 -28 32 -24 L34 165 Q34 192 33 209 Q32 210 34 210 L57 194 L194 195 L205 210 ZM153 112 Q155 111 153 110 L150 104 L144 57 Q140 46 151 47 Q162 46 169 47 Q177 48 180 62 Q181 64 182 64 Q184 64 183 62 Q182 49 188 45 Q200 32 181 26 Q168 22 150 25 Q127 27 129 59 L132 103 L132 119 L102 119 L120 113 Q122 112 120 110 L118 103 Q115 48 55 15 Q54 15 54 15 L54 7 L197 8 L195 189 L55 188 L54 18 Q101 48 99 119 L95 119 Q92 119 87 118 Q74 118 69 116 L61 123 L163 125 L175 137 L190 123 Q192 122 189 120 L137 119 L153 112 ZM116 158 Q98 158 89 156 L82 163 L143 164 L154 175 L169 162 Q169 161 168 159 L116 158 Z" /><glyph glyph-name="" unicode="&#x56f4;" d="M205 210 L228 199 Q231 198 228 195 L221 185 L223 68 L224 13 Q225 -5 203 -27 Q199 -29 198 -27 Q196 -26 196 -22 Q195 -8 192 0 L54 0 Q54 -14 40 -28 Q37 -31 35 -31 Q33 -30 33 -27 L35 165 Q35 188 33 208 Q33 211 35 209 L57 194 L195 195 L205 210 ZM56 187 L54 5 L198 6 L197 188 L56 187 ZM134 177 Q135 177 135 175 L132 168 L131 155 L158 155 L168 168 L184 154 Q186 152 183 152 L131 150 L131 127 L148 128 L158 139 L173 127 Q174 126 172 124 L131 123 L131 99 L162 100 L170 110 L189 99 Q191 99 189 96 L184 89 L184 76 L184 62 Q183 45 158 33 Q156 32 156 34 Q156 45 149 49 Q148 50 148 51 Q148 52 149 52 Q163 52 162 59 L162 95 L131 94 L131 82 L132 39 Q131 26 116 9 Q110 4 109 10 L110 64 L110 93 L95 92 Q85 92 73 89 Q72 89 71 89 L62 97 L110 98 L110 122 Q97 122 82 120 L74 126 L110 127 L110 150 L104 149 Q85 149 73 147 L66 153 L110 154 L109 186 L134 177 Z" /><glyph glyph-name="" unicode="&#x56fa;" d="M205 210 L227 199 Q230 198 227 195 L221 185 L223 72 L225 14 Q224 -7 202 -26 Q198 -28 197 -27 Q195 -26 195 -22 Q193 -7 190 2 L54 1 Q51 -14 39 -25 Q36 -28 34 -28 Q33 -28 32 -24 L34 165 Q34 192 33 209 Q32 210 34 210 L57 194 L194 195 L205 210 ZM55 188 L54 7 L197 8 L196 189 L55 188 ZM96 136 Q93 136 86 135 Q72 135 68 133 L61 141 L116 141 L116 157 L115 185 L141 176 Q144 175 142 172 L139 168 L138 142 L165 142 L176 154 L192 140 Q193 139 193 138 Q193 137 191 137 L138 136 L136 93 L151 94 L160 105 L180 92 Q180 92 180 90 L174 81 L174 42 L175 39 Q176 38 175 37 Q158 39 103 37 Q100 25 90 15 Q85 12 84 17 L85 51 L85 76 Q85 98 84 102 Q84 103 87 103 L103 93 L117 93 L116 136 L96 136 ZM103 88 L103 42 L151 43 L151 89 L103 88 Z" /><glyph glyph-name="" unicode="&#x56fd;" d="M206 210 L229 198 Q232 197 229 194 L223 185 L225 72 L227 14 Q226 -7 204 -26 Q200 -28 199 -27 Q197 -26 197 -22 Q195 -7 192 2 L55 1 Q54 -13 41 -25 Q38 -28 36 -28 Q34 -28 34 -24 L36 165 Q36 192 34 209 Q34 210 36 210 L58 194 L197 195 L206 210 ZM57 188 L55 7 L199 8 L198 189 L57 188 ZM100 156 Q97 156 90 155 Q76 155 72 153 L65 161 L161 162 L173 174 L188 159 Q190 156 187 156 L123 156 L136 152 Q138 152 138 151 Q138 150 137 148 L136 144 L135 105 L157 106 L169 117 L183 103 Q185 100 182 100 L135 100 L135 41 L166 41 L177 53 L193 39 Q195 36 192 36 L100 35 Q97 35 90 34 Q77 34 72 32 L65 40 L114 40 L113 99 L108 99 Q90 99 80 97 L73 104 L113 105 L113 131 L112 156 L100 156 ZM144 90 Q171 79 173 68 Q173 58 163 53 Q155 51 154 58 Q153 79 143 88 Q141 91 144 90 Z" /><glyph glyph-name="" unicode="&#x56fe;" d="M205 210 L227 199 Q230 198 227 195 L220 185 L223 72 L225 14 Q224 -7 202 -26 Q198 -28 197 -27 Q195 -26 195 -22 Q193 -7 190 2 L54 1 Q51 -14 39 -25 Q36 -28 34 -28 Q33 -28 32 -24 L34 165 Q34 192 33 209 Q32 210 34 210 L57 194 L194 195 L205 210 ZM55 188 L54 7 L197 8 L195 189 L55 188 ZM193 84 Q195 83 195 82 Q195 81 193 80 Q186 82 170 63 Q136 85 118 112 Q87 82 59 62 Q56 60 58 63 Q85 90 111 124 Q105 136 99 150 Q87 138 74 125 Q71 124 72 127 Q96 163 100 186 Q100 186 101 187 Q101 188 103 187 L117 173 Q119 172 117 170 Q116 169 114 167 L139 168 L147 177 L165 162 Q167 159 164 158 L155 152 Q152 149 146 142 Q142 137 127 121 Q147 103 193 84 ZM99 61 Q141 45 143 35 Q145 25 134 16 Q128 14 125 20 Q113 43 98 59 Q96 61 99 61 ZM136 164 L111 163 Q107 157 102 153 Q108 141 116 132 Q128 149 136 164 ZM104 93 Q134 84 136 77 Q136 65 128 62 Q122 59 121 65 Q112 83 103 91 Q102 92 104 93 Z" /><glyph glyph-name="" unicode="&#x5708;" d="M206 210 L228 198 Q231 197 228 194 L221 185 L223 72 L225 13 Q226 -9 204 -27 Q200 -29 199 -27 Q197 -26 197 -22 Q196 -16 194 -6 Q193 -1 193 0 L53 0 Q52 -13 40 -25 Q36 -28 35 -28 Q33 -28 33 -24 L35 165 Q35 192 33 209 Q33 210 35 210 L57 194 L196 195 L206 210 ZM160 180 L174 167 Q174 167 173 165 L168 164 L144 146 L159 147 L169 157 L184 145 Q184 144 183 142 L132 142 Q129 130 124 122 L166 122 L178 134 L193 120 Q195 118 192 118 L148 117 Q161 97 198 89 L197 189 L55 188 L54 73 Q94 96 104 116 L98 116 Q81 116 66 114 L58 121 L106 121 Q111 130 112 141 L105 141 Q90 141 77 139 L70 145 L113 146 Q114 149 114 154 Q115 159 115 162 Q115 177 114 183 Q114 186 116 185 L141 175 Q143 175 141 173 L137 169 Q136 164 135 155 Q133 149 133 146 L139 146 L160 180 ZM92 89 Q77 80 54 68 L54 5 L199 6 L198 83 Q189 79 180 69 Q179 70 177 72 Q170 78 162 85 L159 81 L159 68 Q158 51 140 44 Q137 43 137 46 Q136 56 130 57 Q128 60 130 60 Q141 59 141 66 L140 79 Q140 85 136 84 L113 83 L110 79 L108 44 Q105 32 117 32 Q141 31 159 35 Q172 37 175 50 Q176 51 177 52 Q179 51 178 50 Q178 40 184 38 Q197 27 177 17 Q153 12 123 14 Q93 17 93 45 L93 74 L92 89 ZM144 98 L157 91 Q148 103 144 117 L121 117 Q114 104 100 94 L113 88 L137 89 L144 98 ZM83 176 Q103 170 105 163 Q105 158 97 152 Q91 151 91 155 Q87 169 82 175 Q81 176 83 176 Z" /><glyph glyph-name="" unicode="&#x571f;" d="M65 110 Q62 110 57 109 Q42 109 37 107 L30 115 L114 116 L115 168 Q113 206 113 214 Q112 215 114 215 L145 207 Q148 206 145 203 Q142 200 141 193 L140 117 L191 118 L207 133 L224 116 Q226 115 224 113 L140 112 L139 -4 L208 -2 L224 13 L246 -4 Q247 -6 245 -7 L44 -13 Q32 -14 19 -16 Q20 -16 17 -16 L9 -7 L114 -5 L114 111 L65 110 Z" /><glyph glyph-name="" unicode="&#x5723;" d="M114 126 Q93 148 74 188 Q58 187 49 185 L41 193 L168 195 L182 207 L204 191 Q207 188 204 187 L194 180 Q172 152 144 128 Q176 114 242 99 Q245 96 242 95 Q228 96 207 72 Q157 90 126 115 Q84 87 16 62 Q13 61 12 63 Q12 64 14 66 Q76 91 114 126 ZM82 44 Q71 44 56 41 Q55 41 54 41 L47 49 L115 51 L115 55 L114 100 L143 92 Q144 92 145 91 Q144 90 143 89 Q143 88 142 87 Q139 83 138 79 L138 51 L176 52 L190 67 L209 51 Q210 49 210 49 Q209 48 208 48 L138 46 L138 -12 L204 -11 L220 3 L240 -13 Q242 -15 240 -16 L59 -20 Q42 -20 30 -23 L24 -14 L116 -13 L115 45 L82 44 ZM78 188 Q95 155 126 137 Q148 159 166 189 L78 188 Z" /><glyph glyph-name="" unicode="&#x5728;" d="M115 213 L139 198 Q141 196 139 194 Q132 178 121 162 L206 163 L222 179 L241 161 Q242 160 242 159 Q242 158 240 158 L118 156 Q100 129 81 103 L84 101 Q87 100 87 95 L86 -3 Q84 -17 72 -29 Q67 -34 65 -29 L67 28 L67 86 Q38 51 8 24 Q6 23 5 23 Q4 24 5 26 Q50 73 91 156 L52 155 Q34 155 24 153 L17 161 L93 162 Q107 190 112 211 Q114 214 115 213 ZM109 72 Q106 72 106 75 Q105 78 108 78 L149 80 L149 96 L147 140 L176 132 Q177 132 178 131 Q177 130 176 129 Q173 126 172 119 L171 80 L191 81 L204 95 L220 79 Q222 77 220 76 L171 74 L171 -3 L210 -2 L225 11 L241 -4 Q243 -6 241 -6 L125 -9 Q111 -10 98 -12 L90 -4 L149 -3 L149 74 L109 72 Z" /><glyph glyph-name="" unicode="&#x5730;" d="M171 202 L168 197 L168 138 L194 152 L202 166 L223 156 Q225 155 223 153 L217 142 L217 77 Q218 38 189 21 Q185 20 185 23 Q184 37 176 40 Q174 43 177 43 Q196 40 194 66 L195 145 L168 131 L167 60 Q168 34 156 19 Q152 15 150 15 Q147 15 147 20 L148 121 L123 108 L120 13 Q118 0 131 0 Q176 -4 212 3 Q228 7 235 27 Q236 29 238 29 Q240 29 240 27 Q238 13 246 9 Q261 -9 236 -19 Q194 -29 134 -23 Q103 -20 104 24 L105 99 Q102 97 95 94 Q91 91 89 90 L79 93 L105 106 L106 131 Q106 138 105 149 Q105 163 104 166 Q104 170 106 168 L127 156 Q129 155 127 153 L124 145 L123 115 L148 128 L148 175 Q148 205 147 214 Q147 215 148 215 L170 205 Q173 204 171 202 ZM21 125 Q19 124 18 126 Q17 129 19 129 L46 131 L46 169 L45 202 L70 192 L67 184 L65 132 L74 133 L85 143 L97 132 Q99 130 97 129 L65 127 L63 51 L97 67 Q100 68 99 66 L36 11 Q33 7 29 10 L13 26 Q13 27 12 27 Q11 28 13 29 Q25 33 45 42 L46 126 L21 125 Z" /><glyph glyph-name="" unicode="&#x5733;" d="M231 202 L228 194 L228 43 L229 3 Q227 -17 211 -32 Q205 -34 205 -27 L206 49 L207 170 L206 214 L230 204 Q232 204 231 202 ZM25 130 Q22 130 22 132 Q22 135 24 135 L55 136 L55 178 L54 211 L79 201 L75 192 L74 137 L84 137 L96 151 L110 137 Q112 135 110 134 L74 132 L72 55 L106 72 Q109 72 107 70 L37 12 Q34 8 30 12 L12 28 Q17 29 28 34 Q37 38 42 40 L54 46 L55 132 L25 130 ZM121 206 Q121 209 123 208 L144 196 Q147 196 145 192 L142 186 L142 131 Q151 20 37 -33 Q35 -33 35 -31 Q34 -30 36 -29 Q85 0 105 36 Q124 71 123 135 L122 170 Q122 198 121 206 ZM185 171 L185 159 L185 81 L185 40 Q183 24 170 9 Q165 7 164 13 L166 68 L165 145 Q165 172 163 188 L183 177 Q186 176 185 171 Z" /><glyph glyph-name="" unicode="&#x573a;" d="M175 192 L116 190 Q113 190 113 193 Q113 196 116 195 L176 197 L187 207 L207 194 Q210 193 207 190 L197 183 L149 124 L205 125 L217 138 L239 124 Q241 123 239 121 L231 111 L226 45 L225 19 Q221 -9 184 -25 Q181 -27 180 -24 Q183 -8 173 -3 Q171 0 174 0 Q201 -4 200 21 L208 119 L189 119 L200 114 Q203 113 201 110 Q170 35 79 -31 Q76 -32 76 -29 Q150 35 178 118 L156 118 L167 113 Q170 112 167 109 Q135 59 81 19 Q79 18 78 19 Q77 19 78 21 Q125 67 146 118 L144 118 Q134 110 118 105 Q114 104 113 109 L131 131 L175 192 ZM19 137 Q16 137 16 139 Q16 142 18 143 L54 144 L54 182 L53 215 L81 204 L77 196 L75 144 L85 145 L98 159 L115 144 Q117 141 114 141 L75 140 L73 59 L110 78 Q113 78 112 76 L40 17 Q36 13 32 16 L16 32 Q15 34 16 35 Q35 40 50 48 L53 50 L54 138 L19 137 Z" /></font>
</defs>
</svg>
