<svg version="1.1" xmlns="http://www.w3.org/2000/svg" xmlns:xlink="http://www.w3.org/1999/xlink" x="0px" y="0px" width="132px" height="132px" viewBox="6.741 -75.321 132 132" enable-background="new 6.741 -75.321 132 132" xml:space="preserve">
    <g class="flowers">
        <g class="flower">
            <path fill="#E96A75" d="M30.697,40.583c0.573,0.127,1.019,0.637,1.656,0.764c0.573,0.127,1.21,0.191,1.72-0.127
			c0.446-0.255,0.892-0.828,0.955-1.401c0.127-0.701-0.382-0.892-0.764-1.338c1.338-0.064,2.357-1.72,1.911-2.994
			c-0.446-1.274-2.611-1.975-3.376-0.637c-0.127-1.274-0.828-2.739-2.357-2.675c-1.274,0.064-2.803,1.465-1.529,2.675
			c-0.637,0-1.274-0.446-2.038-0.255c-0.892,0.191-1.401,1.338-1.338,2.166c0.127,1.083,1.338,1.274,2.229,1.338
			c-0.51,0.318-0.764,1.083-0.764,1.656C26.875,41.602,29.869,42.303,30.697,40.583z" />
            <path fill="#EAD174" d="M29.678,37.971c0.064,0.064,0.064,0.127,0.127,0.127c0.127,0.127,0.191,0.191,0.255,0.446
			c0,0.191,0,0.446,0.191,0.573c0.255,0.191,0.446,0.064,0.637-0.127c0.191-0.191,0.318-0.191,0.573-0.255
			c0.51-0.064,1.401,0.127,1.274-0.637c-0.064-0.255-0.064-0.382,0-0.637c0.064-0.255,0.318-0.446,0.318-0.701
			c0.064-0.255-0.064-0.573-0.318-0.764c-0.255-0.127-0.573-0.064-0.828-0.255c-0.127-0.127-0.382-0.318-0.637-0.382
			c-0.318-0.064-0.764,0-0.955,0.255c-0.127,0.318-0.064,0.637-0.318,0.892c-0.255,0.191-0.701,0.318-0.637,0.764
			C29.359,37.526,29.487,37.717,29.678,37.971z" />
            <path fill="#564F47" d="M31.843,36.443c-1.083-0.892-2.038,1.083-0.955,1.465C31.716,38.226,32.544,37.08,31.843,36.443z" />
            <path fill="#564F47" d="M31.78,36.825c-0.064,0-0.127,0-0.127-0.064c0,0,0-0.064,0.064-0.064h0.064c0.255,0,0.573,0,0.828-0.064
			h0.127c0.191,0,0.382-0.064,0.51-0.127c-0.064,0.191-0.318,0.255-0.51,0.255h-0.127C32.353,36.825,32.098,36.825,31.78,36.825
			L31.78,36.825z M31.461,36.698L31.461,36.698c0.446-0.064,0.764-0.255,1.019-0.446c0.127-0.064,0.255-0.191,0.382-0.255
			l0.127-0.064c0.127-0.064,0.255-0.191,0.191-0.255c0,0.064-0.127,0.127-0.191,0.191c-0.064,0-0.064,0.064-0.127,0.064
			c-0.191,0.064-0.318,0.127-0.446,0.255c-0.255,0.191-0.573,0.382-0.955,0.446C31.461,36.57,31.398,36.634,31.461,36.698
			L31.461,36.698L31.461,36.698z M32.608,37.398c0.191,0,0.318,0,0.446-0.127c-0.127,0.064-0.318,0.064-0.637,0
			c-0.255,0-0.51-0.127-0.764-0.255h-0.064v0.064c0.255,0.127,0.51,0.191,0.764,0.255C32.417,37.398,32.48,37.398,32.608,37.398
			L32.608,37.398z M33.245,38.099C33.245,38.099,33.308,38.035,33.245,38.099c0.064-0.064,0-0.127,0-0.127
			c-0.318,0-0.637-0.127-0.892-0.255c-0.127-0.064-0.255-0.191-0.382-0.318c-0.064-0.064-0.127-0.127-0.318-0.127
			c0.127,0.064,0.191,0.191,0.255,0.255c0.127,0.127,0.255,0.255,0.382,0.318C32.608,37.971,32.862,38.099,33.245,38.099
			L33.245,38.099L33.245,38.099z M32.289,39.436C32.289,39.436,32.353,39.373,32.289,39.436c0.127-0.191,0-0.446-0.127-0.701
			c-0.064-0.191-0.191-0.318-0.318-0.51c-0.127-0.318-0.318-0.573-0.573-0.637c0.255,0.191,0.382,0.382,0.573,0.701
			c0.064,0.127,0.191,0.318,0.255,0.51c0.064,0.127,0.191,0.446,0.127,0.573C32.226,39.373,32.226,39.373,32.289,39.436
			C32.289,39.373,32.289,39.436,32.289,39.436L32.289,39.436z M32.862,38.799c0,0,0.064,0,0.064-0.064
			c-0.064,0-0.127-0.064-0.191-0.127s-0.064-0.064-0.127-0.064c-0.064,0-0.127-0.127-0.318-0.255
			c-0.127-0.127-0.255-0.255-0.382-0.382l-0.064-0.064c-0.064-0.127-0.191-0.255-0.255-0.382l-0.064-0.064l-0.064,0.064
			c0.064,0.191,0.191,0.318,0.318,0.446l0.064,0.064c0.127,0.127,0.255,0.255,0.446,0.446c0.127,0.064,0.191,0.191,0.318,0.255
			c0,0,0.064,0.064,0.127,0.064C32.799,38.799,32.862,38.799,32.862,38.799L32.862,38.799z M30.251,39.755
			C30.251,39.755,30.315,39.755,30.251,39.755c0.064,0,0.064-0.064,0.064-0.064c-0.064-0.064,0-0.318,0.064-0.637
			c0.064-0.191,0.191-0.382,0.255-0.637l0.064-0.191c0.127-0.191,0.191-0.446,0.382-0.573v-0.064h-0.064
			c-0.127,0.127-0.255,0.382-0.382,0.573l-0.064,0.255c-0.127,0.191-0.191,0.382-0.255,0.637
			C30.187,39.245,30.124,39.564,30.251,39.755L30.251,39.755L30.251,39.755z M31.716,39.118L31.716,39.118
			c0.064,0,0.064-0.064,0.064-0.064c0-0.064-0.064-0.191-0.064-0.255v-0.127c0-0.127-0.064-0.255-0.127-0.382l-0.127-0.191
			c-0.064-0.127-0.127-0.318-0.255-0.382c0,0.127,0.127,0.318,0.191,0.446l0.064,0.127c0.064,0.127,0.064,0.255,0.127,0.382v0.127
			C31.589,38.863,31.652,38.99,31.716,39.118C31.652,39.118,31.716,39.118,31.716,39.118L31.716,39.118z M29.55,39.054L29.55,39.054
			c0.191-0.127,0.318-0.255,0.446-0.382c0.127-0.127,0.318-0.255,0.446-0.382c0.255-0.255,0.446-0.51,0.573-0.764v-0.064h-0.064
			c-0.191,0.255-0.318,0.51-0.573,0.764c-0.127,0.127-0.318,0.255-0.446,0.382c-0.127,0.127-0.255,0.255-0.446,0.382
			C29.487,38.99,29.487,39.054,29.55,39.054C29.487,39.054,29.55,39.054,29.55,39.054L29.55,39.054z M28.659,38.608
			c0.127,0,0.255-0.064,0.318-0.127c0.064,0,0.064-0.064,0.127-0.064l0.191-0.064c0.064-0.064,0.191-0.064,0.255-0.127
			c0.127-0.064,0.255-0.127,0.382-0.191l0.127-0.127c0.255-0.127,0.51-0.382,0.701-0.573v-0.064h-0.064
			c-0.191,0.191-0.446,0.446-0.637,0.573l-0.255,0.127c-0.064,0.064-0.191,0.127-0.318,0.191c-0.064,0-0.127,0.064-0.255,0.064
			l-0.191,0.127c-0.064,0-0.064,0.064-0.127,0.064c-0.064,0.064-0.127,0.127-0.255,0.127c0,0-0.064,0-0.064,0.064
			C28.595,38.608,28.595,38.608,28.659,38.608L28.659,38.608z M28.913,37.844C28.913,37.844,28.977,37.844,28.913,37.844
			c0.255-0.255,0.573-0.382,0.955-0.51c0.127-0.064,0.255-0.064,0.382-0.127c0.127,0,0.255-0.064,0.382-0.191
			c-0.127,0.064-0.255,0.064-0.382,0.064c-0.127,0-0.255,0.064-0.382,0.127c-0.446,0.127-0.701,0.318-0.955,0.573
			C28.85,37.78,28.85,37.844,28.913,37.844L28.913,37.844L28.913,37.844z M30.06,37.016c0.191,0,0.382,0,0.573-0.127
			c-0.255,0.064-0.573,0-0.892,0c-0.255,0-0.51-0.064-0.828-0.127H28.85v0.064c0.318,0.127,0.573,0.127,0.892,0.191
			C29.869,37.016,29.933,37.016,30.06,37.016L30.06,37.016z M30.506,36.634c0.064,0,0.191,0,0.255-0.064
			c-0.127,0-0.318,0-0.446-0.064c-0.573-0.064-1.21-0.191-1.592-0.637h-0.064v0.064c0.382,0.51,1.019,0.573,1.656,0.701
			C30.378,36.634,30.442,36.634,30.506,36.634L30.506,36.634z M31.143,36.825L31.143,36.825c0.064-0.064,0.064-0.064,0.064-0.064
			l-0.191-0.191c-0.127-0.191-0.318-0.318-0.51-0.446l-0.51-0.382c-0.127-0.064-0.255-0.191-0.318-0.191c0,0-0.064,0-0.064,0.064
			c0,0,0,0.064,0.064,0.064c0.064,0,0.191,0.064,0.318,0.191l0.51,0.318c0.127,0.127,0.255,0.255,0.446,0.446L31.143,36.825
			C31.079,36.825,31.143,36.825,31.143,36.825L31.143,36.825z M31.206,36.761c0,0,0.064,0,0.064-0.064c0,0-0.127-0.191-0.191-0.318
			l-0.764-1.146c-0.064-0.064-0.064-0.127-0.127-0.127c0-0.127-0.064-0.191-0.127-0.255h-0.064v0.064
			c0.064,0.064,0.064,0.127,0.127,0.191c0,0.064,0.064,0.127,0.064,0.191l0.764,1.146C31.079,36.634,31.143,36.761,31.206,36.761
			L31.206,36.761z M31.334,37.016L31.334,37.016C31.334,36.952,31.398,36.952,31.334,37.016c0.064-0.127,0.064-0.191,0.064-0.255
			v-0.127c0.064-0.127,0.064-0.318,0.064-0.446c0-0.255,0-0.446-0.064-0.637v-0.255c-0.064-0.255-0.127-0.51-0.255-0.701h-0.064
			v0.064c0.127,0.127,0.127,0.446,0.191,0.637c0,0.064,0,0.191,0.064,0.255c0.064,0.191,0.064,0.382,0.064,0.637
			c0,0.127,0,0.255-0.064,0.51C31.27,36.761,31.27,36.825,31.334,37.016C31.27,36.952,31.27,37.016,31.334,37.016L31.334,37.016z
			 M31.334,37.016L31.334,37.016c0.255-0.318,0.446-0.764,0.51-1.019c0.064-0.191,0.191-0.637,0.064-0.828c0,0-0.064-0.064-0.064,0
			c0,0-0.064,0.064,0,0.064c0.064,0.127,0,0.51-0.064,0.764c-0.127,0.255-0.255,0.701-0.51,0.955
			C31.27,36.952,31.27,37.016,31.334,37.016C31.27,37.016,31.334,37.016,31.334,37.016L31.334,37.016z M30.888,39.309
			C30.888,39.309,30.952,39.309,30.888,39.309c0.064-0.127,0.127-0.255,0.191-0.318s0.064-0.191,0.127-0.255
			c0-0.127,0.064-0.318,0.064-0.446c0-0.064,0-0.191,0-0.255c0-0.064,0-0.127,0-0.191c0-0.191,0-0.382,0-0.573
			c0,0,0-0.064-0.064-0.064c0,0-0.064,0-0.064,0.064c0,0.191,0,0.382,0,0.573c0,0.064,0,0.127,0,0.191c0,0.064,0,0.191,0,0.255
			c0,0.127-0.064,0.318-0.127,0.446c0,0.064-0.064,0.127-0.127,0.255c-0.064,0.127-0.127,0.191-0.127,0.318
			C30.824,39.309,30.824,39.309,30.888,39.309L30.888,39.309L30.888,39.309z" />
            <path fill="#FBF5E3" d="M28.977,36.57c0.255,0.191-0.064,0.573-0.318,0.382C28.404,36.698,28.722,36.379,28.977,36.57z
			 M29.741,35.487c-0.191-0.382-0.828-0.255-0.51,0.127C29.359,35.869,29.933,35.806,29.741,35.487z M28.786,38.672
			c0-0.446-0.701-0.127-0.573,0.127C28.277,39.118,28.786,38.927,28.786,38.672z M29.678,39.118
			c-0.064-0.446-0.764-0.191-0.573,0.191C29.232,39.627,29.741,39.436,29.678,39.118z M29.996,39.819
			c0,0.446,0.573,0.255,0.446-0.127C30.315,39.309,29.996,39.5,29.996,39.819z M31.907,39.118c-0.255-0.318-0.764,0-0.51,0.318
			C31.652,39.691,32.162,39.436,31.907,39.118z M33.372,39.118c0.064-0.573-0.764-0.573-0.637-0.127
			C32.799,39.309,33.372,39.564,33.372,39.118z M33.69,37.971c-0.191-0.318-0.701,0.127-0.382,0.318
			C33.563,38.417,33.818,38.162,33.69,37.971z M33.436,36.698C33.499,36.698,33.499,36.698,33.436,36.698
			c0.382-0.127,0.255-0.446-0.064-0.382C33.054,36.443,33.054,36.825,33.436,36.698z M31.971,35.296
			c0.255-0.064,0.382-0.51,0.064-0.573C31.652,34.596,31.525,35.36,31.971,35.296z M31.27,34.405
			c-0.064-0.318-0.446-0.318-0.382,0.064C30.952,34.85,31.398,34.787,31.27,34.405z M30.124,34.468
			c-0.382-0.191-0.637,0.573-0.127,0.573C30.251,35.041,30.378,34.596,30.124,34.468z M28.85,35.933
			c0-0.127-0.127-0.255-0.255-0.318c-0.127,0-0.255,0-0.318,0.064C27.958,36.124,28.913,36.443,28.85,35.933z M28.977,37.717
			c-0.318-0.318-0.764,0.255-0.382,0.382C28.85,38.162,29.168,37.908,28.977,37.717z M33.436,35.678
			c0.127-0.064,0.255-0.255,0.191-0.382c-0.127-0.318-0.573,0-0.637,0.191C32.99,35.806,33.245,35.806,33.436,35.678z
			 M33.499,37.398c0.255-0.255-0.446-0.446-0.51-0.191C32.926,37.462,33.372,37.589,33.499,37.398z M32.544,39.564
			c0.064-0.318-0.318-0.446-0.382-0.127C32.098,39.691,32.48,39.882,32.544,39.564z M30.697,39.627
			c0.064,0.255,0.382,0.127,0.382-0.127c0-0.064-0.064-0.382-0.191-0.382C30.697,39.118,30.633,39.5,30.697,39.627z" />
        </g>
        <g class="flower">
            <path fill="#E96A75" d="M41.525,46.379c0.382,0.064,0.637,0.382,1.083,0.51c0.382,0.064,0.828,0.127,1.146-0.064
			c0.318-0.191,0.573-0.573,0.637-0.892c0.064-0.446-0.255-0.573-0.51-0.892c0.892-0.064,1.529-1.146,1.274-1.911
			c-0.255-0.828-1.72-1.274-2.166-0.382c-0.064-0.828-0.573-1.783-1.529-1.72c-0.828,0.064-1.847,0.955-1.019,1.783
			c-0.446,0-0.828-0.318-1.401-0.191c-0.573,0.127-0.892,0.892-0.828,1.401c0.064,0.701,0.892,0.828,1.465,0.892
			c-0.318,0.191-0.51,0.701-0.51,1.083C39.041,47.016,41.015,47.462,41.525,46.379z" />
            <path fill="#EAD174" d="M40.824,44.659c0,0.064,0.064,0.064,0.064,0.127c0.127,0.127,0.127,0.127,0.127,0.255s0,0.255,0.127,0.382
			c0.191,0.127,0.318,0,0.446-0.127c0.127-0.127,0.191-0.127,0.382-0.127c0.318,0,0.892,0.064,0.828-0.446
			c0-0.191-0.064-0.255,0-0.446c0.064-0.127,0.191-0.318,0.191-0.446s-0.064-0.382-0.191-0.51c-0.191-0.127-0.382-0.064-0.51-0.191
			c-0.127-0.064-0.318-0.191-0.446-0.255c-0.191-0.064-0.51,0-0.637,0.191c-0.064,0.191,0,0.446-0.191,0.573
			c-0.191,0.127-0.446,0.255-0.446,0.51C40.633,44.341,40.76,44.532,40.824,44.659z" />
            <path fill="#564F47" d="M42.225,43.64c-0.701-0.573-1.338,0.701-0.637,0.955C42.162,44.85,42.735,44.086,42.225,43.64z" />
            <path fill="#564F47" d="M42.225,43.895c0,0-0.064,0-0.064-0.064v-0.064l0,0c0.191,0,0.382,0,0.51-0.064h0.127
			c0.127,0,0.255-0.064,0.318-0.127c-0.064,0.127-0.191,0.127-0.318,0.191h-0.064C42.608,43.895,42.417,43.895,42.225,43.895
			L42.225,43.895z M42.034,43.831L42.034,43.831c0.255-0.064,0.51-0.191,0.637-0.318c0.064-0.064,0.191-0.127,0.255-0.191
			l0.064-0.064c0.064-0.064,0.127-0.127,0.127-0.191c0,0-0.064,0.064-0.127,0.127l-0.064,0.064
			c-0.064,0.064-0.127,0.127-0.255,0.191c-0.191,0.127-0.382,0.255-0.637,0.255C42.034,43.768,41.971,43.768,42.034,43.831
			L42.034,43.831L42.034,43.831z M42.735,44.277c0.127,0,0.191,0,0.255-0.127c-0.064,0.064-0.191,0.064-0.382,0
			c-0.191,0-0.318-0.064-0.51-0.127h-0.064v0.064c0.127,0.064,0.318,0.127,0.51,0.127C42.671,44.277,42.671,44.277,42.735,44.277
			L42.735,44.277z M43.181,44.723C43.181,44.723,43.245,44.723,43.181,44.723c0.064-0.064,0-0.064,0-0.064
			c-0.191,0-0.382-0.064-0.573-0.191c-0.127-0.064-0.191-0.127-0.255-0.191s-0.127-0.127-0.191-0.064
			c0.064,0.064,0.127,0.064,0.191,0.127c0.064,0.064,0.127,0.127,0.255,0.191C42.735,44.659,42.926,44.723,43.181,44.723
			L43.181,44.723L43.181,44.723z M42.544,45.615C42.544,45.615,42.608,45.615,42.544,45.615c0.064-0.127,0-0.318-0.064-0.446
			s-0.127-0.191-0.191-0.318c-0.127-0.127-0.191-0.318-0.382-0.382c0.127,0.127,0.255,0.255,0.382,0.446
			c0.064,0.127,0.127,0.191,0.191,0.318C42.48,45.232,42.544,45.487,42.544,45.615C42.544,45.551,42.544,45.551,42.544,45.615
			L42.544,45.615L42.544,45.615z M42.926,45.232C42.99,45.232,42.99,45.232,42.926,45.232c0.064-0.064,0-0.064-0.064-0.127
			l-0.064-0.064c-0.064-0.064-0.127-0.127-0.255-0.191c-0.064-0.064-0.191-0.191-0.255-0.255l-0.064-0.064
			c-0.064-0.064-0.127-0.127-0.191-0.255c0,0,0,0-0.064,0c0,0,0,0,0,0.064s0.127,0.191,0.191,0.255l0.064,0.064
			c0.064,0.064,0.191,0.191,0.318,0.318c0.064,0.064,0.127,0.127,0.191,0.191c0,0,0.064,0,0.064,0.064
			C42.862,45.169,42.926,45.232,42.926,45.232L42.926,45.232z M41.27,45.806L41.27,45.806L41.27,45.806c0-0.127,0-0.255,0.064-0.446
			c0.064-0.127,0.127-0.255,0.191-0.382l0.064-0.127c0.064-0.127,0.127-0.255,0.255-0.382v-0.064H41.78
			c-0.127,0.127-0.191,0.255-0.255,0.382l-0.127,0.127c-0.064,0.127-0.127,0.255-0.191,0.382
			C41.206,45.487,41.143,45.678,41.27,45.806C41.206,45.806,41.206,45.806,41.27,45.806L41.27,45.806z M42.162,45.424
			C42.162,45.424,42.225,45.424,42.162,45.424C42.225,45.36,42.225,45.36,42.162,45.424c0-0.064,0-0.127,0-0.191v-0.064
			c0-0.064-0.064-0.191-0.064-0.255l-0.064-0.127c-0.064-0.064-0.064-0.191-0.191-0.255c0,0.127,0.064,0.191,0.127,0.318
			l0.064,0.127c0.064,0.064,0.064,0.191,0.064,0.255v0.064C42.098,45.232,42.162,45.296,42.162,45.424
			C42.162,45.36,42.162,45.424,42.162,45.424L42.162,45.424z M40.76,45.36L40.76,45.36c0.127-0.064,0.191-0.191,0.318-0.255
			s0.191-0.191,0.318-0.255c0.191-0.191,0.255-0.318,0.382-0.51v-0.064h-0.064c-0.064,0.191-0.191,0.318-0.382,0.51
			c-0.064,0.064-0.191,0.191-0.318,0.255C40.952,45.169,40.824,45.232,40.76,45.36C40.76,45.296,40.76,45.36,40.76,45.36
			L40.76,45.36L40.76,45.36z M40.187,45.105c0.064,0,0.127-0.064,0.191-0.064c0,0,0.064,0,0.064-0.064l0.127-0.064
			c0.064,0,0.127-0.064,0.127-0.064c0.064-0.064,0.127-0.064,0.255-0.127l0.127-0.064c0.191-0.064,0.318-0.255,0.446-0.382v-0.064
			h-0.064c-0.127,0.127-0.255,0.255-0.446,0.382l-0.127,0.064c-0.064,0.064-0.127,0.064-0.255,0.127
			c-0.064,0-0.127,0.064-0.127,0.064l-0.064,0.064c0,0-0.064,0-0.064,0.064c-0.064,0.064-0.127,0.064-0.191,0.064
			C40.187,44.978,40.124,45.041,40.187,45.105C40.124,45.041,40.187,45.105,40.187,45.105L40.187,45.105z M40.378,44.596
			L40.378,44.596c0.191-0.127,0.382-0.255,0.637-0.382c0.064,0,0.191-0.064,0.255-0.064s0.191-0.064,0.255-0.127
			c-0.064,0-0.191,0.064-0.255,0.064s-0.191,0.064-0.255,0.064C40.697,44.277,40.506,44.341,40.378,44.596
			C40.315,44.532,40.315,44.532,40.378,44.596C40.315,44.596,40.378,44.596,40.378,44.596L40.378,44.596z M41.079,44.022
			c0.127,0,0.255,0,0.382-0.127c-0.191,0.064-0.382,0.064-0.573,0c-0.191,0-0.382,0-0.51-0.127h-0.064v0.064
			c0.191,0.064,0.382,0.127,0.573,0.127C40.952,44.022,41.015,44.022,41.079,44.022L41.079,44.022z M41.397,43.768
			c0.064,0,0.127,0,0.191-0.064c-0.064,0-0.191,0-0.318-0.064c-0.382-0.064-0.764-0.127-1.083-0.446h-0.064v0.064
			c0.255,0.318,0.701,0.382,1.083,0.446C41.334,43.768,41.334,43.768,41.397,43.768L41.397,43.768z M41.78,43.895
			C41.78,43.895,41.843,43.895,41.78,43.895C41.843,43.895,41.843,43.831,41.78,43.895l-0.064-0.191
			c-0.064-0.127-0.191-0.191-0.318-0.318l-0.382-0.255c-0.064-0.064-0.127-0.127-0.191-0.127H40.76v0.064
			c0.064,0,0.127,0.064,0.255,0.127l0.318,0.191c0.127,0.064,0.191,0.191,0.318,0.255L41.78,43.895L41.78,43.895L41.78,43.895z
			 M41.843,43.831C41.907,43.831,41.907,43.831,41.843,43.831c0-0.064-0.064-0.191-0.064-0.191l-0.51-0.764
			c0-0.064-0.064-0.064-0.064-0.127s-0.064-0.127-0.127-0.127h-0.064v0.064c0.064,0.064,0.064,0.064,0.064,0.127
			s0.064,0.064,0.064,0.127l0.51,0.764C41.78,43.768,41.843,43.831,41.843,43.831L41.843,43.831z M41.907,44.022L41.907,44.022
			C41.971,44.022,41.971,44.022,41.907,44.022c0.064-0.064,0.064-0.127,0.064-0.191v-0.064c0-0.127,0-0.191,0-0.318
			c0-0.191,0-0.318-0.064-0.446v-0.127c0-0.191-0.064-0.318-0.127-0.446h-0.064v0.064c0.064,0.127,0.127,0.255,0.127,0.446
			c0,0.064,0,0.127,0,0.127c0,0.127,0.064,0.255,0.064,0.382s0,0.191-0.064,0.318C41.907,43.895,41.907,43.895,41.907,44.022
			L41.907,44.022L41.907,44.022z M41.907,44.022C41.971,44.022,41.971,44.022,41.907,44.022c0.191-0.191,0.318-0.51,0.318-0.637
			c0.064-0.127,0.127-0.446,0.064-0.573c0,0,0,0-0.064,0c0,0,0,0,0,0.064c0.064,0.127,0,0.382-0.064,0.51
			C42.162,43.513,42.034,43.831,41.907,44.022L41.907,44.022L41.907,44.022L41.907,44.022z M41.652,45.551L41.652,45.551
			c0.064-0.064,0.064-0.127,0.127-0.191c0-0.064,0.064-0.127,0.064-0.127c0.064-0.127,0.064-0.191,0.064-0.318
			c0-0.064,0-0.127,0-0.191s0-0.064,0-0.127c0-0.127,0-0.255,0-0.382c0,0,0-0.064-0.064,0c0,0-0.064,0,0,0.064
			c0,0.127,0,0.255,0,0.382c0,0.064,0,0.064,0,0.127s0,0.127,0,0.191c0,0.127-0.064,0.191-0.064,0.318
			c0,0.064-0.064,0.127-0.064,0.127C41.652,45.36,41.652,45.424,41.652,45.551C41.589,45.487,41.589,45.551,41.652,45.551
			L41.652,45.551L41.652,45.551z" />
            <path fill="#FBF5E3" d="M40.378,43.768c0.191,0.127-0.064,0.382-0.191,0.255C40.06,43.831,40.251,43.64,40.378,43.768z
			 M40.888,43.003c-0.127-0.191-0.51-0.127-0.318,0.127C40.633,43.258,41.015,43.258,40.888,43.003z M40.315,45.105
			c0-0.255-0.446-0.127-0.382,0.127C39.932,45.424,40.315,45.296,40.315,45.105z M40.888,45.424
			c-0.064-0.255-0.51-0.127-0.382,0.127C40.569,45.742,40.888,45.615,40.888,45.424z M41.079,45.869
			c0,0.318,0.382,0.191,0.318-0.064C41.27,45.551,41.079,45.615,41.079,45.869z M42.289,45.424c-0.127-0.191-0.51,0-0.318,0.191
			S42.48,45.615,42.289,45.424z M43.308,45.424c0.064-0.382-0.51-0.382-0.446-0.064C42.862,45.487,43.245,45.678,43.308,45.424z
			 M43.499,44.659c-0.127-0.191-0.446,0.064-0.255,0.191C43.372,44.914,43.563,44.787,43.499,44.659z M43.308,43.831
			C43.308,43.831,43.372,43.831,43.308,43.831c0.255-0.127,0.127-0.318-0.064-0.255S43.053,43.895,43.308,43.831z M42.353,42.876
			c0.191-0.064,0.255-0.382,0.064-0.382C42.098,42.43,42.098,42.939,42.353,42.876z M41.907,42.303
			c-0.064-0.191-0.318-0.191-0.255,0.064C41.652,42.621,41.971,42.557,41.907,42.303z M41.143,42.366
			c-0.255-0.127-0.382,0.382-0.064,0.382C41.27,42.748,41.27,42.43,41.143,42.366z M40.315,43.322c0-0.064-0.064-0.191-0.191-0.191
			c-0.064,0-0.191,0-0.191,0.064C39.741,43.449,40.378,43.64,40.315,43.322z M40.378,44.468c-0.191-0.191-0.51,0.191-0.191,0.255
			C40.315,44.787,40.506,44.596,40.378,44.468z M43.308,43.194c0.064-0.064,0.127-0.127,0.127-0.255
			c-0.064-0.191-0.382,0-0.382,0.127C42.99,43.258,43.181,43.258,43.308,43.194z M43.372,44.277
			c0.127-0.191-0.318-0.318-0.318-0.127C42.99,44.341,43.245,44.404,43.372,44.277z M42.735,45.678
			c0.064-0.191-0.191-0.318-0.255-0.064C42.48,45.806,42.671,45.933,42.735,45.678z M41.525,45.742
			c0.064,0.191,0.255,0.064,0.255-0.064c0-0.064-0.064-0.255-0.127-0.255C41.525,45.36,41.525,45.615,41.525,45.742z" />
        </g>
        <g class="flower">
            <path fill="#E96A75" d="M104.008,46.379c-0.382,0.064-0.637,0.382-1.083,0.51c-0.382,0.064-0.828,0.127-1.146-0.064
			c-0.318-0.191-0.573-0.573-0.637-0.892c-0.064-0.446,0.255-0.573,0.51-0.892c-0.892-0.064-1.529-1.146-1.274-1.911
			c0.255-0.828,1.72-1.274,2.166-0.382c0.064-0.828,0.573-1.783,1.529-1.72c0.828,0.064,1.847,0.955,1.019,1.783
			c0.446,0,0.828-0.318,1.401-0.191s0.892,0.892,0.828,1.401c-0.064,0.701-0.892,0.828-1.465,0.892
			c0.318,0.191,0.51,0.701,0.51,1.083C106.492,47.016,104.518,47.462,104.008,46.379z" />
            <path fill="#EAD174" d="M104.645,44.659c0,0.064-0.064,0.064-0.064,0.127c-0.127,0.127-0.127,0.127-0.127,0.255
			s0,0.255-0.127,0.382c-0.191,0.127-0.318,0-0.446-0.127c-0.127-0.127-0.191-0.127-0.382-0.127c-0.318,0-0.892,0.064-0.828-0.446
			c0-0.191,0.064-0.255,0-0.446c-0.064-0.127-0.191-0.318-0.191-0.446s0.064-0.382,0.191-0.51s0.382-0.064,0.51-0.191
			c0.127-0.064,0.318-0.191,0.446-0.255c0.191-0.064,0.51,0,0.637,0.191c0.064,0.191,0,0.446,0.191,0.573
			c0.191,0.127,0.446,0.255,0.446,0.51C104.9,44.341,104.773,44.532,104.645,44.659z" />
            <path fill="#564F47" d="M103.244,43.64c0.701-0.573,1.338,0.701,0.637,0.955C103.308,44.85,102.798,44.086,103.244,43.64z" />
            <path fill="#564F47" d="M103.244,43.895c-0.191,0-0.318,0-0.51-0.064h-0.064c-0.127,0-0.255-0.064-0.318-0.191
			c0.064,0.064,0.255,0.064,0.318,0.127h0.127c0.191,0.064,0.318,0,0.51,0.064l0,0c0,0,0,0,0,0.064
			C103.371,43.895,103.308,43.895,103.244,43.895L103.244,43.895z M103.499,43.831L103.499,43.831c0.064-0.064,0-0.064,0-0.064
			c-0.255-0.064-0.446-0.191-0.637-0.255c-0.064-0.064-0.191-0.127-0.255-0.191l-0.064-0.064c-0.064-0.064-0.127-0.064-0.127-0.127
			c-0.064,0.064,0,0.127,0.127,0.191l0.064,0.064c0.064,0.064,0.127,0.127,0.255,0.191S103.18,43.768,103.499,43.831L103.499,43.831
			L103.499,43.831z M102.734,44.277c0.064,0,0.127,0,0.127,0c0.191,0,0.382-0.064,0.51-0.127c0,0,0,0,0-0.064c0,0,0,0-0.064,0
			c-0.127,0.064-0.318,0.127-0.51,0.127c-0.191,0-0.318,0-0.382,0C102.543,44.277,102.671,44.277,102.734,44.277L102.734,44.277z
			 M102.352,44.723L102.352,44.723c0.255,0,0.446-0.064,0.637-0.191c0.127-0.064,0.191-0.127,0.255-0.191s0.127-0.064,0.191-0.127
			c-0.127,0-0.127,0.064-0.191,0.064c-0.064,0.064-0.127,0.127-0.255,0.191c-0.191,0.064-0.382,0.191-0.573,0.191
			C102.289,44.659,102.289,44.659,102.352,44.723C102.289,44.723,102.289,44.723,102.352,44.723L102.352,44.723z M102.925,45.615
			C102.989,45.615,102.989,45.615,102.925,45.615C102.989,45.551,102.989,45.551,102.925,45.615c0-0.127,0.064-0.318,0.127-0.382
			c0.064-0.127,0.127-0.191,0.191-0.318c0.127-0.191,0.255-0.382,0.382-0.446c-0.191,0.064-0.318,0.255-0.382,0.382
			s-0.127,0.255-0.191,0.318C102.925,45.296,102.862,45.487,102.925,45.615L102.925,45.615L102.925,45.615z M102.543,45.232
			c0,0,0.064,0,0.064-0.064l0.064-0.064c0.064-0.064,0.127-0.127,0.191-0.191c0.127-0.127,0.255-0.191,0.318-0.318l0.064-0.064
			c0.064-0.064,0.127-0.191,0.191-0.255v-0.064h-0.064c0,0.064-0.127,0.191-0.191,0.255l-0.064,0.064
			c-0.064,0.064-0.191,0.191-0.255,0.255c-0.127,0.064-0.191,0.127-0.255,0.191l-0.064,0.064
			C102.607,45.169,102.543,45.169,102.543,45.232L102.543,45.232L102.543,45.232z M104.263,45.806L104.263,45.806
			c0.064-0.127,0.064-0.318,0-0.446s-0.127-0.255-0.191-0.382l-0.064-0.127c-0.064-0.127-0.127-0.318-0.255-0.382h-0.064v0.064
			c0.127,0.064,0.191,0.255,0.255,0.382l0.064,0.127c0.064,0.127,0.127,0.255,0.191,0.382
			C104.263,45.551,104.263,45.678,104.263,45.806C104.199,45.806,104.263,45.806,104.263,45.806L104.263,45.806L104.263,45.806z
			 M103.308,45.424C103.371,45.424,103.371,45.36,103.308,45.424c0.064-0.064,0.064-0.127,0.064-0.191v-0.064
			c0-0.064,0.064-0.191,0.064-0.255l0.064-0.127c0.064-0.064,0.064-0.191,0.127-0.318c-0.064,0.064-0.127,0.191-0.191,0.255
			l-0.064,0.127c-0.064,0.064-0.064,0.191-0.064,0.255v0.064C103.308,45.232,103.308,45.296,103.308,45.424
			C103.308,45.36,103.308,45.36,103.308,45.424L103.308,45.424L103.308,45.424z M104.773,45.36L104.773,45.36
			C104.773,45.36,104.773,45.296,104.773,45.36c-0.064-0.127-0.127-0.191-0.255-0.318c-0.127-0.064-0.191-0.191-0.318-0.255
			c-0.127-0.191-0.255-0.318-0.382-0.51h-0.064c0,0,0,0,0,0.064c0.064,0.191,0.191,0.318,0.382,0.51
			c0.064,0.064,0.191,0.191,0.318,0.255C104.518,45.169,104.645,45.296,104.773,45.36C104.709,45.36,104.709,45.36,104.773,45.36
			L104.773,45.36z M105.346,45.105C105.346,45.105,105.346,45.041,105.346,45.105c0.064-0.064,0-0.064,0-0.064
			c-0.064,0-0.127-0.064-0.191-0.064c0,0-0.064,0-0.064-0.064l-0.127-0.064c-0.064,0-0.127-0.064-0.127-0.064
			c-0.064-0.064-0.127-0.064-0.255-0.127l-0.127-0.064c-0.127-0.064-0.318-0.255-0.446-0.382h-0.064v0.064
			c0.127,0.127,0.318,0.318,0.446,0.382l0.127,0.064c0.064,0.064,0.127,0.064,0.255,0.127c0.064,0,0.127,0.064,0.127,0.064
			l0.127,0.064c0,0,0.064,0,0.064,0.064C105.155,45.041,105.218,45.105,105.346,45.105L105.346,45.105z M105.155,44.596
			L105.155,44.596C105.218,44.532,105.218,44.532,105.155,44.596c-0.127-0.191-0.318-0.318-0.573-0.446
			c-0.064,0-0.191-0.064-0.255-0.064c-0.064,0-0.191-0.064-0.255-0.064c0.064,0.127,0.127,0.127,0.255,0.127
			c0.064,0,0.191,0.064,0.255,0.064C104.773,44.341,104.964,44.404,105.155,44.596L105.155,44.596L105.155,44.596z M104.39,44.022
			c0.064,0,0.127,0,0.191,0c0.191,0,0.382,0,0.573-0.127c0,0,0,0,0-0.064c0,0,0,0-0.064,0c-0.191,0.064-0.382,0.064-0.51,0.127
			c-0.191,0-0.382,0-0.573,0C104.136,44.022,104.263,44.022,104.39,44.022L104.39,44.022z M104.136,43.768c0.064,0,0.064,0,0.127,0
			c0.382-0.064,0.828-0.127,1.083-0.446v-0.064h-0.064c-0.255,0.318-0.637,0.382-1.083,0.446c-0.127,0-0.191,0-0.318,0.064
			C104.008,43.768,104.072,43.768,104.136,43.768L104.136,43.768z M103.69,43.895C103.69,43.895,103.753,43.895,103.69,43.895
			l0.127-0.127c0.064-0.127,0.191-0.191,0.318-0.255l0.318-0.191c0.127-0.064,0.191-0.127,0.255-0.127c0,0,0.064,0,0-0.064
			c0,0,0,0-0.064,0c-0.064,0-0.127,0.064-0.191,0.127l-0.382,0.255c-0.127,0.064-0.191,0.191-0.318,0.318L103.69,43.895
			C103.69,43.831,103.69,43.895,103.69,43.895L103.69,43.895L103.69,43.895z M103.626,43.831c0.064,0,0.064-0.064,0.127-0.191
			l0.51-0.764c0-0.064,0.064-0.064,0.064-0.127s0.064-0.127,0.064-0.127v-0.064h-0.064c-0.064,0.064-0.064,0.127-0.127,0.127
			c0,0.064-0.064,0.064-0.064,0.127l-0.51,0.764C103.69,43.704,103.626,43.831,103.626,43.831L103.626,43.831L103.626,43.831z
			 M103.562,44.022C103.626,44.022,103.626,44.022,103.562,44.022c0.064-0.064,0-0.127,0-0.191
			c-0.064-0.191-0.064-0.255-0.064-0.318c0-0.191,0-0.318,0.064-0.382c0-0.064,0-0.127,0-0.127c0-0.127,0.064-0.318,0.127-0.446
			v-0.064h-0.064c-0.064,0.127-0.127,0.318-0.127,0.446v0.127c0,0.127-0.064,0.255-0.064,0.446c0,0.127,0,0.191,0,0.318v0.064
			C103.562,43.895,103.562,43.959,103.562,44.022L103.562,44.022L103.562,44.022L103.562,44.022z M103.562,44.022
			C103.562,44.022,103.626,44.022,103.562,44.022C103.626,44.022,103.626,44.022,103.562,44.022
			c-0.127-0.255-0.191-0.51-0.255-0.701c-0.064-0.127-0.127-0.382-0.064-0.51v-0.064h-0.064c-0.064,0.127,0,0.446,0.064,0.573
			C103.308,43.576,103.435,43.831,103.562,44.022L103.562,44.022L103.562,44.022z M103.881,45.551L103.881,45.551
			C103.881,45.551,103.945,45.487,103.881,45.551c0-0.127,0-0.191-0.064-0.255c0-0.064-0.064-0.127-0.064-0.127
			c-0.064-0.127-0.064-0.191-0.064-0.318c0-0.064,0-0.127,0-0.191c0-0.064,0-0.127,0-0.127c0-0.127,0-0.255,0-0.382v-0.064h-0.064
			c0,0.127,0,0.255,0,0.382c0,0.064,0,0.064,0,0.127c0,0.064,0,0.127,0,0.191c0,0.127,0.064,0.191,0.064,0.318
			c0,0.064,0.064,0.127,0.064,0.127C103.817,45.36,103.817,45.424,103.881,45.551C103.817,45.551,103.881,45.551,103.881,45.551
			L103.881,45.551z" />
            <path fill="#FBF5E3" d="M105.346,43.959c-0.191,0.191-0.382-0.064-0.191-0.255C105.282,43.64,105.473,43.831,105.346,43.959z
			 M104.964,43.131c0.191-0.255-0.255-0.318-0.318-0.127C104.518,43.258,104.836,43.258,104.964,43.131z M105.601,45.232
			c0.064-0.191-0.382-0.382-0.382-0.127C105.218,45.296,105.537,45.424,105.601,45.232z M105.027,45.551
			c0.127-0.255-0.318-0.382-0.382-0.127C104.582,45.615,104.964,45.742,105.027,45.551z M104.136,45.806
			c-0.064,0.255,0.318,0.382,0.318,0.064C104.454,45.615,104.263,45.551,104.136,45.806z M103.499,45.615
			c0.191-0.191-0.127-0.382-0.318-0.191C103.053,45.615,103.371,45.806,103.499,45.615z M102.671,45.296
			c0.064-0.318-0.446-0.318-0.446,0.064C102.289,45.678,102.607,45.487,102.671,45.296z M102.289,44.85
			c0.255-0.127-0.127-0.446-0.255-0.191C101.97,44.787,102.097,44.914,102.289,44.85z M102.225,43.576
			c-0.191-0.064-0.318,0.127-0.064,0.255c0,0,0,0,0.064,0C102.48,43.895,102.48,43.64,102.225,43.576z M103.117,42.494
			c-0.191,0.064-0.127,0.382,0.064,0.382C103.435,42.939,103.371,42.43,103.117,42.494z M103.881,42.366
			c0.064-0.255-0.255-0.255-0.255-0.064C103.562,42.557,103.817,42.621,103.881,42.366z M104.454,42.748
			c0.318,0,0.191-0.51-0.064-0.382C104.199,42.43,104.263,42.748,104.454,42.748z M105.601,43.131
			c-0.064-0.064-0.127-0.064-0.191-0.064c-0.064,0-0.127,0.127-0.191,0.191C105.155,43.64,105.792,43.449,105.601,43.131z
			 M105.346,44.723c0.255-0.064-0.064-0.446-0.191-0.255C104.964,44.596,105.218,44.787,105.346,44.723z M102.48,43.067
			c0-0.127-0.318-0.318-0.382-0.127c-0.064,0.127,0,0.191,0.127,0.255C102.352,43.258,102.48,43.258,102.48,43.067z M102.48,44.15
			c-0.064-0.191-0.51-0.064-0.318,0.127C102.225,44.404,102.543,44.341,102.48,44.15z M103.053,45.615
			c-0.064-0.191-0.318-0.127-0.255,0.064C102.798,45.933,103.053,45.806,103.053,45.615z M103.881,45.424
			c-0.064,0-0.127,0.191-0.127,0.255c0,0.127,0.191,0.255,0.255,0.064C104.008,45.615,104.008,45.36,103.881,45.424z" />
        </g>
        <g class="flower">
            <path fill="#E96A75" d="M114.772,40.583c-0.573,0.127-1.019,0.637-1.656,0.764c-0.51,0.127-1.21,0.191-1.72-0.127
			c-0.446-0.255-0.892-0.828-0.955-1.401c-0.127-0.701,0.382-0.892,0.764-1.338c-1.338-0.064-2.357-1.72-1.911-2.994
			s2.611-1.975,3.376-0.637c0.127-1.274,0.828-2.739,2.357-2.675c1.274,0.064,2.803,1.465,1.529,2.675
			c0.701-0.064,1.338-0.446,2.102-0.255c0.828,0.191,1.401,1.338,1.274,2.166c-0.127,1.083-1.338,1.274-2.229,1.338
			c0.51,0.318,0.764,1.019,0.828,1.656C118.658,41.602,115.601,42.303,114.772,40.583z" />
            <path fill="#EAD174" d="M115.855,37.971c-0.064,0.064-0.064,0.127-0.127,0.127c-0.127,0.191-0.191,0.191-0.255,0.446
			c0,0.191,0,0.446-0.191,0.573c-0.255,0.191-0.446,0.064-0.637-0.127c-0.191-0.191-0.318-0.191-0.573-0.255
			c-0.51-0.064-1.401,0.127-1.274-0.637c0.064-0.255,0.064-0.382,0-0.637c-0.064-0.255-0.318-0.446-0.318-0.701
			c-0.064-0.255,0.064-0.573,0.318-0.764c0.255-0.127,0.573-0.064,0.828-0.255c0.191-0.127,0.51-0.318,0.701-0.382
			c0.318-0.064,0.764-0.064,0.955,0.255c0.127,0.255,0.064,0.637,0.318,0.828c0.255,0.191,0.701,0.382,0.701,0.764
			C116.174,37.526,115.983,37.717,115.855,37.971z" />
            <path fill="#564F47" d="M113.69,36.443c1.019-0.892,2.038,1.083,0.955,1.465C113.817,38.226,112.925,37.08,113.69,36.443z" />
            <path fill="#564F47" d="M113.69,36.825c-0.255,0-0.51,0-0.828-0.064h-0.127c-0.191,0-0.446-0.064-0.51-0.255
			c0.127,0.064,0.318,0.127,0.51,0.127h0.127c0.255,0.064,0.51,0.064,0.828,0.064h0.064c0,0,0.064,0,0.064,0.064
			S113.753,36.825,113.69,36.825L113.69,36.825z M114.008,36.698C114.072,36.698,114.072,36.698,114.008,36.698
			c0.064-0.064,0.064-0.127,0-0.127c-0.382-0.064-0.701-0.255-0.955-0.446c-0.127-0.064-0.255-0.191-0.382-0.255
			c0,0-0.064-0.064-0.127-0.064c-0.064-0.064-0.191-0.127-0.191-0.191c-0.064,0.127,0,0.191,0.191,0.255l0.127,0.064
			c0.127,0.064,0.255,0.191,0.382,0.255C113.308,36.443,113.626,36.634,114.008,36.698L114.008,36.698L114.008,36.698z
			 M112.925,37.398c0.064,0,0.127,0,0.191,0c0.255,0,0.573-0.127,0.764-0.255c0,0,0.064-0.064,0-0.064c0,0-0.064-0.064-0.064,0
			c-0.191,0.127-0.51,0.191-0.764,0.255c-0.318,0.064-0.51,0-0.637,0C112.607,37.334,112.734,37.398,112.925,37.398L112.925,37.398z
			 M112.288,38.099L112.288,38.099c0.382,0,0.637-0.127,0.955-0.255c0.191-0.064,0.255-0.191,0.382-0.318
			c0.064-0.064,0.127-0.127,0.255-0.191c-0.191,0-0.255,0.064-0.318,0.127c-0.127,0.127-0.255,0.191-0.382,0.318
			c-0.255,0.127-0.573,0.255-0.892,0.255C112.225,37.971,112.225,38.035,112.288,38.099
			C112.225,38.035,112.225,38.099,112.288,38.099L112.288,38.099z M113.244,39.436C113.244,39.436,113.244,39.373,113.244,39.436
			c0.064,0,0.064-0.064,0.064-0.064c-0.064-0.127,0.064-0.446,0.127-0.573c0.127-0.191,0.191-0.318,0.255-0.51
			c0.191-0.318,0.318-0.573,0.573-0.701c-0.318,0.064-0.446,0.318-0.637,0.573c-0.127,0.255-0.255,0.382-0.318,0.51
			C113.244,38.99,113.116,39.245,113.244,39.436C113.18,39.373,113.18,39.436,113.244,39.436L113.244,39.436z M112.607,38.799
			c0.064,0,0.064-0.064,0.127-0.064c0.064,0,0.064-0.064,0.127-0.064c0.127-0.064,0.191-0.127,0.318-0.255
			c0.191-0.191,0.318-0.318,0.446-0.446l0.064-0.064c0.127-0.127,0.255-0.255,0.255-0.382c0,0,0-0.064-0.064-0.064
			c0,0-0.064,0-0.064,0.064c-0.064,0.127-0.127,0.255-0.255,0.382l0,0c-0.127,0.127-0.255,0.255-0.382,0.382
			c-0.191,0.127-0.255,0.255-0.382,0.318c-0.064,0-0.064,0.064-0.127,0.064c-0.064,0.064-0.127,0.127-0.191,0.127
			C112.543,38.799,112.607,38.799,112.607,38.799L112.607,38.799z M115.218,39.755C115.282,39.755,115.282,39.755,115.218,39.755
			c0.127-0.191,0.064-0.51,0-0.701c-0.064-0.255-0.191-0.446-0.255-0.637l-0.127-0.191c-0.127-0.255-0.191-0.446-0.446-0.637h-0.064
			v0.064c0.191,0.127,0.318,0.382,0.382,0.573l0.064,0.191c0.127,0.191,0.191,0.446,0.255,0.637
			c0.064,0.318,0.127,0.573,0.064,0.637C115.155,39.691,115.218,39.755,115.218,39.755L115.218,39.755L115.218,39.755z
			 M113.817,39.118L113.817,39.118c0.064-0.127,0.127-0.191,0.127-0.318v-0.127c0-0.127,0.064-0.255,0.127-0.382l0.064-0.127
			c0.064-0.127,0.127-0.318,0.191-0.446c-0.127,0.127-0.191,0.255-0.255,0.382l-0.064,0.191c-0.064,0.127-0.064,0.255-0.127,0.382
			v0.127c0,0.064,0,0.191-0.064,0.255C113.753,39.054,113.753,39.054,113.817,39.118C113.753,39.118,113.817,39.118,113.817,39.118
			L113.817,39.118z M115.983,39.054L115.983,39.054c0.064-0.064,0.064-0.064,0.064-0.064c-0.127-0.127-0.255-0.255-0.446-0.382
			c-0.127-0.127-0.318-0.255-0.446-0.382c-0.255-0.255-0.446-0.51-0.573-0.764c0,0-0.064-0.064-0.064,0c0,0-0.064,0.064,0,0.064
			c0.127,0.255,0.318,0.51,0.573,0.764c0.127,0.127,0.318,0.255,0.446,0.382C115.664,38.799,115.792,38.927,115.983,39.054
			C115.919,39.054,115.983,39.054,115.983,39.054L115.983,39.054z M116.874,38.608c0.064,0,0.064,0,0.064-0.064l-0.064-0.064
			c-0.127,0-0.191-0.064-0.255-0.127c-0.064,0-0.064-0.064-0.127-0.064l-0.191-0.064c-0.064-0.064-0.191-0.064-0.255-0.127
			c-0.127-0.064-0.255-0.127-0.318-0.191l-0.191-0.127c-0.255-0.127-0.51-0.382-0.637-0.573h-0.064v0.064
			c0.191,0.191,0.446,0.446,0.701,0.573l0.191,0.127c0.127,0.064,0.255,0.127,0.382,0.191c0.064,0.064,0.191,0.064,0.255,0.127
			l0.191,0.064c0.064,0,0.064,0.064,0.127,0.064C116.62,38.545,116.747,38.608,116.874,38.608L116.874,38.608z M116.62,37.844
			L116.62,37.844c0.064-0.064,0.064-0.064,0.064-0.064c-0.255-0.255-0.573-0.382-0.955-0.573c-0.127-0.064-0.255-0.064-0.382-0.127
			c-0.127,0-0.255-0.064-0.382-0.127c0.064,0.127,0.191,0.191,0.382,0.191c0.127,0,0.255,0.064,0.382,0.127
			C115.983,37.462,116.301,37.653,116.62,37.844C116.556,37.844,116.556,37.844,116.62,37.844L116.62,37.844z M115.473,37.016
			c0.064,0,0.191,0,0.255,0c0.318,0,0.573-0.064,0.892-0.191c0,0,0.064-0.064,0-0.064c0,0-0.064-0.064-0.064,0
			c-0.255,0.127-0.573,0.127-0.828,0.127c-0.318,0-0.637,0-0.892-0.064C115.091,37.016,115.282,37.016,115.473,37.016
			L115.473,37.016z M115.027,36.634c0.064,0,0.127,0,0.191,0c0.637-0.064,1.274-0.191,1.656-0.701v-0.064h-0.064
			c-0.382,0.51-1.019,0.573-1.592,0.637c-0.127,0-0.318,0.064-0.446,0.064C114.836,36.634,114.9,36.634,115.027,36.634
			L115.027,36.634z M114.39,36.825L114.39,36.825l0.191-0.191c0.127-0.127,0.255-0.318,0.446-0.446l0.51-0.318
			c0.127-0.127,0.255-0.191,0.318-0.191c0,0,0.064,0,0.064-0.064l-0.064-0.064c-0.127,0-0.255,0.127-0.318,0.191l-0.573,0.382
			c-0.191,0.127-0.318,0.318-0.446,0.446l-0.127,0.191C114.327,36.761,114.327,36.761,114.39,36.825
			C114.327,36.825,114.39,36.825,114.39,36.825L114.39,36.825z M114.263,36.761c0.064,0,0.127-0.127,0.255-0.255l0.764-1.146
			c0.064-0.064,0.064-0.127,0.064-0.191c0.064-0.064,0.064-0.127,0.127-0.191v-0.064h-0.064c-0.064,0.064-0.127,0.127-0.127,0.255
			c0,0.064-0.064,0.127-0.064,0.127l-0.764,1.146C114.39,36.506,114.263,36.698,114.263,36.761L114.263,36.761L114.263,36.761z
			 M114.199,37.016C114.199,37.016,114.263,36.952,114.199,37.016c0.064-0.127,0.064-0.191,0-0.318
			c-0.064-0.255-0.064-0.382-0.064-0.51c0-0.255,0-0.446,0.064-0.637c0-0.064,0-0.127,0.064-0.255
			c0.064-0.255,0.064-0.51,0.191-0.701v-0.064h-0.064c-0.127,0.191-0.191,0.446-0.255,0.701l-0.064,0.318
			c-0.064,0.191-0.064,0.382-0.064,0.637c0,0.127,0,0.318,0.064,0.446v0.127C114.136,36.825,114.136,36.889,114.199,37.016
			C114.136,36.952,114.136,36.952,114.199,37.016L114.199,37.016L114.199,37.016z M114.199,37.016L114.199,37.016
			c0.064,0,0.064-0.064,0.064-0.064c-0.191-0.255-0.382-0.701-0.446-0.955c-0.064-0.255-0.191-0.637-0.064-0.764v-0.064h-0.064
			c-0.127,0.191,0,0.701,0.064,0.892C113.753,36.252,113.944,36.698,114.199,37.016C114.136,37.016,114.199,37.016,114.199,37.016
			L114.199,37.016z M114.645,39.309L114.645,39.309c0.064,0,0.064-0.064,0.064-0.064c0-0.127-0.064-0.191-0.127-0.318
			c-0.064-0.064-0.064-0.127-0.127-0.255c-0.064-0.127-0.064-0.318-0.127-0.446c0-0.064,0-0.191,0-0.255c0-0.064,0-0.127,0-0.191
			c0-0.191,0-0.382,0-0.573c0,0,0-0.064-0.064-0.064c-0.064,0-0.064,0-0.064,0.064c0,0.191,0,0.382,0,0.573c0,0.064,0,0.127,0,0.191
			c0,0.064,0,0.191,0,0.255c0,0.191,0.064,0.318,0.127,0.446c0,0.064,0.064,0.191,0.127,0.255
			C114.518,39.118,114.581,39.182,114.645,39.309C114.581,39.309,114.581,39.309,114.645,39.309L114.645,39.309z" />
            <path fill="#FBF5E3" d="M116.874,36.952c-0.255,0.255-0.573-0.127-0.318-0.382C116.811,36.379,117.065,36.698,116.874,36.952z
			 M116.301,35.615c0.255-0.382-0.318-0.51-0.51-0.191C115.601,35.806,116.11,35.869,116.301,35.615z M117.32,38.799
			c0.064-0.318-0.573-0.573-0.573-0.127C116.683,38.927,117.257,39.118,117.32,38.799z M116.429,39.309
			c0.191-0.446-0.51-0.637-0.573-0.191C115.728,39.436,116.301,39.627,116.429,39.309z M115.091,39.691
			c-0.127,0.382,0.446,0.573,0.446,0.127C115.537,39.5,115.218,39.309,115.091,39.691z M114.072,39.436
			c0.255-0.318-0.255-0.637-0.51-0.318C113.371,39.436,113.881,39.691,114.072,39.436z M112.798,38.99
			c0.127-0.446-0.701-0.446-0.637,0.127C112.161,39.564,112.734,39.309,112.798,38.99z M112.161,38.29
			c0.382-0.191-0.127-0.637-0.382-0.318C111.651,38.162,111.97,38.417,112.161,38.29z M112.161,36.315
			c-0.318-0.127-0.446,0.191-0.127,0.318h0.064C112.48,36.825,112.48,36.443,112.161,36.315z M113.499,34.659
			c-0.318,0.064-0.191,0.573,0.064,0.573C113.944,35.36,113.881,34.596,113.499,34.659z M114.645,34.468
			c0.064-0.382-0.382-0.382-0.446-0.064C114.136,34.787,114.581,34.85,114.645,34.468z M115.537,35.041
			c0.51,0,0.255-0.764-0.127-0.573C115.155,34.596,115.218,35.041,115.537,35.041z M117.257,35.678
			c-0.064-0.127-0.191-0.064-0.318-0.064c-0.127,0.064-0.255,0.191-0.255,0.318C116.556,36.443,117.511,36.124,117.257,35.678z
			 M116.874,38.099c0.446-0.127-0.064-0.637-0.318-0.382C116.301,37.908,116.62,38.162,116.874,38.099z M112.48,35.551
			c0-0.191-0.51-0.51-0.637-0.191c-0.064,0.127,0.064,0.318,0.191,0.382C112.288,35.806,112.543,35.806,112.48,35.551z
			 M112.543,37.207c-0.064-0.255-0.764-0.064-0.51,0.191C112.161,37.589,112.607,37.462,112.543,37.207z M113.371,39.436
			c-0.064-0.318-0.446-0.127-0.382,0.127C112.989,39.882,113.371,39.691,113.371,39.436z M114.581,39.118
			c-0.127,0-0.191,0.255-0.191,0.382c0,0.191,0.255,0.382,0.382,0.127C114.836,39.5,114.772,39.118,114.581,39.118z" />
        </g>
    </g>
    <g class="fan">
        <path fill="#ED4B5E" d="M72.708,14.935c8.887,0,11.042,7.272,11.513,10.705l30.702-8.484c-4.78-33.395-42.35-32.52-42.35-32.52
		s-37.233-0.875-42.014,32.52l30.635,8.416C61.733,22.207,63.82,14.935,72.708,14.935z" />
        <path fill="#ED4B5E" d="M69.947,27.997l-8.82,2.828c0,0,2.76,8.887,11.648,8.887c8.82,0,11.581-8.887,11.581-8.887l-8.82-2.828
		H69.947z" />
        <path fill="#564F47" d="M84.221,25.64c0-0.135-0.067-0.337-0.067-0.539l-7.137,1.616l6.935-2.558
		c-0.067-0.202-0.067-0.337-0.135-0.539l-7.473,2.693l7.137-3.838c-0.067-0.202-0.135-0.337-0.202-0.539l-7.137,3.905l6.666-4.983
		c-0.067-0.135-0.202-0.337-0.269-0.471l-6.396,4.78L82,19.514c-0.135-0.135-0.202-0.337-0.337-0.471l-6.127,5.992l5.319-6.868
		c-0.135-0.135-0.269-0.269-0.404-0.404l-5.386,6.935l4.376-7.743c-0.135-0.135-0.337-0.202-0.471-0.337l-4.511,7.743l3.299-8.416
		c-0.202-0.067-0.337-0.135-0.539-0.202l-3.299,8.416l2.087-8.82c-0.202-0.067-0.337-0.067-0.539-0.135l-2.087,8.887l0.741-9.089
		c-0.202,0-0.404,0-0.539,0l-0.808,9.493l-0.808-9.493c-0.202,0-0.404,0-0.539,0l0.741,9.089l-2.087-8.887
		c-0.202,0-0.404,0.067-0.539,0.135l2.087,8.82l-3.367-8.484c-0.202,0.067-0.337,0.135-0.539,0.202l3.367,8.484l-4.444-7.877
		c-0.135,0.135-0.337,0.202-0.471,0.269l4.444,7.81l-5.454-7.002c-0.135,0.135-0.269,0.269-0.404,0.404l5.386,6.935l-6.194-5.992
		c-0.135,0.135-0.202,0.337-0.337,0.471l5.925,5.723l-6.464-4.848c-0.067,0.135-0.202,0.337-0.269,0.471l6.733,5.05l-7.339-3.905
		c-0.067,0.202-0.135,0.337-0.202,0.539l7.204,3.905l-7.608-2.76c-0.067,0.202-0.067,0.404-0.135,0.539l7.07,2.558l-7.204-1.616
		c-0.067,0.202-0.067,0.404-0.067,0.539l11.514,2.626l0.067-0.269l0.067,0.269L84.221,25.64z" />
        <g>
            <path fill="#CF2029" d="M62.541,21.129c0.135-0.337,0.337-0.673,0.539-1.01L36.821,0.863C36.619,1.2,36.35,1.47,36.148,1.806
			L62.541,21.129z" />
            <path fill="#CF2029" d="M61.464,24.294c0.067-0.337,0.202-0.741,0.269-1.077L31.636,11.905c-0.067,0.337-0.202,0.741-0.269,1.077
			L61.464,24.294z" />
            <path fill="#CF2029" d="M64.561,18.167c0.269-0.269,0.539-0.539,0.808-0.808L45.978-7.822c-0.337,0.202-0.606,0.404-0.943,0.673
			L64.561,18.167z" />
            <path fill="#CF2029" d="M61.935,22.61c0.135-0.337,0.269-0.741,0.404-1.077l-28.48-15.62c-0.135,0.337-0.337,0.673-0.471,1.01
			L61.935,22.61z" />
            <path fill="#CF2029" d="M67.523,16.012c0.337-0.135,0.673-0.269,1.077-0.404L57.491-13.074c-0.337,0.135-0.741,0.202-1.077,0.337
			L67.523,16.012z" />
            <path fill="#CF2029" d="M63.416,19.581c0.202-0.337,0.404-0.606,0.673-0.943L40.928-3.85c-0.269,0.269-0.539,0.539-0.808,0.808
			L63.416,19.581z" />
            <path fill="#CF2029" d="M62.339-14.286l6.935,29.692c0.337-0.067,0.741-0.202,1.144-0.202l-6.935-29.625
			C63.08-14.421,62.675-14.353,62.339-14.286z" />
            <path fill="#CF2029" d="M65.84,17.022c0.269-0.202,0.606-0.404,0.943-0.606l-15.62-27.134c-0.337,0.135-0.673,0.337-1.01,0.471
			L65.84,17.022z" />
            <path fill="#CF2029" d="M70.082-15.296c-0.337,0-0.741,0.067-1.145,0.067l2.289,30.231c0.337-0.067,0.741-0.067,1.144-0.067
			L70.082-15.296z" />
            <path fill="#CF2029" d="M76.949,15.608c0.337,0.135,0.741,0.269,1.077,0.404L89.136-12.67c-0.337-0.135-0.741-0.269-1.077-0.337
			L76.949,15.608z" />
            <path fill="#CF2029" d="M73.179,15.002c0.404,0,0.808,0,1.144,0.067l2.289-30.231c-0.404-0.067-0.808-0.067-1.144-0.067
			L73.179,15.002z" />
            <path fill="#CF2029" d="M75.199,15.204c0.404,0.067,0.741,0.135,1.144,0.269l6.935-29.625c-0.404-0.067-0.741-0.135-1.144-0.202
			L75.199,15.204z" />
            <path fill="#CF2029" d="M113.846,11.972L83.682,23.216c0.135,0.404,0.202,0.741,0.269,1.077l30.163-11.311
			C114.048,12.713,113.913,12.309,113.846,11.972z" />
            <path fill="#CF2029" d="M111.624,5.913l-28.48,15.688c0.135,0.337,0.269,0.741,0.404,1.077L112.096,6.99
			C111.961,6.653,111.759,6.317,111.624,5.913z" />
            <path fill="#CF2029" d="M82.403,20.187c0.202,0.337,0.404,0.673,0.539,1.01l26.393-19.391c-0.202-0.337-0.471-0.606-0.673-0.943
			L82.403,20.187z" />
            <path fill="#CF2029" d="M82.066,19.648l23.296-22.623c-0.269-0.269-0.539-0.539-0.808-0.808L81.393,18.773
			C81.662,19.042,81.864,19.379,82.066,19.648z" />
            <path fill="#CF2029" d="M80.114,17.426c0.269,0.269,0.539,0.539,0.808,0.808L100.38-7.082c-0.337-0.202-0.606-0.471-0.943-0.673
			L80.114,17.426z" />
            <path fill="#CF2029" d="M78.7,16.416c0.337,0.202,0.673,0.404,0.943,0.606l15.688-27.134c-0.337-0.202-0.673-0.337-1.01-0.471
			L78.7,16.416z" />
        </g>
        <g>
            <polygon fill="#6D635C" points="73.044,41.597 72.64,41.597 72.64,36.75 73.044,36.75 		" />
            <path fill="#CF2029" d="M74.189,37.625c0-0.741-0.606-1.279-1.279-1.279c-0.741,0-1.279,0.606-1.279,1.279
			c0,0.741,0.606,1.279,1.279,1.279C73.583,38.904,74.189,38.298,74.189,37.625z" />
            <circle fill="#CF2029" cx="72.842" cy="29.007" r="1.279" />
            <path fill="#CBAC54" d="M77.353,33.249c0-0.875-0.606-1.548-1.481-1.683c0-0.135,0.067-0.269,0.067-0.337
			c0-0.943-0.741-1.683-1.683-1.683c-0.606,0-1.077,0.337-1.414,0.808c-0.269-0.471-0.808-0.808-1.414-0.808
			c-0.943,0-1.683,0.741-1.683,1.683c0,0.135,0,0.269,0.067,0.404c-0.808,0.135-1.414,0.808-1.414,1.616
			c0,0.808,0.606,1.548,1.414,1.616c0,0.135-0.067,0.269-0.067,0.404c0,0.943,0.741,1.683,1.683,1.683
			c0.606,0,1.077-0.337,1.414-0.808c0.269,0.471,0.808,0.808,1.414,0.808c0.943,0,1.683-0.741,1.683-1.683
			c0-0.135,0-0.269-0.067-0.337C76.68,34.797,77.353,34.056,77.353,33.249z M73.448,33.249c0,0.337-0.269,0.606-0.606,0.606
			c-0.337,0-0.606-0.269-0.606-0.606c0-0.337,0.269-0.606,0.606-0.606C73.179,32.642,73.448,32.912,73.448,33.249z M74.256,30.623
			c0.337,0,0.606,0.269,0.606,0.606s-0.269,0.606-0.606,0.606c-0.337,0-0.606-0.269-0.606-0.606S73.919,30.623,74.256,30.623z
			 M71.428,30.623c0.337,0,0.606,0.269,0.606,0.606s-0.269,0.606-0.606,0.606c-0.337,0-0.606-0.269-0.606-0.606
			S71.092,30.623,71.428,30.623z M69.476,33.249c0-0.337,0.269-0.606,0.606-0.606c0.337,0,0.606,0.269,0.606,0.606
			c0,0.337-0.269,0.606-0.606,0.606C69.745,33.854,69.476,33.585,69.476,33.249z M71.428,35.874c-0.337,0-0.606-0.269-0.606-0.606
			c0-0.337,0.269-0.606,0.606-0.606c0.337,0,0.606,0.269,0.606,0.606C72.034,35.605,71.765,35.874,71.428,35.874z M74.256,35.874
			c-0.337,0-0.606-0.269-0.606-0.606c0-0.337,0.269-0.606,0.606-0.606c0.337,0,0.606,0.269,0.606,0.606
			C74.862,35.605,74.593,35.874,74.256,35.874z M75.67,33.854c-0.337,0-0.606-0.269-0.606-0.606c0-0.337,0.269-0.606,0.606-0.606
			c0.337,0,0.606,0.269,0.606,0.606C76.276,33.585,76.007,33.854,75.67,33.854z" />
            <path fill="#CBAC54" d="M73.717,42.001c0-0.471-0.404-0.875-0.875-0.875c-0.471,0-0.875,0.404-0.875,0.875v1.683h1.683v-1.683
			H73.717z" />
            <polygon fill="#CF2029" points="72.102,43.685 72.102,56.612 72.842,56.612 73.65,56.612 73.65,43.685 		" />
            <path fill="#591E25" d="M72.977,56.612L72.977,56.612c-0.135-0.875-0.135-1.751-0.135-2.626v-4.04v-2.222v-0.337V44.56v-0.875
			h0.135v0.875v1.616l-0.067,2.02v0.741c0,1.683-0.067,3.299,0,4.983C72.91,54.861,72.91,55.737,72.977,56.612z M72.708,43.685
			v0.943v2.828v0.337v2.222v4.04c0,0.875,0,1.751,0.135,2.626l0,0c-0.067-0.875-0.067-1.751-0.067-2.626
			c-0.067-1.683,0-3.299,0-4.983V48.33l0.067-2.02v-1.616v-0.943h-0.135V43.685z M73.246,43.685v0.875v2.828v0.337v2.222v4.04
			c0,0.875,0,1.818,0.135,2.693l0,0c-0.067-0.875-0.067-1.818-0.067-2.693c0-1.683,0-3.299,0-4.983v-0.741l0.067-2.02v-1.616v-0.875
			h-0.135V43.685z M72.573,53.986c-0.067-1.683,0-3.299,0-4.983v-0.741l0.067-2.02v-1.616v-0.943h-0.067v0.943v2.828v0.337v2.222
			V53.986c0,0.875,0,1.751,0.067,2.626l0,0C72.573,55.804,72.573,54.861,72.573,53.986z M72.371,54.054
			c-0.067-1.683,0-3.299,0-4.983V48.33l0.067-2.02v-1.616v-0.943h-0.067v0.943v2.828v0.337v2.222V54.054
			c0,0.875,0,1.751,0.067,2.626l0,0C72.371,55.804,72.371,54.929,72.371,54.054z M73.044,53.986c-0.067-1.683,0-3.299,0-4.983
			v-0.741l0.067-2.02v-1.616v-0.875h-0.067v0.875v2.828v0.337v2.222V53.986c0,0.875,0,1.818,0.067,2.693l0,0
			C73.044,55.737,73.112,54.861,73.044,53.986z" />
        </g>
    </g>
    <g class="text-loading">
        <path d="M11.199-75.321c1.228,0,2.261,1.034,3.037,3.037v3.554l0.711,5.75l-0.129,2.714v1.034l-2.132,6.332
		c-0.84,0.581-1.292,1.163-1.292,1.874l0.258,0.129h1.163c1.809,0,4.652-0.905,8.593-2.714c1.615,0.065,2.455,0.323,2.455,0.711
		v0.711c-0.84,0.969-3.489,1.874-7.883,2.714l-0.194,0.194l-0.84-0.258l-3.747,0.452c-2.972-1.098-4.458-2.778-4.458-5.04
		c0-1.615,1.615-5.686,4.846-12.147c0.775-3.037,1.163-5.169,1.163-6.332l-0.452-0.969l-0.969,0.388
		c-0.452-0.775-0.711-1.357-0.711-1.874L11.199-75.321z" />
        <path d="M34.33-73.576c0.388,0,1.228,1.034,2.584,3.037h1.163c2.649,0,4.523,2.261,5.557,6.72l0.452,2.584v1.292
		c0,1.938-0.323,3.295-1.034,4.135v0.452c-3.166,3.424-5.944,5.169-8.335,5.169l-1.292,0.258c-3.747,0-6.267-1.744-7.559-5.169
		v-1.551c0-4.846,2.649-10.015,8.012-15.442l-0.129-0.129v-0.84L34.33-73.576z M30.065-54.71c0.969,1.163,2.391,1.874,4.264,2.132
		c1.228,0,2.778-0.711,4.587-2.132c2.003-2.003,3.037-5.363,3.037-10.015c-0.775-3.36-1.938-5.04-3.424-5.04
		c-1.034,0-1.551,0.581-1.551,1.744c-1.551,3.037-3.554,6.332-6.009,9.756L30.065-54.71z" />
        <path d="M52.679-74.028h0.452c0.452,1.809,0.84,2.714,1.163,2.714c1.163,0,2.584,2.778,4.264,8.335
		c2.778,6.396,4.135,10.338,4.135,11.888l-0.452,0.452h-0.129c-1.615-0.969-2.455-2.261-2.455-3.877l-1.034-3.424
		c-0.388,0-1.68,0.581-3.877,1.744l-2.261-0.452c-0.646,1.357-1.551,2.455-2.714,3.295c-0.646,1.228-1.163,2.649-1.551,4.264
		l-0.129,0.129h-0.84c-1.034-1.357-1.551-2.843-1.551-4.458c0-4.2,1.68-9.239,5.04-15.054
		C51.968-71.186,52.679-73.059,52.679-74.028z M54.101-70.281l0.452,4.458c-0.194,2.003-0.452,3.101-0.711,3.295v1.421l-0.129,1.163
		l3.166,0.452h1.292c-2.132-7.043-3.36-10.532-3.618-10.532l-0.258-0.258C54.294-70.281,54.101-70.281,54.101-70.281z" />
        <path d="M67.281-73.318c1.809,0.84,4.264,1.292,7.301,1.292c2.778,0.388,4.652,1.098,5.75,2.132c1.615,1.615,2.455,4.2,2.455,7.753
		v1.034c0,2.261-0.84,4.264-2.455,5.88c-1.034,1.421-3.295,2.907-6.72,4.458c0,0.258-0.452,0.452-1.292,0.452l-0.452-0.129
		c0,0.258-0.711,0.646-2.132,1.034l-0.129-0.129l-0.258,0.452H69.09l-0.452-0.452v-0.581c0.452-0.969,2.843-2.261,7.043-3.877
		c3.36-2.455,5.04-5.298,5.04-8.464c0-2.455-0.517-3.747-1.551-3.747H79.04l-2.003,0.452h-4.458l-0.129-0.258l-0.129,0.258h-0.323
		l-0.84-0.258v3.166c-0.194,2.261-0.711,4.458-1.551,6.59c-0.646,0.84-1.292,2.132-1.874,3.747l0.258,0.258v1.744
		c0,0.969-0.452,1.421-1.292,1.421c-0.775-0.582-1.228-3.424-1.421-8.593v-0.452c0-1.163,0.84-5.04,2.455-11.759
		c-0.646-1.421-1.034-2.455-1.034-3.037L67.281-73.318z" />
        <path d="M88.409-74.739h1.292c0.84,0,1.551,1.551,2.003,4.587l-0.258,0.258l0.581,5.04c0,5.363-0.775,9.046-2.261,11.048
		l-0.84,2.714l0.129,0.84c0,0.646-0.323,1.163-1.034,1.551h-0.258c-0.84-0.258-1.486-2.132-1.874-5.557l2.584-17.057v-3.424H88.409z
		" />
        <path d="M101.331-74.481c0.388,0,0.84,1.163,1.292,3.424c0.775,0,1.744,1.098,2.843,3.295c0.452,0.646,1.034,2.132,1.551,4.264
		c0.388,0.84,0.646,2.326,0.84,4.458v1.551l0.711,2.003h0.129c0.388,0,1.357-2.907,2.843-8.722c1.357-3.166,2.326-4.91,3.037-5.298
		l0.452,1.163c-0.194,1.615-0.646,3.231-1.421,4.846c-1.809,7.043-3.231,10.596-4.135,10.596h-0.258
		c-2.778-2.843-4.717-6.267-5.88-10.144h-0.323c0,1.809-1.228,4.135-3.747,6.849c-0.84,1.809-1.292,3.747-1.292,5.75v1.163
		L97.39-48.83h-0.129c-0.775,0-1.421-1.938-2.003-5.75v-0.452c0-3.618,1.163-7.947,3.554-12.858l1.551-6.461l0.129-0.129
		C100.491-74.481,101.331-74.481,101.331-74.481z" />
        <path d="M132.667-73.576h0.84c0.194,0,0.84,1.034,2.003,3.037l-0.129,0.258l0.129,0.129v0.84c-0.581,0.775-1.098,1.163-1.551,1.163
		c-0.452-1.163-1.292-2.197-2.455-3.166l-1.421-0.129c-2.261,1.551-4.717,5.233-7.301,11.178l-1.034,4.846
		c0,1.744,0.581,2.649,1.744,2.714c1.421,0,4.135-0.84,8.012-2.584v-0.452c-1.809,0-2.714-0.711-2.714-2.132
		c0.258-0.646,1.034-1.034,2.261-1.034c0,0.258,0.258,0.452,0.711,0.452c1.421,0,2.778-0.194,4.006-0.581l1.292,0.129h0.129
		c0.775,0,1.292,0.258,1.551,0.84v0.194c-0.452,0.969-1.163,1.809-2.132,2.584c0,3.037-0.711,4.587-2.132,4.587
		c-0.646-0.84-1.034-2.068-1.034-3.747c-1.228,2.132-3.36,3.683-6.332,4.717l-2.261,0.452c-3.166,0-5.233-0.711-6.332-2.132
		c-1.034-1.163-1.551-3.36-1.551-6.59c1.744-6.655,4.717-11.307,9.046-13.891c1.744-0.84,3.166-1.357,4.458-1.421l1.744,0.452h0.452
		L132.667-73.576L132.667-73.576z" />
    </g>
</svg>
